<mxfile host="Electron" agent="Mozilla/5.0 (Windows NT 10.0; Win64; x64) AppleWebKit/537.36 (KHTML, like Gecko) draw.io/25.0.2 Chrome/128.0.6613.186 Electron/32.2.5 Safari/537.36" version="25.0.2">
  <diagram name="Seite-1" id="zNBCt6ECs0-7iDkNFfR8">
    <mxGraphModel dx="2389" dy="909" grid="1" gridSize="10" guides="1" tooltips="1" connect="1" arrows="1" fold="1" page="1" pageScale="1" pageWidth="827" pageHeight="1169" math="0" shadow="0">
      <root>
        <mxCell id="0" />
        <mxCell id="1" parent="0" />
        <mxCell id="mJipSocHQauUDG9Wr_JG-21" value="" style="shape=image;aspect=fixed;image=data:image/png,iVBORw0KGgoAAAANSUhEUgAABbEAAALLCAYAAADHWM8JAAD//0lEQVR42uzdCZgcVaH28dM9k1mzsEgUicqmCCgkARI2vVwCkSSEfZMtCVsgKIuA4lUuKIosggExENaAIYGAXiCEQELUq8gOsghy+ZCggEIgkMw+Sbrnq1PdVV1VXdW1dFX36Z7/73l4equuevt0zzB558yp1IBGAAAAAAAAAACgoBQlNgAAAAAAAABAVZTYAAAAAAAAAABlUWIDAAAAAAAAAJRFiQ0AAAAAAAAAUBYlNgAAAAAAAABAWZTYAAAAAAAAAABlUWIDAAAAAAAAAJRFiQ0AAAAAAAAAUBYlNgAAAAAAAABAWZTYAAAAAAAAAABlUWIDAAAAAAAAAJRFiQ0AAAAAAAAAUBYlNgAAAAAAAABAWZTYAAAAAAAAAABlUWIDAAAAAAAAAJRFiQ0AAAAAAAAAUBYlNgAAAAAAAABAWZTYAAAAAAAAAABlUWIDAAAAAAAAAJRFiQ0AAAAAAAAAUBYlNgAAAAAAAABAWZTYAAAAAAAAAABlUWIDAAAAAAAAAJRFiQ0AAAAAAAAAUBYlNgAAAAAAAABAWZTYAAAAAAAAAABlUWIDAAAAAAAAAJRFiQ0AAAAAAAAAUBYlNgAAAAAAAABAWZTYAAAAAAAAAABlUWIDAAAAAAAAAJRFiQ0AAAAAAAAAUBYlNgAAAAAAAABAWZTYAAAAAAAAAABlUWIDAAAAAAAAAJRFiQ0AAAAAAAAAUBYlNgAAAAAAAABAWZTYAAAAAAAAAABlUWIDAAAAAAAAAJRFiQ0AAAAAAAAAUBYlNgAAAAAAAABAWZTYAAAAAAAAAABlUWIDAAAAAAAAAJRFiQ0AAAAAAAAAUBYlNgAAAAAAAABAWZTYAAAAAAAAAABlUWIDAAAAAAAAAJRFiQ0AAAAAAAAAUBYlNgAAAAAAAABAWZTYAAAAAAAAAABlUWIDAAAAAAAAAJRFiQ0AAAAAAAAAUBYlNgAAAAAAAABAWZTYAAAAAAAAAABlUWIDAAAAAAAAAJRFiQ0AAAAAAAAAUBYlNgAAAAAAAABAWZTYAAAAAAAAAABlUWIDAAAAAAAAAJRFiQ0AAAAAAAAAUBYlNgAAAAAAAABAWZTYAAAAAAAAAABlUWIDAAAAAAAAAJRFiQ0AAAAAAAAAUBYlNgAAAAAAAABAWZTYAAAAAAAAAABlUWIDAAAAAAAAAJRFiQ0AAAAAAAAAUBYlNgAAAAAAAABAWZTYAAAAAAAAAABlUWIDAAAAAAAAAJRFiQ0AAAAAAAAAUBYlNgAAAAAAAABAWZTYAAAAAAAAAABlUWIDAAAAAAAAAJRFiQ0AAAAAAAAAUBYlNgAAAAAAAABAWZTYAAAAAAAAAABlUWIDAAAAAAAAAJRFiQ0AAAAAAAAAUBYlNgAAAAAAAABAWZTYAAAAAAAAAABlUWIDAAAAAAAAAJRFiQ0AAAAAAAAAUBYlNgAAAAAAAABAWZTYAAAAAAAAAABlUWIDAAAAAAAAAJRFiQ0AAAAAAAAAUBYlNgAAAAAAAABAWZTYAAAAAAAAAABlUWIDAAAAAAAAAJRFiQ0AAAAAAAAAUBYlNgAAAAAAAABAWZTYAAAAAAAAAABlUWIDAAAAAAAAAJRFiQ0AAAAAAAAAUBYlNgAAAAAAAABAWZTYAAAAAAAAAABlUWIDAAAAAAAAAJRFiQ0AAAAAAAAAUBYlNgAAAAAAAABAWZTYAAAAAAAAAABlUWIDAAAAAAAAAJRFiQ0AAAAAAAAAUBYlNgAAAAAAAABAWZTYAAAAAAAAAABlUWIDAAAAAAAAAJRFiQ0AAAAAAAAAUBYlNgAAAAAAAABAWZTYAAAAAAAAAABlUWIDAAAAAAAAAJRFiQ0AAAAAAAAAUBYlNgAAAAAAAABAWZTYAAAAAAAAAABlUWIDAAAAAAAAAJRFiQ0AAAAAAAAAUBYlNgAAAAAAAABAWZTYAAAAAAAAAABlUWIDAAAAAAAAAJRFiQ0AAAAAAAAAUBYlNgAAAAAAAABAWZTYAAAAAAAAAABlUWIDAAAAAAAAAJRFiQ0AAAAAAAAAUBYlNgAAAAAAAABAWZTYAAAAAAAAAABlUWIDAAAAAAAAAJRFiQ0AAAAAAAAAUBYlNgAAAAAAAABAWZTYAAAAAAAAAABlUWIDAAAAAAAAAJRFiQ0AAAAAAAAAUBYlNgAAAAAAAABAWZTYAAAAAAAAAABlUWIDAAAAAAAAAJRFiQ0AAAAAAAAAUBYlNgAAAAAAAABAWZTYAAAAAAAAAABlUWIDAAAAAAAAAJRFiQ0AAAAAAAAAUBYlNgAAAAAAAABAWZTYAAAAAAAAAABlUWIDAAAAAAAAAJRFiQ0AAAAAAAAAUBYlNgAAAAAAAABAWZTYAAAAAAAAAABlUWIDAAAAAAAAAJRFiQ0AAAAAAAAAUBYlNgAAAAAAAABAWZTYAAAAAAAAAABlUWIDAAAAAAAAAJRFiQ0AAAAAAAAAUBYlNgAAAAAAAABAWZTYAAAAAAAAAABlUWIDAAAAAAAAAJRFiQ0AAAAAAAAAUBYlNgAAAAAAAABAWZTYAAAAAAAAAABlUWIDAAAAAAAAAJRFiQ0AAAAAAAAAUBYlNgAAAAAAAABAWZTYAAAAAAAAAABlUWIDAAAAAAAAAJRFiQ0AAAAAAAAAUBYlNgAAAAAAAABAWZTYAAAAAAAAAABlUWIDAAAAAAAAAJRFiQ0AAAAAAAAAUBYlNgAAAAAAAABAWZTYAAAAAAAAAABlUWIDAAAAAAAAAJRFiQ0AAAAAAAAAUBYlNgAAAAAAAABAWZTYAAAAAAAAAABlUWIDAAAAAAAAAJRFiQ0AAAAAAAAAUBYlNgAAAAAAAABAWZTYAAAAAAAAAABlUWIDAAAAAAAAAJRFiQ0AAAAAAAAAUBYlNgAAAAAAAABAWZTYAAAAAAAAAABlUWIDAAAAAAAAAJRFiQ0AAAAAAAAAUBYlNgAAAAAAAABAWZTYAAAAAAAAAABlUWIDAAAAAAAAAJRFiQ0AAAAAAAAAUBYlNgAAAAAAAABAWZTYAAAAAAAAAABlUWIDAAAAAAAAAJRFiQ0AAAAAAAAAUBYlNgAAAAAAAABAWZTYAAAAAAAAAABlUWIDAAAAAAAAAJRFiQ0AAAAAAAAAUBYlNgAAAAAAAABAWZTYAAAAAAAAAABlUWIDAAAAAAAAAJRFiQ0AAAAAAAAAUBYlNgAAAAAAAABAWZTYAAAAAAAAAABlUWIDAAAAAAAAAJRFiQ0AAAAAAAAAUBYlNgAAAAAAAABAWZTYAAAAAAAAAABlUWIDAFABu+yyi3650UYbldxuzZo11Y5apLe3V7z22mvVjgEAAAAAGKQosQEASFjQAltSscTu7u4Wr7/+erVjAAAAAAAGKUpsAAASVOsFtpyFnc1m9esU2QAAAACAaqDEBgAgQUaJXYsymYzo6+szb1NiAwAAAACqgRIbAICE1HKBLcllRKwosQEAAAAA1UCJDQBAAmq9wJYzsOVMbCtKbAAAAABANVBiAwAQs1ovsCXnLGwDRTYAAAAAoNIosQEAiFmtl9jWkzk6UWIDAAAAACqNEhsAgBjVeoEty2tZYnuhxAYAAAAAVBolNgAAMan1Alvq6ekRpX40oMQGAAAAAFQaJTYAADEYO3asSKVS1Y5Rlv7+frFhwwbf7SiyAQAAAACVRIkNAEAM6mEWttfJHJ0osQEAAAAAlUSJDQBAmeqhwO7r6xOZTCbQtpTYAAAAAIBKosQGAKAM9VBgyx8F5FrYYVBkAwAAAAAqhRIbAIAy1EOJ3dvbK7LZbKjnUGIDAAAAACqFEhsAgIjqocBev369WLduXejnUWIDAAAAACqFEhsAgAhKFdhPPfWU52O77757taPbBD2ZoxMlNgAAAACgUiixAQAIyavALlVeW6lSZEdZRsSKIhsAAAAAUAmU2AAAhORWYtdagR3lZI5OlNgAAAAAgEqgxAYAIAS/dbDdymxVimurcmdhS5TYAAAAAIBKoMQGACCgejiRo7RhwwbR399f9n4osQEAAAAAlUCJDQBAAGPGjKl2hNjIWdhxocgGAAAAACSNEhsAgAC22WYbfQZzPWhtbY1tX5TYAAAAAICkUWIDABDAtttuK9avX1/tGLEYMmSIaGxsjGVflNgAAAAAgKRRYgMAEEA9ldiZTEYMHTo0ln1RYgMAAAAAkkaJDQBAAF/84hfFunXrqh0jFrKMHz58eCz7ymaz4o033qj2SwIAAAAA1DFKbAAAAvjSl74k+vv7qx0jNnGti02JDQAAAABIGiU2AAABUGIXkwW2RIkNAAAAAEgSJTYAAAHUW4mdTqdFc3NzWfugxAYAAAAAVAIlNgAAAWy33Xair6+v2jFiU+662HfccYdtX3vvvXe1XxIAAAAAoE5RYgMAEEC9ldiZTEYMHTo00nOtBba0cuVKsXbtWjFz5sxqvywAAAAAQB2ixAYAIIB6K7GlqOtiG8uISHIpkYsuukiMGjWKEhsAAAAAkAhKbAAAAvrCF75Q7QixamlpEalUKtRz5I8N1h8dKLEBAAAAAEmjxAYAIKB6K7GlsLOxrbOwJeOkjnPnzqXEBgAAAAAkghIbAICA6q3E7u/vFxtttFHg7Z1rYf/9738Xxx57rH6dEhsAAAAAkBRKbAAAAqq3ElsKMxP7yCOPtN3edtttxbRp0/TrlNgAAAAAgKRQYgMAENBgLrGda2FL5513nllcU2IDAAAAAJJCiQ0AitvjyItFdmBdtWNA8/6zC6odIXZNTU2ioaHBdzvnWtjS0UcfLZb9bYN+/aT9txS3LX+72i8HACIId4JbALUvnWoST957SbVjAABCoMQGAEXZy2u+Vavg/WcXVjtC7GQ53d7e7ruNG1lijxo1Sty2fKWYuP0Qsexv6/0POJD136bGLJy+Qmy615VF96/+83fd739Cu3/P4vuXzD1DTJl5Q6Bjeu1D3v/N2yfo1zO9H1VlPBpaP8XxOX6dHT9gya1t1tCSP35flV4/x6/a8Y1jq3B8+EilhfF1TZkNALWDEhsAFDT+iO/nr8XzLXrFnUe73j/hxHuq/VJrSj2W2OvXrxfDhw8vuY31hI4dHR3inXfeEZdffnlRiW1cd1WH5bVBltgjJ9yqX1+14mTX61aZvtWioWVT232rfneyXkq73T9y3+J9lLqfEpvjc/wKHj9lL7gHc4nL8dU5fr1YfstEz8f2P2VZ+QfIl9kU2QBQGyixAUAxhRnY4b49r7jzKPHBilPKPv6nJ9wiJpy4qNrDoKR6LLGlUutiO2dhG8X11VdfHbzEruMCW1r78apqRzCN2GSkeb0aJaJRIFbr+NYMHJ/jJ8pjcra9xKz8MiXVng1cPAYcv1rHrzWysF79xPfK3s+me14RruCmyAaAmkGJDQAKCVNgx1Vae6HMLkaJbS+xJXlyx0FdYmv/+M1mM9VOYUqnG/TxrvsC0UPfuqxoHzGyqhmqPQYcP+FfpATopYOXmMmU3KqUqIP9+KpkUF1c5bWXQKU2RTYA1ARKbABQRJACO+ni2oki265eS2x5Ykd5gkcnr7WwZXHtLLGlGfttKW5/7G37xvVcYCvMKO86egbE8LZCUba2OyNGtBdO5NnTlxVtLWnXfazt0rYdWti2uzcr2lvTopSGtnyB3GOfnd67bkC0NuVydHRnxfD2wn46tEzDLZl6+7Vtm93LPWcmZ37j+G4ZurT8Qy35+7RMLflMznHp7MmIYW3BMjnze42B65hq+dtbgmUqld/vPQiT3zmm/esHRPOQlHt+l8+E13vgzG/9TDgVj39Wy++eyZnfOQb92nGaPY7jzO81prJr7tKOM9T6Oe3T8re477eh1fhFyir3MS2RqUfL1GZmSok+7b1r8Xjvunu0/G3FX5PO4+tjquUfZsuvjWmkTNq2Wqbm5tIFvFsGpy7tfR5a6n0ukckvv/X4zvxhxtS5bf+6rHYc9++D1kx+r78of4kx9cvvlqlWSuykC2ynY26b4P1gvsh++r7Lqj0sAAAPlNgAoAC/AjtseX39Pe/rly3aP2raWhq0f/w0av9YatD/cdjSJMS4HdsC7+vYOyYG3rbe1WuJ7bUutnUt7BNOOMG8TomtPucM1FJlXTkFrrPULFngxlgUe5XvpUps8zglytOgx3F77UHGwPu128u7UscpVXz7Hb/kexnmFxwlCna/9yDUGMdY5PdoY9wWdIyNr5f8rq2lYUdXVgwfWtiPsxzWj+9RYIb5xZDzOF3d2mu3/PInV6J7/1IpSImcO472flgydfVox7GUuKU+M87Xbn0v/Y7vVxaXOo6zAHYbY+P4+l+mWGZD295Lxy/Uin9R4X0c57g5i+ZSY1BU3pc4Tqd2nGE+x/HKVAtF9t0nrQi87R2P9Iq+7k7951j5mZTFvf7fkLQY0pgWe48ZFnhfnrOzKbIBQGmU2ABQZaUK7KDl9fIXm8SaTzpER0e39o+hDea+mrQf6uU/jGSJrZfZLWn9H/zNQ4QYvV2wIttZYstMblSYsX3xmOt9t9l0vxXirKv+J9L+67XEzmS0f1APHWq7z1pgyx8VVq5cKS6++GL9duASmwK7avyWUZhzyemh9jfrkhsDbRekwI1y/KAZgh6/njOEOX6tZqj28fUMP/LJELBENjNcHG+G3PFTgY+fyzAzQoa5JV9/mDGYPmmMGDduXCzHt2YIMwbTDhgtxo8fX7UxkGJ9H1QuslNpcfeM5YE2XfTnZtG95iOxvq9HL7Bb9EkZuRK7SS+xU6KhQfsvnTvX6q47DA20X9eZ2RTZAKAsSmwAqKI4Cuyn32wX3b0ZsWZNp1i7tkv0dK/T9pbbX0M6JdpaG8zZ2HIWmpyB1DJEiDFf9i+xj523n/7DvLW4dmaSS44YqllkX3fBoWL1YxNKbiML7BdffNF93WYfcs3nO++8s2qvL2nWdbHljwbOHw+cxbVx/akbm/XLSXOmhCqxl565VPxtZZ/4zsOHVvul1x2/Art75ZOh9ynf8xt/+4TvdkHLwygZ2rfaI7bj13OGsAVutTOcdsju4he/+EWsGYLMyC83Q/vWPmMQskD98K8rRFtb8L+S8ssQrEC1z3zufsv/a7w4w56xjcGpB40Ts2fPrmqGU6buJq699trYMkQp0mPPoGqRrf18edqO94p9x23ku+ndf2wQ3WtWi2ymX/tZNqUX2LLIlgW2/K+xMSUatZ950/kSW/shRvv5ekCM+8pw3327zsqmyAYAJVFiA0CVxFFgP/f6epFtHCF6td3IAnvtmk7R2dVvrmUsf5DPzcBuMGdjyxJ7r52CFdjyfxGpdINZYq+Ye6z4yraF5654pVUce84v9euqF9jS2q1vFh0dHfr1sEX2YCqx3dbCthbX8uSO99xzj379wm/26Zfbfb5ZPPL2MWLZ39bnnlCiwJ75lbvN50jOInvD28H/vDiqxi39Py+1ylliFy1hEGOJbV3Owa84tC6DUW5xalun2bLkhF952tWXEkMasvpzy80QZjkR59rk5pjEUCA7l8ko9T44lzEpJ4N1WZbO3pRoasya74nf+2D93JRTYjuXg7C+PrcM1nWTzWVNtJunHRwxQ75Edi7BoR8/4JIi0r2zXhbL3j01YoFb+Dw4l+QoVaA6l3GZPmmsGDJkSKQMjaP2MMfV+vr8ivSu3vzXY/65ssSWomTIjhzvuuyG2xh0dGtfj+3FX4/3znpJPPpO7mevqCWy29IgXu+D25rmcWRwjquyJXZekCVFFvxuQHR3fCLSYn1+QoZlKRHt+05jg/Zea29/OiV/9h3Qf7TOZAf0/1d8fewI3/0zIxsAagMlNgBUyfgjvi+81sBeMG1ZoH08/3q/yDYOF/2ZIWJtR7dY+0mn6OzsFes3ZMxtWpuNErtBHPwf/j/IS/oMbClV+MeVcxkRFZYPMciCuevVq0puM3THC8SoUaPM25TYdqlUSrS0tLjOwpasxbW8LsdyyL9+aj5ulNhbbLFFbjZ2gBJbGrlxo7j0T0fYHk+6xJYlfW9vrxix40GVGNqKS2Im9llnnSVuXfxsyW3CzH6t11nQKmQIOwu52jOxZ0zZRVx/vf9SULFnsHSY5ZbYnhlCzMI99aDxZZfYXsfvXvO+XvqVUl6RHs9MaLmcSNQiPa4Mcha0lMRs7KpmULzI7l67Siw+9xXf7W5/8IP8+V1y/+lLiciZ2PmlRGSJLVLy5xi5VNqA6OvPin1285/pLVFkA4D6KLEBoApKFdhS0BJbevb/NYr1olV0dvaJNZ+sFR0dvaJ/XWFd7G8d/ZnA+zr4urGiffgm+g//qXQ68POqLUiJLTV98Wyx9dZb69e9Smw5q3v69OlF9x9xxBF1XWL39/eLjTbayHUWtmQU13I2tnF9w1s/sW3zhc2HiHdbvituX/5WyWOduO1C23OsJXYlZmF3d3frl5TYwS25qk0cNWfnkttUu7wlg/34tZJh0ayXxZQLuhPLUHR8l3MHygJ3n1kfxrqch54hZIkthS1wVchQKoexNnfwDNFnY/uVyF2fvF/yZJhSHDOhS2UIMgaJZVC8yJbCnOhR+v2zHfmZ2LmlRPQSWy6qp/0os9tXgp/oUXItsSWKbABQBiU2AFSYX4Et/WDvB8SO27QG22EMps4eI4ZttGnuRqp2ymtD0BI7teUssd122+nX3UpsrwLb0NPTU+2Xmhj544BcUsTrx4IkS+zPjA//j/RUiG3X9rab1y+44IK6LrGtBfbSX/9cv5x0wvm2bcKWluWsh73011fnM5xXVgYpSoH8iHb8A7RjPzJfuzy+ShnmX2M+dsDx3xkUGdxK7Efv+oX4xnHnmpdWkdakDpMhXxw+Or9wjG8c78iQwGxst+Ly0bsK5ew3jjvHtn2Ss7GdGZzHrnSGZZZxmKhnSeXv/4W4956FVZ2NLbMtuvsucdlll4n29nbf7aNmkMeRr924tDJmY0uDrciWejpWiQfP8Z+ZHZdjbt+/9MmoKbIBQAmU2ABQQUEKbMP397xffPWL4WaFhTH56p3ERpvm/kHlnHkd9IRgqph1xN7ilYdm+W5nXVLkuBNy/0C0LoviV2L39fVV+6UmSv4ZtxdriS0Za2SffWivuY1RYt/y4DMljzPjq8ttz4lSYjt5ldrWAvull14Sc+fONW8ffvgR4tG//KvoOQ2ttfGPfDdGiW0U2JK1xE70pI75cStkuNqSobwCWf4CabMd/dcxd2YoJbEC2ZFBFsjO4rgaGSS3HJXKIMtrQxwldpAcZoa+fIYKl9h6hhZHhkqX2JbS0shQSiKzsV0yLLsr931/4nFnx5zBv7wtZJidz1Bc6Ce9pIc1g1+RHWeZXisltlXP2g/Fg+e+nNj+9RnYsqQuVWJLFNkAUHWU2ABQIWEKbJP2A7X84f3+s18q+/gHXPVVsclmn7bf6TLrutYKbOmeM14U856ZEnhd7P0+mysyn3utR1zz7CH6dbmEy/wXDi75/AULFoh169ZV++UmplSJLVlP7vid73xHXHPNNa4l9jULn9JPKGWc5M08gVqetcSWxh8yJ/bXYpTapUrsh6+ylwJH3bBzTRfYVg/ddKF5/cDTLjevd7y2OPS+5Pt+89I3ImT4vvk+TDntZ1XJsOTm75vXp5z6M9tjUXIM32FqhAz/lT9+cfFR6QwPPrhYzF1sn9148je2jVTehs3x8C0/0C/vvfdecfuj9veyUhku+OY4cdXCZ8Tx+24pjj32eDH5lMJfk1Qqg21Mbv2hmHzyT2y374s4CzlKjoN33UTMPGOWLcNSLUPUmdBRMkwZPUJ869tniUknX2q7/6SJ20TMEP4vbORrliadbP/rohn7b6VfRimyw+ZQIUOt6NZ+Ll4cQ6ltLh8SpMA2pHI/y1BkA0B1UGIDQAVEKrCtHD9cd675UJ8+PTCQ36t+mbu98ac+7b0fn6VCarXAlqKU2FOu2Um/PGn0H8Xh+27kW2Jv2LBBzJ8/v9ovOTFxldhhZmJLSZTYhg5K7LJL7D8+/mfbPoJacpOlQKbEzmewFx8Vy3DLD8xfKEw+5ae2xypZ3hpFtjOHvH/vPXevUIYfWjLYC8OKFfq3WjI4Ssvo5W34DMZnYpJLBjn7N+wa4WEzLL31IvO6W4ktJTMWhb/dWWp5L6pVIFszOHPIx+TSJpXIUQtkdSFPRO2l45NV5s/EYqDwk/dGm7r8bBymvLY9jyIbAKqFEhsAElZ2ge1iIJsxrxs/zGezhWOkGxpC77MWC+xSrOuhSl2ffCAy+TGSY7XxZpuHHptJu2xBiW0psW9/7G1x4jZ3mY8HKbGvPP948bdHp9nui2tJESdngS0ZJbZxks4XXnhBTNziZr3A7ls3INpHbJbkECfKuoTGaYd/XRx6yEFF62HPueT00PuddcmNvttYy39zCQvLciIHWJYTiZLh5Zdf9l3SxDXDfEsGx5rYSY+FczkRt2VFKpVB+vax+4sDp0x2Xcpj9OjRsedwyzBl/FZiydMrXdfFjjwWJRbId1u+4dH5luU8jrcv3yCXFIk0Fj/yHgvXDPllLObNXyQWLrV/ruVSGmPGjIk1gzWHdRmLx1b8Tuw3Yd+iZSyM5TzizuHMIB2295fE6WecKeYtuE8sWPKnohzr168X48aNiy2HWwZjaRPJvrxJylzSY+zYsREyzHW9v9TSJrkM7suKyLEYP358IjnqgbXWMH82zt+XTjdEK6y9UGQDQFVQYgNAgpIosCOREUr8Q1/lAjv14SslZ90Elf3UV8rehyyxFy1aVLdLioQpseUa2cv+tr6oxH569XFi++23F9fMf8x1H9UusaWPP/7YvD5j3MP6ZT3Mwg6yDrT8DIe19Pn3fLcJsxZ10hlUyVErGZLKUZH344UAY+FSWnqRJfY777wTe44wGfSxGBv/WITNIAvkd999N9YcUdbnlsXtBx98kEiOoGNxytRx4r33/D9rxRn+5flY+Ay5IjvOHEaGpbf9MMzuSpp00k/K30ktyK+PnU41iSfvvaTaaQBg0KDEBoCEKFNgB6Bqif2ri2eKmTNnigsvvFAcccQR4sEHHxSXXx5+WQN5UriWz4efyeXm1IPHR8pQC/xKbFlcb7HFFvoyIsb1zEr70gTvN00XU6e6/yl3V1eXed1aZCdRYnsV2NLB2xbPpqfE9qZCcTtj/MPiqDk7B8pQ72MRd4ZFs14Wtz89KfYctVhi36uNxW1PRRiLGiixw+ZIosQOmyHp96NrzSrR2pL23V/0Etv5HPsv5MONxUviobemiVWrwv28VqpIt2aQRXYcBXRc+3Hbrwpsr40iGwAqjhIbABKQK7Al9b/FVqLAlmX09OnTPR+fN2+eONPx567X/uBkce6554py9fb2ikwmt/yK1//y3I7vpZ5L7IaGBpFOe/+DPkiJLQvp7bfZ2PX5/2gvrFmuUoldDwW2VCulqQoZVMmhQoakSuyKjEWNldhBc6hQYjMW1RwL978+mzT2sxEy/Mt3m1ooslUpsSWKbACoHkpsAIgZBXaxUiW2LJBffPFF8Yu7n7TdP7z7tbKPm81m9VnYBrf/5Xkd38u5x+yhL6kh/8S5HpWajW0U13It7InbD/Essc9/4OtFz51z0Ynm9eGt3eLp+2fZnkOJXR5rSdjTlxVtltmFcq3vlqZcKbJo1kuh9uuc/ezct8FYg976PaWjOyuGtxdvGzaDWw63fbtlMHRrudsduePIoe+7V9t3a2HfzhzW8e/sGRDD2goFlX+G4jLrqDk7mddt++4VoqlxQDQPSXm8HxltzArnS+jScg/N55ZFdvix2Mlz315j4ZbbqiiHz0pS1gzmvvu1fTcXntjQWjg/QqbXnmNtV0aMGGrPfW+EsTgyn6Nfe13N+dfl3LeRw8jQo41/m+Vz06vlbrXkDpvjSMtYOD+TfmPhzN3SlNZvlzMWbvv2Ggszd4+Wu604dzlj4bXvUp8Lt9zljIXzM9mv3W7O33YbC+v2ztzRchS+b/X3Z7Vju3w2Wj5Vsnx2PuYslZ3Po8gGACSBEhsAYhSmwH5wznfEdb/8lXjsb/22+w6adU3R9STIUuGK846r2Ng8/vjjrvdv2LBBjBo1Suz32bni2Dsm6vdl/7EilnWwrctX3HrrreKtt94Sb775ZtF2n/nMZ2zHL0WWtzJvPc7GDrqciCyxpRn7bSluX/6WOHHbheY2spC+9E9HFD33Z2ceYF5PusQuVWBLdy1/pei+eiqxK816EtVqLk1UqsQebDlq/j0p/9u/PYdHaVrRsVAggyo5/ArkwTEW1l+0bJbP8WH1xsJnNra1QDYed95nfW69LytiHQcdRTYAVAQlNgDEJGyBLVkLa+nZV94Uu311W9tjSah0gf3KK6+IuXPty3XIGdCPPPKIXmJPH7dEv+/oG0brl+mP/lr2Ma3LiEiHHXaY+NKXviRWrlxZtO3xYx+wHb8U+Sfv9VpiNzc367PXS/nOd76jl9iLbzhf/PY394lbHnxGzPjqcvNxWUiP3PNu23Puu+8+83prU+6XNiPX/9b2nGc/miri0ruu2by++eabFz1uzMSWM7ClWi+wJUpsNcpjVXLU7HsSc3lt5qC4VWosaitHQh9KW4Zcid31yfuitaWhzL2VkaNlU/1y6W0XFc269rodZvZ2XCiyAWDwosQGgBjU4hIiN/7w0Iod8/Fn/q5fWotsYxmPmx942la4DPzzd2UfTy710d9fmOEu/1cn/5Mnh9xyyy3FzY+86fncjlcfsN0evuPBtrEzSuyf//znegFfT2SBLYvsUpwl9v5b3Cweebzwj3+3Ets6I17OwpasM7Gl8YfMieU1WGdhy1+SOEtsZ4EtxV1iPzT3Qv3ywJmV+0WHUWKXWjJCsi4H0rsupf1zO2su69DdlxKNDVl9OYrcvrL6n9Mbt92WXtDHz6OodC7hYV0uoWddWqRFxnUpDP1Y3fklDTyO3ak9PsyxfIVXjl7tW0EqVVi+ors/LRrTmcLr7JHHFZ7HLhrTnowY2la47Xyd1hzFrzOlvc7gY9ypHWuY9ViOZSJ6+rX3s7l46Ri3ElsuZdIU6nVqnx3LMgYl309tjNOp4iVCvMp0eWx5XHl883Vaju1cQqFoiRzrcgt9adGQypi3O3vyn6Wm4iVF3IrKLu09GGpZmqZomY8+7XW2pFyP3dWbFkMaMuax9PdTe122pTmGpD2Xjgj3OrX3NZX1fJ0dXTJH2na7SY5xs/eyItbxCPc6818zLkuQ6Nm6S7+f1gxu74v92Cnt2FnL68p/zXi8TufnNvd+FrL0amNsPZljqVnQndr7qX/N5D+na7s25F9n/nPbvUEMaZTHbsi/zoz2OgvH6unLaO+n5dja12ur9eu1P2vmdubIvZ8p81gd2rGb9c+S8TozQp7Cwth/T2/G8ToztkLceizJe1kRa5F9qXn/D07aV+y99176dev9Od5Ff1xF9qxDdhJTDzrIdRZ4tbkV2U/fd1m1YwFAXaLEBoAy7XHkxSI7sE4ELbCds7ArqRoF9osvvapfdvW3iD322EO88cYb+rIecgkP6bgTdhMTTlykX4+jwNaPZSlN5Qzs7bffXlx66aVmib3DDjvoj517zYO25zkL7AsuuEC/nPvwG+b4yZLo20furi8/st9Zn1RsHCvBr8TeeKfD9CVEDjv8CDF52nfFKQeNcy2xrSd2tJ7M0SiwpUqU2G5LiSRZYlejvJaqOQtbUmHmMTncMyifI/lJrrkczIKusxzxfnBUWM5DlRxeJbafUtsXPxbP+0eRDQCDDyU2AJQhbIFdbbJEqEaBLckS+4tf/KJ47733xL///W9zHWpjCY/Uh6/Esg62PJGjsSSGcwb222+/XbT9jPEP6xm6Vxaf2FGW2O0fXimuefYQWwFz6sHj9ct6W1IkbIktZ6Uvff69ouVELlm2j3n7yvOPN68Pb7GU2A/YS+y41sUOW2JXqsBOsuCmxCZHzeWoUHltZlCsxCaHV44KfzDMHJtZclSxQFZyWRF7MW29z/m4vC25ldlhS3G7VKC1uquNIhsAkkeJDQARhSmwjdnXbio1I7uaBbYkS+y2tjb9+jULn9AvR2z6GTNbEutgz549W5x11llmiX3MsWPFBytOKXqePKGjPGGj1VZbbWWbgS0ZZcxJ+2+lX9bbkiKlSmxZYEtynOTJHa+95ylxxN6f069nVv7Utu3sJ/c1l0TwKrEla5EdR4ldjVnYRjntZC2rk56hXfUSOz+G5CCHb47qdJS5HPkT12X6qjwegzKH9xtvFKaZvtVVHg9yuOVYett/i0kn/dj2mLwvZ6CoxA4+Gzs6Z5GuEopsAEgWJTYARBClwHaW1fL+wVJgS7LEfv3118XYsWPFrcvesj226vl7YjluY2OjGDIkV0bL/70dfvjh5gxseVLHbbfd1tz2+eefF/P/9z3zdpASW/rVxTPFQw89pK+LPXr0aHHMMcdUbFyTFqbElid0lDOxt9tuO7H2le/btjXWxbathe0osKWiEnuco8QOWXiFLbHl0jDtIzYLtvOIKrHESFVP6mj5JQA57FnI4cgxqErb2snRvXaV67rZ4UT/7YRRlubGpHrFrSo5rFlUyeFWZEdRbpH9vRO/Lq64849F+6LIBoDBgxIbAEIKu4TIj06dIMaM2dl2XyXXw650gS15ldiSnI09YfMbzWVE7jnjxdjWlpYndBw+fLjriRz3/3KjbdtPf/rTYvKWt9tyOBmPyRnYchzlNh+NvGHQldhGgS1P5vjL667VS2y5Fva8ZyaLiRMnipcfOta2vSyk3235rv6LA0OkEtupRE/iV2BLssRO6oSOsqyu5OxrgyoFZbWzqJLDmmXQ58h/vapW2lY7iyo5rFn8cyQ7hV610laVHF1rVimyrEjwEvv7J+4lfnbnn83Z2m6zuMstxI3S+uZb54nf/vkd232qoMgGgGRQYgNACOWugV3pkzpW80SOVsZodfe3iKnb3Kkv32EV10xsWcK2t7eLq6++WqxevVqf+W2cyPHU/75ZtDbl/iHe0Z0RG2+2ee66y8kcjRnYzrE0iu55z0zRS2y5pvc3zu2wLWFSy/xL7AvEL6+bbZbYVs6TO7btdIt5263AlkKX2G7y3YpXiS3XX998880TPaGj5FxW5LEnXhCz71gW2/69DPqi1JFDpSyDNoej71SltFUlhzWLWjmqt9YLs6DVz+FVPhv3Wy+dkiiy3ahXZFtmnZtF9s+qHQsAaholNgAEVIsncZRUKbAlWWLPX/ayefuXF50qlixZIhYsWBBbBlnCGsuIOGdgT548WV9GZMbJe4kJJy5yLbAlZ4ntdmI0eXLHmx94Wr+++m+/r9gYJ8mtxLYW2JOn5cbnlIPG6cuJWDlP7lixEjuvoy9ciR1ngW2wFdkp7fN93XXi0b/2xH4cq6oXpYqdPFClLIMuh0cHqspJBK1ZBm8O+5ukygkNrVlUyVHtkysqNSY+62Mb9zmvS15ldTlFtrMot+7H/lj1f163F9m5zxNFNgBER4kNAAGNP0Ku++v9LdN68kY509rtZI71vIyIX4EtGTOx5TIdclbz7U9P1u9fuHBhbDnkuthHHnmkWWIvmFaYDSuPZywjcuB3e4ueK0vs9g+vFNc8e0jRWDrJEluSRXa9lNjyR4KmpibbfdYSe+rpV+jXZ+y/tbh9uX1d8xO3LbyH1hLbq8CW4iqxvQpsSZbYp39thX49qVnY1eQsseVfGQxvLxQv3SufDL3Pnp4esdmOE3LX+7KiraWwXm5v/4BobS4UYaWK0p51aZEWGdGS/wuIKFkaR+0umofknr+2W+4rbd62ClJid2rPH5YfmyhZUpuPt41FT782Ni5rCbuNSc+6lDYWWXMsjLHJvPdU6Bz6vkeOF83avkqNTan3xvk56ezJiPQHz4go2rfeQ/T0amPRahmbvgFtrHJZ/Ersnj4h0qkB0ZL/XHX3afv5158j5dBfW1c2NzZNLp8Tl/K4o0sbi6GWsdBuD7Pc7n4r/GfFyJJ7ffavIb8x6esvjEVP74BIa0+Vt2dM3kVcf/31obPoX0NNafO15samkKdUUdrRtUE0aZ+plubceHR2b9C+hhq1MXkidA5J/xpqLYxtT19GG5sGWw6vLLmxydrW75a3o34NZT+9u/bahG0sSo2JHAu5rbG9HIshjWkzzylTdxPXXhv+/2HtW++ZG4vejG1srDncCnW3sYgrS2d3tmhs4l8fO45lRbxnhweXbBVStAY4RTYAlIUSGwACCFJgGwW125Ih1VhGpNrrYLuNliyxFz7+vph93sHmfXIm9gMPPKAXZ3GQM4nljGK5HraceW117jUPmtfdTuQouc3ClidzLHq9L74oOjs7xaHbLRATz1mrH7MeGCfGlNxmYUtyJvY222wjRowYYd737G8ON69HKbGl8QfPiZQ5iRLbWOPauba1223z+k3a9dMut13q21ruM/dvue18LKggs7CjlLXnnXeeuPG3wUqqMLN9o2Rp32qPQNuFnXWsSpYoOYJmMXJ0r3lfL7gTy7J1gCwhZx5HKY6DZAk7K/y0g3cXv/jFLxLNEnRMomYxiknvHOFnY5+q/T9g9uzZiWUJmmP6pDH6/7PizhJlTGRxfNlll+lLmiWRJcxs7CSyBFlWxOBcXsR66XxOOUW23yzweJRflVBkA0B8KLEBwEeYGdgG50zsSs/AvuK84yo6RivfeNZ222u0blmxRr90nmRxxviH9SI4DrJMHrnL0UXHMI5jnKxx0i5b2B6TJfac+x633WecyNGNPLnj9HFLzNtxnZyy2kqV2PeckSuIV/x7pn5SSyu3ErtUgS3FUWKXKrClu5a/UnRfkFnYtnLaUWhLxm390qesNh6z7d9ReEdR7RI77BIeUbIsuapNHDVnZ9/tKLG9cySeJeYSe9Gsl8WU87t9t4uSpTZL7FQ+y/gyssRXHt+rvT/L3j0lUnHslyVseSzLdCnJLGFKbCnKDOg4s8j359F3Tk4ki1eR7Syww4ijyLZKpsguJViV4rY+tkSRDQDhUGIDQAl+BbZqjKJi369UbqmEz372s/rl0OY+/dJrtK5e9LoYselnbMt7GIxiecm8K8SU6d8TfesGxIbMgBia//N0+af3qYGMuYyB/NP5Ee2OP7ttGykWzzlPTJ11te0kjG7HkfweL7Wd2/PqZUkRo8R2m4VtlNhurCd2lLb/xh2hS+woS4r4ldhJn9CxmvxK7KilZBIldtQsSZTYSRbHYbPMPHQPcc014X/JmUSJHTlLAjOxo886jjeLLASXv3daIlncC3Xvkyuell/CKsnZ2GFmYkvVno1tFOpJZAlbqE8a+1n9pMdSOUt5lMoSdJ1uo1BPJEuAItsck4DldFJLlFSuyC6l8FOxW5GdTjWJJ+/9UbVDAkDNoMQGAA9BZ2D/5v7FJfdzx7L/V5G81pKikiW2JItsWWKX+h+KnIWd1AnGrGWNcyzi8vAdV+qXk6d91/XxT/7vfwMtKXL33XeL1Y9NSGQcNt1vhfj73/8ufvCDH0TeR6kSuxTriR0lWUg/+9FBvs8buf43oZ9j1buusIa3PIGjk1+JbZ1lHebSfL7LEiLxXH5fuyw9QyupElul4lilLJTYHllCFMd6lgRnQKtUqJfOY6wXHq6wXf7eqYnMxg5b2DIb250qs7GtWRJZ4iTm9bHj3JfzhJJqFNkFttdIkQ0AoVFiA4CLKDOwq3kiR2dBUY0Suz0/E9tNrRfYfmTBLcvtILOxky6x5Vrdl18ebXkKSZbYZoF94wVi8oneBXZ799/N60ftbj/Royykr/qfz/kez/o8r+fs87Uxns8vVWIHLbCd143bN8/7tTh1+glFS4eUWi7E7bbbOtnGNvL2TbfeIU47eZpZXuceC15gL/311WLSCeeZl4bEy9r8WFqzPDI/9z3vgOPt3w+rkcXIo0KWR+/KFY/fOO5c27aJltiWz7pzXB69a7aW5Zx4sgQpjlssWfo+MjPkxuScou0TXcbDJYth2V3XionHnR1zFu/Z1UYZmOlbbc+xYLaYeKzbuCS4pIhLlmULCmXsxGPt4yLLY1mQtrW1VSyLzGBcOrNIicwM93yPinNISRXZRg7VslSD2xIiXsuKuG1fbRTZABAdJTYAOERZA1u64ca5YunL0dbxLIdbaatSiW2sg23k7OrNmsuE9K7XLrOFZUI6ewZEU6MQzU35ZUO6MmLE0MKfzjpvS9ZlRJwW35Ar9KaecXX+9vn52z+P9fUb+x0/breS21ViFrY82WSSJbb1PbCW2FKQQtqpmiV2LXOW2JK1wJYSP6mjR3HsploltupZkiyxK5VFz1NGcexWqFerxHZTXpZgBWkuy2q/3SW7pEjILInOgK7hLJWYAd21ZlVFlhUplUfFIjvM9tVGkQ0A0VBiA4BF1ALbKakZ2P9+ZkFZzz/mmGMSyWWsi+0ssucufiOR4xmcs7CrQRbYshQ3imwnozC/9vxDRCqVSnwWtuG25SvLe10hZmEbrIX0oqe2DnScICX22rVrxcEH7uP6/DAldtgCWz+RY0rYZlD7naDR7YSNcZzE0c+Sm74vplhmb3e8tjjSfmSJffPS+L9uo+YZvsPUus4SNY9KWcrN8/CtPxSTT/6JElm8nPyNbSMVxyplSSLPSRO3iTwbO4ksUtQiO848M/bP/f8vanGcRJaopXpS32viYF2CxHndYNx37pFjxcRJB1Y7sg1FNgCER4kNAHm5AluKtoyIqsW1U39/v5g2bVqs+yynxO7oyYrhbenQx1SpwLbeltxmel93waGJFtivvfaaWLdunXlfNUrsJMgCWwpSYktGkV3OLOyJO7aJZa/22O4LsmyI222/+5JSzRL7oF03EQ8+93HZeQZDoR41j0pZksrz/nP3KFGOSioVxzLLT3/6UyXGRqXiWBaX9959lzJZFi3M/T9IpSJbhSyV4rbGtmqzsSWKbAAIhxIbAIR/gW2dgS3LamdxnVSRnUSBLcVdYkvOJUXKmYXd2ZMVwyzFdk9fVrS12ItuFUrsoJIssCXnLGyp3BK71Nri2fdfFMOGDQu1v3fffVeMGjUq1HPeeecdMXz4cP26V4ktuc3GruelRIKIWkb+6c9PiCmn/izSc+POU08l9on7bSvufOzN2PKUl2UbLYv7L6FUKrFVK44rneWECVuJX68o/j4ui7j77llQ0Twn7Ktl+Z37/1Nkka1CcWxkkVTIo9IMaNVK9bh5LS1Sy0X20/fF//9hAKgHlNgABr2gBXapwvrBOedpt68WcTIK7Lk/3FzM/Mm/zUurQ/+jQRzwtZFF9xuO2b9J3L28MDu3UiV20suI1JpfXTyzYsuIGPb77E365dGWEjcussSWenp6fLddv369eX3EiBGBnmOdUR5XiV1PBbaxvvEjv75aHOBYB9sgP3NRnPmjuYG2C3MixTmXnB4py8svvxxofW63ExjmTjCZ0rKcW7R91DyzLrkx0tjIkzo6T+hYbp6oWXQp93Wo9SwXRxybH/nn8VqL+tG7rtWyFJ+UTq5FPXr06ETy2LPk1jlepo3JRJcx0R9bMFssnH+n2G230uc9cM/i/zXldfJAL3Jt7OhjUzpP2BMZGutRjxkzRkRRKo/betReOYzH5GzsJLK4jU2pLJKxJvXYsWMTG5uwJ3mU/08eP358rHmqvT52EF7LjaiCIhsAgqHEBjCoBVlCpHgd7FTRNkkV2JK1vJbXJettrwLbuW2SBbZklNj7jlokjr5htO9JGTu6M2J4e+5237oBsSEzYJ7wsW99WmQzGdHWkhvr7v6UaEhlRUv+hI8d3Vn95I/NQ4KdANL3WFntWPmTS3b3acdKF461tjt3PeixOrVjDWsv3D5kz631se967apExn3oDhcUzXCWRfFB+RLXWWJ39Axor0UUXo+Wd0S79wmirGMnGSfmlEW2qiW2fO3y1dXrLOwgJ+mbvGu4We+Gh597N9B2YU4YWKksquUJkiVqnkhZUv7bT94l4tg8758nygkV5V9wxJ8nlc8TrjieMXms+OCDDyJkeS/A2IQvsaOPTek8YU9kKMki+733/F9nOXlUyhL2xIr/+te/Ys8T5X0qJ0+Yz001lSqrrUUxRTYA1CZKbACDVtQ1sJ3inoUd9xIiUtIFtmSsiz1/2cuJHaNWTdpli4qW2EnOwjYkWWJLRpFNiV2s1oraqFmmj1sijprj/xmu5RJ70ayXxbxnJkcYm4e1sdkpeJYApbE+NgqV2PdqY3P70+HHpjiPe3sfthydrH0fj5YleIkdNE9ubCYlnifp4ngwjI0sjpMosa1ZgpbqlRqbavrx6QeI3cbl/jpAlsJGqc3SIgBQHyixAQxKYQpsWVJ7SXIGdlzCFNj7jJjj+ZhctuKll14Sb77pvq6rLLEpsN1VssQ2CmxJxRJbCjMbO2yJPfNrK4pe/2ArsKUki9q+dVnRPmJk4DyLZr0k5j0zJXSWsCW2CmMTNk+iJXaqUBx3r10lWpr9T6CbZImtj01L8FK9vBI7/nI0yRLbmqcWS/Xpk8aIVatW+W43GMdm2gGjxYcffjjoxqaa3ArrUtuqhiIbALxRYgMYdPY48mKRHZAFWbBvf14ldi0V2M3Nza6PPXFL4R8zH428wXPdZllgv/XWW6Kzs1NM2Nx9rVG5hIjkPAljb/+AaG0O8HfsLoqW7nAsfdHZkxHD2gq3u3uzor3VckJI7dhtlmP3rtOyNMWTxbnMhvNklFZJl9jZbFZ8/vOf12+XmoXtHA+5tEpLxPEIWmJLRpFdTond+Fn7mqL3nPFSyecfPYhnYUuyOI4iUGlsOalqqROAViKLNU+QLLk80X7ZFmTmc6XylMxi+ZJuaLW8V71B3quEx6bV+OVHsLG51zeP+/evIwPNUt/MMjbBSkb/PNGyWPMkmaVW84R9r5QbmzMj5vlVQp/jCHmCZNHzKFZku11KNbM+tkSRDQAmSmwAg0rYAttLEidyfPP3N0c6g72b7u5u/bKxsVE0NDTol1ZGub3l12aY903cfohn0SqL0s997nP69ZvufyrW1z0YJF1ir169Wuy8884Vm4UtRTm5Y5wldlCyqG8fsVmk56ooaImdpLAldqXyqJClqnlc+tywJXbSwpbYgV5kWXnClZFJilJGViKPCllUy6Pqe9X1yfuBlhVJPI9CRbbBKLDveeARcfTBB4i7718q7njw2aLtVFFcZOfeV4psAIMdJTaAQUPVGdgGWWI3NTXZTmoXViqV+we+8a1dltfpdFq/3yiyjQJbzsI2Zk9LpYpWY7bvF77wBXMmtvW5Vp09A2KIdqjCiREz2vV04BMj+p6UccOAGNpmnJQxJTKZjGjPz/zuXZ8WA9aTNPanRDqVNWdfJ5lN6urJmtkM95zxor6UQlIltvH+yCVF3GZhW2ery/HLZAbM2epy/LKZrHkCTSfnSS6tJ4WsVIktDRkyRLS2tupFds+6tEiLjJmpq1f7nDcMeJ70s55mYUsqldiDvjRWJU+JXlfVEjtcnniLa3sedYpR1fKoWtSqlkeFLErmUaTItnKW2l6PqYIiGwCKUWIDGBSiFNhuZXUSM7CdZJldDllYy9nXxnXjP2uJffbZZ4vfPl5Y2zpI0Zr6wizx5S9/WS+xvQpsFJNje8ezB+q/WEhyNrZcI9eQ9CxsKUqJLQU9uaOzxJaGbbNX6Jz1VGK7FdjOJXWcS+44b8tfvDRbfnEjf7HTlP/FhNTdnxYNqYxtmRnnMjx+Ja1zaR3nL3vcMlkft/6yROrqS4shDRnztmRdCidIadzVmxVDLUsNhR83+y9HOntToqkxa8vkNz7OpZacyx85M/mPWz6T+Us6oWUaMG/rWXxK456+AdsvsZyZnL+Y69QyDGsv8Ys97fZwy+3O7vzny3ivApTYvVqmVss49fRmRFurZdkobZza26zH2KBlarRk2KBl8L5te688itG+/qxtDfFe7Xar5Xbxe6llarX+QjOjjZslo5ZhmCXDWu32CJdMXkWk/gtF+XVpyVCUUcsU57iVyqO/Ri3TkHTu+0ngTH1aphbrEmDhxs2vqO3Svi717xUlMpU7bn7jI78Gcl+X6Xwm7f9hDVnLbe3nsXSZ76Vj3KxZ3Man6OtSft/Xv1fkjiE/X41+72XR14D9vXRmVKXEdq6P7SyrSz2mAopsALCjxAZQ9+KagS0lXWBbyTWye3t79euygJbfruV/crb2yJEj9RMFyaLP+m1cloXGzGvnf7IIdCuwJVm0Wh17x0Tz+oJpy2yPBSmwncVGknrXpUVrU9a83d0nRHtL4XH5j7VhbYWSpqisCjn7Ogmy9Fpx51Hi2Wf/Knbb7Sv6ZSY7ID5e0yeOOnRm/kSkA5FndjpfcxwqWWI//cxzYq/Dz7UVeoHGtY4KbEmFWdjSoJ/5XO08ISYm18ZM7ORmWvvnUXN2L3lqK48yy3iolkehIttgLCvyhz/8Qeyzzz7imaeeFBfftNx1W1W4nehRosgGMBhRYgOoa0EKbOvs6krMtA7COMmjUWJbv1XLZT3kbaOcNjivG/8ZJ3U0lhH53C5TfI9vlDBrV79v3medxSjJmY0o34hNP6NfXv7tHcz7ZIG9zRe3FVuN2iv/Ge5XpqCzCnpyxzhK7Eknnh86X72W2M7Z0vIXOWIgYzuBqnOmaNFMZJ8Ztc6ldswx9VgPW88gMrYZ236zfItmQ/tkcM7QLpXHzOA4mWmU2c+lMjhnibvlKcqgvTftLd6znT0zWJfMGVKYgZ2bfZo1b/fIZZSEnEVpn/1sLbGLZlxr+xzabsngmLkp35tQGfpySzm1uJzUt5DHXkIGmb2cy5A2xymXwX3Ga0+fyGfwnuGay+M9u9c5W7kog8+sW7cZ1EUzWp0zWB153GZMN8edwTGr1m984sjgnOnrN0vb7/0qyqAvH1aYbSxnjjeWOZtdfkYbtZstzQ2+efT3zjHjOYkM8vPRNKTwXhR9ftxmXWsZmsucnd7gzNCYtu3THB+Fi2yrmpqRTZENYBCjxAZQt4IW2EFUega2NPvwXcTM+Y/r172+VVvvt5bYP546Vly+4nXzttc62G6sJYxBljGyGNmwYYO5FIHbdoVgRqhkby++8Xwx9Yyf5257bWvcF+a2iOm5MuMN+YwlWAtsfbwds7AzPR8IFVFiV5YKM7FVPaljXecpc6Jy+SdTjPdFKLd2L3kC5ele876tvK12HkmFMSKPTx5FSmwrtyVGVC+xJYpsAKDEBlCnwi4hohKjxLbyKv2cJXZbW5t+/YqDdhbfe/Al/Xq5BbZ+/LUfFGYe9g6I4Rtvpv38nPbeUZhS2voWhbhtK7CDPL8Kf7EepMCWnLOwgy4jUnRiym45EzYtmgKeqLJofz4nrnTO3g1bYn9q9OFi/crH9OtBi2xZYP/nMeeZs47lyTobUoWTTXbqM/4GbGs4e6nlUtutwPZbW1qOjZyBd9ien4983Lv/8LbtPfcraY1jGp/JnnUNIi022N6fKbt9rqyxWKhlMl5n0NK4t3/ANlPdORu63ExLnn3HN4/f7Hjn+1d2pufymUqU2G4zru3fA/Izz/Pv35Rdo2da8ty7+TylS1rnDGupf13Wdb3eKbuOKnOM3vUs/byOaXDOVjVmDpeb6ZFX+13zuB3TbZaudTa7MWO6nO8B1kyua2O7zKDXZwY3G7O07bO2jbEtJ1OpPKWOWer9jON9c+ZxHtP/M5WxLQNSbqb7Hv9H0bIi5c78Lnuc/tpb1vOT4HbCx1oqstOpJvHkvT+qdjQAqAhKbAB1ySj/ao1RYJ8y7vPilmf+GWkf39pra3H9n98yb3utg+1Ucma1ZiCbWz5E/m8j3VDd2ViyHJa8CmKjPHZu53bbup2Vcb/zcee+guTwI8d0XX+u6JWf2ubmISKVyv2jUtVZ2EGVKo6TnFlsPW5Px4f2JShqsMyOOlblFqFvv/22ePXD4hK7nFnGcRXG1jyqZIolT/6jWk5hrGcKUGKHHqeyM70b60zRHTZdL7baaitl8uTGKL5iPa6ZtHEV63Hl2X6TdWLrrbeuy0xxzn6OI5Pxy6O4fHnjfrHNNttEfn41S2xjxrVz5rXxmFSrM7IpsgEMFpTYAOpO4AJbse9+smBY+fQD+prXh+38OXH/K+9F2o98ftoyS/q8884rKrD71qdFf/960dSU1tew7V8/INpGfDrceFXvXFwly2Fr8RznZal9h83oOry2WfVpEeQDOpDNaNs2mDPOBwZcbqfzBaR2O6vdTltu57aLZ23zZTfnTgb60Z+/Jz611xX69YmnLgv0vJLPkWOhD0VWPDT3Qj3zgaddKR666bv6wwfOvFJ/3Lj9lxeeFxfduNz1WLVcZitTYufHrJxfQMRaYlveQxUylZXH8T01thK7Jf+e9ZX/S6NYSmzL8gKZvtVl7a/cEtuZqdw8cWUyir448kixFLQxZpJ5pHIyJTFGcWSKK4+RKY73La5MssCWyimxjUzV4rUWtlux7ba9KiiyAQxWlNgA6opvga3odzxjhpwssaXLjp0g/mvBikj7kiX2ORN2FNf9/m/67a3GH+z7HH2mnl8p7Vymo0rClsNxu+S0/cUuY3bWr5fKETmnzxrbvtuHvl1+ib1guvtn9dh5EzyfY5TXQZ8jC+wDZ14uHrpJuzzNfik5r5dSi2U2JXZBXZbYLl/zlNj+6r3EjitTPZbYKmdSqViX3JYVicIosaVaLrLrEkU2gEGCEhtA3fAssL2+y0UoYoOeCLIWyBms5qzciONRaX7LiDi3/e39i8Vhh0w1n2M8//d/ekL859f2tO1HPvab+x8Uhx9ykO0YQWZdux27mkV7YDHNwnYrsUsV2F7PeebVLjH7Wf9fusTFWjKqXGSv/Tj3S647Lj9DTJ8+3XO7efPmiWkX3mC7b7vhn5R17I022kg8/c/cN4cRmxSWyjAy3XnFLDFt2jTP599xxx3ixO/NiTXT/3VsbF43Mhl5qp3JbYxUydS9dpXYkImeZ9znsmLt2rWxZip3jOLKFOf7Fncma55vHb6rGDduXKhMu43KvekdHR1lZXq/cbvYxijuTNY89ZLJyBNXJmeeMw/bRYwfPz5Upl232GBe7+zsjGWcECOKbACDACU2gLoQqsCOWNbKAvugWVdX+6WWTX8dZzheRw0U2FLQcti5BIgh6MzpKMV12IxVF7DAfmiuc7Z0Sp8RnXvsQvN6Yfvi+9z3e2HRfUX7ys+2dl6PW62U2dd993DfEvusK39ju+8zG/6vrGPKEvv1Lu+lhn75vSN8S5BvX3FfrJlum3enmHzKT5XK5FfIhM308K0/FCdNOyGxTDKP5JXJbYy2a3+/7HLWL1PY9021THLpgXO+PSuxTCf85+cDldjWTF9q+7d+GWeJXU6mpbddLM7+1umDKtPx++T+gqFUaSzzSEYm431LMlOQErswRv8tzjrzdPMxSmxFUWQDqHOU2ABqXi0U2GGfn1RhXstFfK2Uw4tvuEDLeVW1Y5QWcQa2s6C23jaX+whRYrttN+uwXcTkA/bXr1sLbOvtpKhcZsvlV669/gnf7Y4f+4DYdM8rzLXFkyyxF874nZj/wkEBMj0ovnn7vubtJEvsIJk2bNggpo97ONZMXoXMspu/IVY/8b1gmcZrmW7LZUqyxF540u/EvKcni8bGxpLPP2GXxdpn6XKx/ymP6reX3nqRmDHt+EQy3X3S78XtT08KlOmY2/7TvJ1Uib38Fvm+XSh+/fxU3+dbMyVZYssxWrJymvj44499n3/Ot/cqvG/5gjaJIvTuk7VMbwXLtOSlLvN6UsX68lsOEKufvFDLdKIyme4++Q/65UN/P0F88on/X1cYmeIq1t3ftz/oeSS/TPJ706Ov9uUzFYrsckpsCuyE5Yvsp+/7WbWTAEDsKLEB1LRcgS05vpVVsMAeyHoXgotvvEBMPf0q89LrPrf7Sz3H+dwgojxHFQ/N/a547oUXxSVzl9nu00/q57gelvxYLNaeP9Xl+V73e1k893va9lcUdoyaYpTYfesGRPuIzaqepbMnI4a1NYiu3qx4+LxXxPwX/JdakSX2b373ibj1L1/Xb5e7JIW1bJCZevsHRGtzKp/pr4FL7MlXf8W8HWemNR9/JJoaB8T6Dblv+kEyGSV2EpnkGK3tzogR7bn37eTRfxSHT9gkcIk9+ecJZOr7SHRrWdpb06KrR3vfzv9r4BL7vsc+Ere++B/67SGNKbF1m38xGCzTatHXnxUtzTJTRiw9/9XAJfakn+9o3o5j6Q4j0ycfrRLNTSnzsyQzBS2xk8gkx6ire4MY2t6oj9HJo/9XHLHfp4Jl2lXLdFUhk1yaIo4iVGbq7cuK1pb8+3bBa/r9v37uQN99tH58m7j1pX0SydS/Lqu9d4VMQUps+TU3tONOcVs+U9yfb5nJ/CxpmYKU2DLToj/9M7YxMjL1rP1QZLIDoq21QR8jI9PtTx3g/zW360PaZ2kH87ZcUoRZ2DWAIhtAnaLEBlCzqlFglyqsrWRhLFlLaINRQv/l5b+K/56z1FZMS395Sbv/hqVF+3Dbb1BRn6cKt5LarcT2unRuIxnX5TrYBrke9rPP/0X8+KblZoG92LHNvKWvlyi9LSW2E6W28owSW5VZ2FntR7R0qrwPTmwzjOU/iAeyIpvVMqXVyTSQzWjf8lNapnRZa7zHORNb/mStv20pdTLF8VmKLZP+vmWF/CdIuZ+luDIZ/xqSF+V+lsrNlMRnSc4yLrswNr4H8FkqnUnk3jcVPkvOTPJtMz9TCmSSZX9PX0a0tTTYTviKmFBkA6hDlNgAapJnge12VwwFdtDyWlW1Pgs76izrcoX56JQssMvdOSpCtRI7qiU3/5d5fcqpl4mFM+wn0fzm7YWTbsrXbLxeuWSJXPrC+HBal9soO9MtPyhkOuWn+rIf9kzuxwq6XRQP3/JD8/rkU36iRqZbLypkOvlSfekPg75MTH6JCHmSxvYRhZMRWrfTM90WX6altxUyTTrpUn1Zi0KmwnIja1Z/KIa1p83H7p31ctF2srSKo6ySyxoUMv3YM5PzeF7bxTNOF1sy/UipTDKPfqyTLcfao0Sm/BIYhe0eSTBT4VjH3LqPeb3WMlm3I1OATPlfinSt+VCf2U+JnRCKbAB1hhIbQM2pVIH94iuv6TOiZYE96autib6mpa/06pfWGdNey4pYH3fjLKu9CuxKvaZyVLPAduP1cVqcP/lhqBI76M5RESqvh10ua4n91Mud4trnDzFfs/W1JlnOFmcqHOvJlzvEdflMpbarVqaqjpNHOS2XCGlo+ZTvdkmwlq6Svh50Ki2613wg+tdnxcabflqf6em2XVwldqBMZWxXt5ksZaJ+LI+SM+h2SWYqVYSqkunM0f8jvrbLxlXN5KRKJutYzdr5f8TXd3XJlJ9Jn+1P5vsC8iiyAdQRSmwAifn4d1/VLzfZ95XIz3c+N2iBvfTMJfrlpDlTQh936azCc6MU2Gf/x2/Ftf97WODt//nPf4rLr7hSL5of+dZS/b4Drp/kWmgb9OVILMuOOJ9r3S5ogR02t/O5kvH8f/zjH+K1jpGR9hWWfN3W1xz2uc4xC/vcSRGPvVR7fsnnlii1l56ZP/avoh0bxVSbhW3MppYzqY3b8voBXx0qvn3WWeZjzlnXYV9z0Ne75GbLTOpTCydVlDOs5cxqY6b1lPwJF523g+bp7E2JjTbZtOh+t5wPm7O7U/pM6uLHf6jfb1xa7yt3fEo9Jk/KKE0++SfmbXl90k7DxLfPPkefYS1nXBuXuW0vDZbJUV4HtTR/nEn548jb8vqknYeJs7RMcoa1nHFtXOrbnhQsk0FfQsFlWQdrmWW9bsymljOpjdvyuvV+4z7r42H1dHyor5dsLcm8ynTnTNOlt18sJs34kX6p3z+j+H7jvqC8ju2X6c677xMLl72q35b5irJa7jfuC5NJch7fL9P8e+8Xdy19yTOTdfugmeQxu/tSYvhGm4QaP+dMeOex3S7dslYiU6lsQTP5HbvUL4y8PjsHjRspzjj9jLIzeR2/VKakfsGFvFSDfkGRDaDWUWIDSMwtF31ev9xhqxb9cs+T3ijruUEL7FN3WGB77rkPhytmT93e/vxH//HNwM/9XPZ2/XL7/HOX+TxXFtjSq2s3E6f9f/bOBDyKIu3jlQRICJBAuFFQQBAB5YxcHsgqp6vrgRyC3K7LISCKivuJuOuFuiqXq0FAVA5FWJVweoCuQhQRXBDFg0PkCgnkIlxJvnmrp3qqq6u6q4+ZTKD+z5NnerrqffuYmcrMr9/+V4slhtiJK/+CnIiNb3Lzl+hmSYAd2u/44H4PdH7Ml2qxaV90wY+RgNj6MQe3PTH9NsfxXmLJtkmsbDH1KGa/H5DZNpV8VPPQfj+wytl+K/EVbRD7QjpOt7A4XPuSfyoGJVerLmyP9LkDcA2yg9fYX/Y0QlWSowsEsXCKB5VLY19KA5pFI8SLln0SgfTS3CfZ7ZXWewlktd3SBMNOLozYXSRQ8kHBamyQAtlKSkplWQpiKykphUUEQoMIDD6RX4R63/+ro3g6dtrndyEZCxECsUn8ibxA7Bd9pbZLADa9bS8QOyew7YzsQdy+BGATdbk4dMs/xEPsExvvkNouAar0tnkQW1RVzoLoE/nF6GvBfotiSTzEvvfdtfi5F5BdHAQ3sRbgxnDcFEx2fM5gv+F98vmdvsaKoPYoJl4KYotiFcT2rLJmJeIUpJIqbnqZV8FNqq3pSutwCaqoe9w9Ef25YyM0dtw41HvkU3plNayHiuyvlv8Lr4/UOV276GVT9TSpqu4xcAJ6dNQtqOsN3fD6v/Xvil5dsiG8+xQYA/MLY1FyNTPYIZXU8Nj97gmBfjG4H1kfbvEqpFmfavY5/xjDC9nM1d5adSkN0sMN1elqbVjuPuB+tG7xjNC5oSq53VR2884nAYgirVs0A3UfeL9hGR6J4DmBinDOSN9wCrYPr81tneqhe0eNMlUBwzHR++i0MtjNuST7BOJVJrutUvZj39j3K71/8HqF7nhwXpnvRvR2ROeKt3+qAjuCUiBbSUnpPJCC2EpKSmERDbFB9WqWx48yEFsUO+1zDoi2ANg4tkYw1gXEpuMzJIAuDXNlYmmITQNsOtYNxCbxvFirKmyiusFty0BsUaxXiE0AdlxiLeGkmuwx161RDj9O22iEyTMfvgNlrf+TKf7g6RAYqls9GOsCYpN4mVj46TCKE/uk5HYRMkPs43lF6B8Qrzy1XSsaq5N5+5hXiFDVFPmKZRrOlxVFvMrZpgq8VPbJAl4b+2Xp8DqaJQOpoqU6205+7Gc4Kp9JJWulhBLfKlrpnDKVyOeT7M6hbNW435KxNSmN/XKyffpCi6q+LgUpkK2kpFTGpSC2kpJSWDT74fqG5w0vqoAfZSD2nEeMsZfW02JNEFswieOQy94xxtcNxkuAbFGsDMSufXqedCxbhQ1Krf2xKV4WYg9tupi7bTpeVIXN7vclwVjZSuxap5jjDrxeTiA2AOvcgmIUXz4GVUyqGfh+HYuKTh7VK7Dl97s8fk/QMFkEsEF786sZ4+uUl4bY7Pn2Ggtv5X9Ixg9h4hsE4rmxCmpLK5ohth1kZcG2Hey2y10WwXc4ZGUpEi7J+l2XpcrF0oZqrNxCaCe+2jLnxC+IHW54LZPT7T6XFJ/zvK+lpeSUyMz5QcvuPJf2uOBk/0p7Xy94KZCtpKRUhqUgtpKSUljkBWKDaJBNIDZIB9kCgA1yA7E/fvMu/PjWP27lxspAbBANVkWxPIAN4kFsUOdBr+nruo9ahx+PHzuCkivH6aCXB7HhFHUJxr404wvp/fYTYr/8on2OHn/92ACtQQAMEpNq2k6qadjvOqRiPwR0e7ZMQPk7p3NjL2tS0/A8UhCbjW8Q3G/fITYrBbW5ikYrEVkQLYLQVschAvYnso9Jg+/8wmLbfkrOJAPFyhL4iTZ4LdpHPyC0n1XkBTlHUaVkufcCLT+27TSnm/NnNQmhCJifb1Xe4VBpVjSr6usyKgWylZSUyqgUxFZSUgqLRBAb5LkamzdqeYTYedlHUN9rGziqpubJLl4EsDftLUH3d/iEG/vAf65FRUUlqFqN2riymNWYaa+h4VetN6wjIHpSILbfdZc43m+I9wKxybatRI4JKrFjAj9uYoIvIjwHoG0HsLn7zcDkSEJskNt4ANFPSnpqu4bYPCmwXWpV2DMm8z/LdvvBi7t/+vuG4+HlsIpzE2MlDcLHoCoVz4OvmBH7jJw/H0aRxYkbH23zc2sPYjee0jMfNo+f455b5ipuNHyGbcCu3fZ4oPeebpeg1NRUboxbGC/aD7t8bs7X8O6NUZs2bRxtD9bPmfpXx9tSih6p6usoVxBkx8ZUQJvei6yvu5KSkpJbKYitpKTkSdmfXokfU7r9z9QmU43Ni+/Udyoa3JgDRkvMliKrx6SjXnP6GNbJQuzVo9Px4/ECDUAu3PJn/CgLssdfvxy9svF2wzqrWBpgvzh4C36c9FZ79Pfbt+PltV9mcmMvb5SMBsy/ES8/0XYOfuzYuSHa/NUe9PPBYlSx9cto7ppfzGA1EN8sEEuOi95vEL3vTixF2HgRxIZtWwmOiQBrIvo5D2Kz23YKsf8+pgn65+yf8TIPYoPoeHp/1oxdreWc1Qs/0udbBmJDPC8WJILYdCw+J4F4XyE2q/OHo0mrtCB27g8fmdYlNf9zWOJ4MZMmTUJpq3fr54B3/E63RfKwj0pKRDTIJs9BM2e8glZty8HPFy/W5qZYuP4XHVqD2EnjWOGJ+BbPcAyxw/FZtAJ2dtvjxY7ocRl66aWXuHFu4eDhLUtRYmKi7/tPi+QBiP3yyy+HNU5Vc0evVPV1FEuBbCUlpTImBbGVlJQ8iUzC2LxhAn7sPHy33mYHsXmxALCLS86gIZe9bYjVQTQFsckkjiR+4qoQlLUD2WQCxyuCsev2DdD7ykBsMqEhGy+KfW/bdYb1MJEjiQW1uFWD04ueH2aKJb7WBGCTCQmvaBiPH3eeewi9/p/NwmpsFkTr+36pFr9u/0BpiM3Gpn3RBaXWZirIgxC7C2WDworYorAQ285GBLZPb/vqOsZt0xB7XVp39MHKP9D2D7VKrubNaxn2ffvPp0yxIBJPJpc8dTYWJVZJ0SdzhPiJ6bc5shShY3nbtoPYdDwv1jeIzeo8h9qlaSXCgqCTJ0+iOu37OYoBuYXRbuM2fzlT//zS55EHrxXEVoqUaEsPp1YmVoDYSm4g8JIRG1DvSXmW24oUxLYCxKKcY9usQCdrPmgLllmgDNt6+umnhedLdOyyEDsck2UqKV0wUiBbSUmpDElBbCUlJdciEBpEQPKJ/CIdUttZirDxEDvtc/Cm1oYlIYj+vK8OsA3bzivSIbUsxAYBTM4JxBJI7QZii+J5EBsANrvty4NVy6JqbJR3RF9HILYWHx+IL0at7nwVfTBzhCGWB6LJfuNYDxCbxJ/IL8b+1zyQbVWJbVWFbQWwjdsuQvsOnTXut0VFNAHBJJ4F0bxY+BcZExNjioX32r7D5m3bQWwS7wRis7HHA9veT22beGpDfNiZ83kGta2qsM/t/cRpOqzCwkJU5YqbfckFKndpaGJSApVZEORk38jXvsmD4tG/t3b3tG/5Sa1R1ZTgreIUuAadT/B61Rv/50seTx+fGNeNERVdZV1akn1PHzlyBMXHx6OqVavi58XFxejUqdDYLPs5Y/OAYuq0xuD0xI4PUOXKlaXyHD16FCUkJKCkpCT8nP7sn93zMf5fJKPs7GyUkhL6nkDyONkX9phg3CjfULsj7Ni29w3HapenYsWK+jHRY1BsbCw+XjfnBi76EdhefOg76XOTlZWFj4ucB/ocR4vouw8uVInsgpTCKAWylZSUyogUxFZSUnItGkKD6tXUYBptFyIC2Qczz3Jj6UprWYiN42sE4yUgNg2w6VhZiE3DVCfxBGS7gdgf79MmnGxeaRl321CtzbMTAYkgNqhuIP5rwX6zvti8WHxcDiG2GxsRdvtWIBk0dV1Xw/r72hknzaxbvRx+lAXRNEgm8V5i4R8vC6JlIDaoTiB+P7NtJ57avit6+JljiYCrLDDavHmzvtyxY0f8WFBQgJJb3GLoJwvV2HxFRUUYqkE+2Nfe7S9GH3zwASpXrpxtroyMDH25Q4cO+r7ddZc2ie2qLQfwY8mR7VL7xuajoRY5l+GE2D1b2nvkg9bsKPR1u/hcvfF/qPeIf+jLRGSdn1odyN/LQ16RXQcR7UlNPxfFslDaqg+vv2j/iCUIC+zwuvmUhcgw83OcR+B9nf39Ch102on3GenTR7MnW7x4sac8BI562R/4jMXWbYNO/LQRVahQAcNgJ3nIvgBQB+Xs/hzDW4DHbo6JzhMN5/hk1bbo7L7P8MWHatWquTo3Z8+eRRWb9JSKFalp4iHUqFEjqb6y45PV54PXz2+xebmfU8G+sb71PB97Xn6r50oRkgLZSkpKZUAKYispKbnWHAZQX8rxvBZB7L0Hzxhj64WqtAnItgLRdpXWbttlQLYd5LaD2Km1P+a280A0aducdTd+rHNmvqkdBvFpQcsRQ2UxB2JbVVzLTO7I6yOC2IjaL1bENoSV1WSOPP9rOKc8S5Eug1/Xn4P1gWgiRlkQzYt3G0sqp3nV1B0GfWOKf++F1qZ4HsTuMGgLCqt8hdX+Jbv53mdcxVlZibitToavVFAh6BZis4KqRQA0JF+PFgkoPT3d9bmiIfbanac87du5c+fQ6dOn9X2jrUPCYSMSrRCbPP9261bUrm1bfR08EiDNewT1suozL/A43PioSfvsiMCxHXjmwWt6PWl7cvTNKLV9W1NfrxBb6xeCWjSsImCaB7FZYG0FsWVBLU80YIXKX4DHbuQGYovyQA6Q2zzkghPkgeXk5GRXeeCCWuVmfXAeqGaGPzeCcwznFwRgvnz58q7PTdb25fq5ka3G5uXxonBAbJDlhR76c0P14z2K8ln1pfuL1okmWeXtB73vovwKZEeJFMhWUlKKcimIraSk5FpeIDb0mfMIE1/P6HstAs2gvYfOcNvoyRtF8VD1LKp4fu3TlvixxxVbhe1WbVaxdhCbV43NQmwQC7LJBI5sLGkDvS7YN7rdqo2I18cKYrPV2HZV2PWKdyORujf71rhtC4jdrHFVfXugSEFsEB2/8vWH8eMySRD9pCQEl421U8SKqMO0oZWvP+oZYvtpJQJQF+AuqHKjzvix+PA213AFoDOIrsR2C7EJYPcLYrOAnT6fFyLEloXX9CPIClqH4HVMsHrZOYwm6+yqs9m4UMX049IQm/c80gLACuBZ1qaC1bJ/xOHH7uOP40e34BjGAfi8gbzCcK8Q2888ubm5+nI05MnJydGX3cJ5eK0SLuvhOG5Q1/q4onvmzJn4ebirsUWAlwei7UCyDDC2qrQWVWmzgPvdD9ag+R9kSE3QqiB2FCkIsjOWuft+paSkpBROKYitpKTkWiKIDRKBbNoXm1uNXRIE0cGRaUgT/6uxOw96zTCBIt0mA7GdttMQ+6UX7hZuu3NwIkRRu6gam8DmLpzjigTEJtt+Zzo1KSWG2CWB9caKaCuAnXf8KLo8+QQSiQexQTyY/OAH2gWDKtVq6evdgmhRLLttsu6hld1QYoXiwHFVRytffwTdfO9znkC0bCW3G4jNU1myIAkHxD7z23rXVZwArcjXKgJ3vXhO0xCbyGvlNJ3v1C9rpaxJrI71QoHYMnL1ti4jXtdOZAWx6QpqtpqabcO5ONXWVm1eQS1Y+MQ37h41wBcuFOXn5+NlL3Ce3hfw+nb7uafzeKl49yuPHxAb5KYaO9wQG6T8sZU/dqlJgWwlJaUolYLYSkpKnuSrpUhdjqVIGCC2TCU2iAeivUJuq2praOv9r1ZofAf5Sm0QAcnNOMclC6J5kNsJxIZtr/kvc07rlQ+sN1ZE06IB9rq07ijrq8lo0hsNkEhOIDaIBtEzH74DfbviTlM/PyE2WT/t8zsQ/GdNT3sEr+t9z0No+FXrDf3EliC0nYgGsN57oZWpHyhcEJtVNENtgNi0ZIF2OKxEQAQ6g7xCbOKHTefK27VS2heXFamcxv6xV/7Ft2Ml+1aQcxQlVIgNy4SOi4d9it78po9U3wfGX4svmClFp3gQm/dISwSywwGxQeD9DL7PXvNEW9UyyePFUgRi8/Ly8DKMJbITPLKi4byXPLA/5LgAhFepUsVVHnLxggism1iRu1dAS0ZsQCt/HYwyMzPRnj179PXhANlKSqUmBbKVlJSiUApiKykpeZIXiA2g2mryRpAXiF108qgBHtKQvEKL19Duj/kVzyV5R/Djvvxq3HYvliJ2EzhOWH4NmtDpU27b42uvR6fPlqC/MZMU0iCZze0ERIuqsf2C2ACtC0+XoIrxMRhe0xB78bDQMYlAtheI3bNlgrmCPWgdwgPUfvhig5UIAGyoyB7a1Dg5ozXEjkF97n3WcttsvJ8QG+B7n1HPcteDbmbaVgrW87Qy7dFAv2dM67R4wXpJME2Atkz/cFiJ0NAZllOuug3l/vARrnp0IwKdQX5WdZN9k8lH/IHdioY+tucv+JrkFxab2lZN2hGVEFtkE/LE33qjDu3bmSxD9LigVUhpysrLWsZKRHSrv8gn19O+SkBtIr+tN7xYgcBnGCYOBPlVtRxNMDxa8nipxvY6xhERkC0LsUHhANlWntWybaUpGT9tO2sUu5xKDqVAtpKSUpRJQWwlJSVPkrEUEUFskKgam0BsqNAUwWqRLzaOt6nGrt5xkakyl4bYNW76RNjuBWI/wZmAkW6fuuF27J9Lt9MQm0BfE1AN9JkmyC0LoqUtRZoxfepp2x7ShDmmekGYvFE7j3knjqLKyTXx8bFV2LSGjpiFROKBbJjE0WSjwoBoEcQGiUB0Qd5xVFJ8DiUGobsTiE28sMFKhPeaiKqp2ckZCcyWgdggANnprz/CzUGvZyE5kQhg0+04nuqTLgGxCbxmITYPalvKomLbD4jtxV6Dhs4AijdlfIN63OR+wjC6qvu/X2Xgxx43dfOc77+bMvR1PW405vML6PBkBbTt7EfyTmSivteI79Kglf7N75a5Zkw2TjZ7//T3pfLSvthET4y8AT0x9zNrr2uwIgm+bwm4piG2yNua6MulT3PXd+k3RfrcwzbeeT8dvZ3+rWk9vW0WXpsh9lQp6CWqkqbbiXgTOUodk00lthdoTENsv6qW4+LiUKVKlVzlof21vUyoSEN1v+C8l/2Bi35nzpzxfH5g3CXnGcZvmTzhHOtk50DgQeyZD5svRo97bhk33vIzKPis2sFhsjz4Tw3RW5/sQTJaP//v3Iu1VmOULHjmLbOymjySzidqU5JQjDZXgALZSkpK0SAFsZWUlDwrHJYiGGIHfwdYVVxbtX385l3orX/cym0/l3MEHTjJr7RObr8Q7dy5E5377R/cdi++2HaV2ARUiyD3ExagGiRjKRIOiC2qxAZNXdsVsSKV2Ev/ts3U9sBc7b0yZcoUlLXeCAH3MtXxZBJH0zEzEBsqvXl9QCIQDfsXE19d/0HqFGITgM2LFUFsEF1RTcAzz1LEzlObhdkgEbzWYywgtghgk+fpaY8GlrUfOPRPeBpgb968Gf3zjc8MbSBHIJsWtaH01wPbdwCwQeGyEiHVzpGunBaJTOoIgqru9LmPoT4jn9LzhRPosOLBbDuILeuHDQIwJMo3sdlslJRoBEzTto62zckD2HYCWD506FDLPgsWLLCF6F4htt8TLRadyjI8n/34vfjR6ljffPNNNHraa6b16xbPQN0H3I8fWSAtA8J57cf/9x/8fi9fvrxr6x0AtOAfTy5KRUO1scpjLdlq7EiOdSA7oM2C7FuSZqI2l8WZ+vHGKa+VxQDMhwwZImyHz60IoNP6v2HXoZ49e3LbnFxs80v0GHVPj1aoY8eOtsfJG59AcQnVI77/UalgNTZIgWwlJaXSloLYSkpKnhU2X2ybamovvtgwSSJbmUtvmzeJot0EizRoBgDK+iDT7U4htSzE/jp7EKp9ep6wjYjuIxNLqrzxcV1pPK5L6oX68KqxSSU2ETu5I289eFizABvEg9ggK1sPWk4md3zyv3fhCUZLSoodx6YO+sYAsXnxdiCahtBeIbYdvMb9HQJsNiY9CKQJyIbnGzK+R8/PTcc/fWSrrh8e1g1d27kDXpaC2zEawNaOs3SsRGhIDMsAv7xAbIiHake8vz5AbN6kjgU/rUK33367q3x+iMBs0esBPthED8y9WDrvv0YdMDyv3vlZ1H2kZi/yWKs5qBzDh2Qgtht5hdhv3bMPP244wq/m71r7UzR4oVx1uh8CMMQDOvd0uwS1b9/e8lhlYL3VNpzoxI4PfIHP4NfsRx6oECY/taIB9oYjj19WKV6qumGMIxf+oMKcdwEj0gCb1vfff89dfyiuqb4M7//bai1CVzSIRQkVnF9scyoyMaVbkH3fVV+jLq3roN1xg9DBgwe5fd5Y+4vv+y0SO37cfb32f8MOYtsd58ncTBQP8z1c6EBbgWwlJaUokYLYSkpKnmVlF2JnKWLpi20DokEiSxGILQn8AOXZSMiAbDtQbRUrA7FBVqA6khCb9CHtvDYCsfG2GVCtQewSDKtFEFsErmlBn4JTJahSQgzq2jwFFfw009Tnyha1jNt24IvNPW8+T+4oiuXFy0JsANBOYuk4JyDbqZUIC63JOnhOV2WzbUR2N1xLQe9gEj8gNkBdtwAFADFAFJy/qAg/wu3VflmTAMQ+89t616CI5IOvfFVb3orPQe/28mA4XAKQrb8eiYHPdkmxXkUdDog9te0cU38RHFo3twfK+sp8N8OAeTfY7gPEvvjSRjR37lzLfiNHjkRDO6zWc5Kq6SXDP0Nnz2neulYQu3y5X/Hx3TRyrakdcvDUX2L/aVmBZdjGqr1DMcTO+lhsnVPjpk9Rzcwx0tsmlZRuoFE4IDYAUajsdiMYG8gFJC95wHaDeO57sQKBKnNygcxLtbpfEzOCIlWNXZoQG8QD2TTEBkElNsiuGnvpiI2m9pROzwTGgjW2+7F+bk+UvelR9NGvg/DElDLjFLnoCNXf5YozcPzHGQnourZ18foNR/hWVzcExqlBzMU23r6D+r1xvafzS49V9121HN2QWh19+Mvd6NixY/i9Du8JANrH1ottuWCssqo+9wK0VwXOXe9g5TxZXkXZoLDPQetXf4Ru6vVnU5/eggp8qzZfpEC2kpJSFEhBbCUlJV9EQ2oWYne4UwNM9zR+m9tHaCkShNgg2Wpsu2pquk+4ILZbSxC/IDbIClKL2km8c4gd8r6288W2Un5OZuAHdjGqVqM2vviQt3O6qU+TJjWN2/YBYrOTO3qB2HROVn5XYoN4nto0rDZYigSBr2jSRude2GZQLY5/1AS7tXx8qO0EYGvH6d1KJGv7ct2f1akALgNYwtsI+mF3SG2n+8Y6FfjDEqCO8329BV3dro0Oyp0KfsDDH+TaHMj1yksvusrjt9b+cAaDaxB8G83LyUZxMUW4CpF+feoW7ZbO+eb8sYbnBGCDWD9sUM1jY7lgWgSx75pzleF5/skiVDnRCJzeHf09WpDRS+oixqB2H5lyvheIX7pWu2BRs9W93LjM719H/bpr564vE09y8MTrm5t/DoOZxKTQ+CpTFS0Lsavf+An69ddf0ZNp61D5cjHSEGjJiA3c9f3f6MpdDxYjnVLb6vDZ7ecZBJ9nkgcsIQiIdirYB6hUBsE4QUC0U8FYQrye/crj5bjg5yN90c/LuaaBPOyf25+m9AUCyEGPl3aVuJEUDbMXzr9fB88Ad995T2urd90c1KJFC0McDVfHtF6BrmuXYsp95+yWhucnC4tQYkUzEF82ZgeG2MePH7fdXziPq779wxQP+uybiuhIdiGqeZV4nOrfw7xfJN5u/0WSGbMILJ+3uYcOsRs0aIDq1avnCWSH8m/gru8nGJ+ICKimgTaRHdhmY1hgTcPxsMFsBbKVlJRKWQpiKykp+SJxpfVdwTUl6J7G73D7hMtSJNwQ26qdB5u9WoZAOwByUJ/U+o5BNGkDuYmdujZUJWO2FCmPva+HMetZX+yc/CKUXDnOVJUdE/hRXkKAQWC5R/MKXIgN4oLs/KNoH2U1QgDz1HVdDX3Z6vhw2ZH4AbGdxlvFllWJqrUJBCeSAdggKyuRY9vedw2JAbyQCkICsa9u31avynYq2I8qVaroldPgYZ3atrUO1ZwK4gBcRRvEBuke2TEwBhRhmB0ba3zlnUBsthIbAHFccLzp0SLB1L9B4mco7ZtOpvWyldjFgR2OZXxvFw//DENsqLLmxSwOVklDn2GBPmyFMltF7bSd18eqr/ZTIAaPvbga3qGtB5zXfMF4TXTuontRxh8Jkhnt/XpBrAUA8ckmkzJ6Aat12vfT/bW95KKhsZc8MCbQk+f5kccLxAYR+OwFqtN5vBwXiIbY7AXEaILYIADZL997CC8DuCWfN1KJXbX9C+jIkSOGGKhY3/R76FzJVDTD25dny12Qk4lWPvADBrzDO641VXHTABjaeVXS7PbpPgU5RwP5d+nPeVXiXqrJS0pCxwZ/MmMWsReBymyr8apyi8mWExGzx3C0xkzHliy8qmx6mQeyaSjNA9ui/GGRAtlKSkqlKAWxlZSUUPanV+LHH/eeRp2Hy8MCNgfEf/eTdpuqEWJrw4wIYk/b2BetHpOOdgXit+/W4mUtRQjE7t+9qh7vBkST+Jy8EHSyi39v23UotfbHeFmLPxWI1yCT02priMfb/N9J20ruDA6IJvGbAvFuIDaJ37XnFNr+8ylurEw19t6Dxh+ObCU2/MvpdaXx9mX4IT3++uX69tftH4j27duHMjIysJfqkunGH088iN3pqkqm/efBZFE1NRvvBmLj90Ag/kTgPcTGQkW0XTU1iZ+Yfhvi6UKE2KxWpcnbhrCyqsIGZX63zBfoDMAYIHZquzauoTOAHKgaI1XYMAnjkW/fdV2hCKAKbveHfAMGDHCVI1yiYYEGJko8QWz29nxaMEEkew5lYcV5K87FAycQe/3cHuiFlzbaQqETJ04YILbdNgBig5zAIYDYoI7t2+BHL4D2u//9oFd1w+fG7dgAcQCx/cgD8Bnev37lgT+3d4uAoBIbcniF4X7mgfMMeVgYfs0116DGjRu7zu23AGKLxioA2TU7vYIOHDBekLvgxypK5H9FyZlsVHAqBiVVTRH2BfuUBW9pld/wWYTvl3bjFak8lwXjMpNHylR3lykpkK2kpFRKUhBbSUkJzf275lfXvFHoB6YTmM2LP5Ef+oEFvtcgEcQ+eFT7EXUFFU9gsshShK7WPpjJjycQGmQFshsUL7CMt4PYFcrFBONDt9ZOXKmBSJlqaxKPczTUcox//1qhpzYLsXnxIhAtshQpH8zRnBPvBGJb+WKTCmue6gdfA7L9tC+6oL/97W94edu2beiNtaFJQnkg+eCxc6b9h/UHKj5sGwti43kgWhQPEJs9fzwQzYPQoP0e4lmIDTqfQTaB2L3vlffWpuF1XiFCVVP43uxHt77nGjqDwFuW+Fenp01B7du2dg2dIQ5AEw2xD29Z6nrfIA9YGsCkjrxq5NIUD8ysS+tuqoKW9cU2VmLHGKqg+7SqbKq2V2DILBFgJl7VIGgn1d7zM3rZQiHwYR59w0ZsBcLmYQVg/K1FP6LU1FRbMNSsSZ7BE5xYioC8VAfTENtLdTDEw2c5GvN4se4AEcsV+HN7FwudxyvEhjww1kFlOJvn2muvRY0aNXKdOxwa3in0vu03N3SxHiB2UcNHo26s8uJVHxbFxAb+v2dy9wn2lVg9EesS8MeG98Whzf9nmZauxLY6ZhqOA8QGXaggOzamAtr0Xhgrv5WUlJQoKYitpHSBiwBoEIHQAKDJhIxO4kkOiN/zxxnD5I1ELMiOL29EUACS6WpoGV9sArF58TLV2ARis/EyEBvU5aJPqPh4XI19eSNtUqG1X2ZyYx/68DpUMT4Gg2oWQp/IL0ZPWtik2EFsiGersa0gdnkqvnkwfh8zYSbEN2sUmihp7X+Nx3UJZRvCsxQBiA0+1zzVp84/C7EBYIOsQDS9/yQHgdj49Rn8Ouo+ap2j+BPkIorkxJCmcygJwQmIZuPdQGyy7nyF2DyAzRM5k3aV16y8VDqDCMSGKuw+o572BJ0N+XyA2CTfl5syospKBHySfzl1kWk9PakjkTOIHfo8AcQmIOL2Lo1NcOuBCdeh7pyJEcMlJ5NLutGd1WeiFpcYPXD3HC5GCw+GvMIH1p6FmlwUK+xjVSVNQ50lwzfgZbidfujQoZb7BXfV1MoahyE2mRwtvxCh5GradugJ08ALe9WeISgrKwvZaXD7lToYLzxdjL5YPssX+Ay+9GBP4TUPiEBaL3lgbILPcLTk8eu4SB5SYe4VhpO7YdgKc4DY8JpecsklnvbVT9EQO6XjM6jLXW/hz8CysTvQ/M09Tf3X7CiMyH7BZ4l4acPncVDX+qhx7qOmfm7HLTY/6NErZ6MKzO8BOn+vKxNR29gXUDnG3vuJb0drdikxsfr8CvR2QLAN2h6lRo0acpXT05fju1SKT2freUhesgx5yeSRMnMgpG/P9/fFigYpkK2kpBRhKYitpHSBa84jRi/rS+tpsFMWYnPjA6PKnoMciB1Yfw8DZlmvPrrCmsjKUmTvoTOW8XYg2ireiZ0IL97KF3vqhttx1RELJkF05TNvAkerCRrpeB6ItosVxdtVY8tM7piRNYi7Pfb8Evj8be5QVLt2bXRjvdfQll2F6MXNfzadT+7+1ylveN6scTU0YL426VjxqWOmCnereFmITcuqIloWRPPiL3SIbVtyHVCxZNU1T14hNvyAhQpAvyA2ABnih+0HxAbf2WjzwxZBbCKeh/mqN8xVdL1H/MPUTq8jAlD6wQTjhGKsXzVv8sf7p79v2T5kShoqBxNSxseiOVP/yj0WUoFnB7Gttg/whJefru77S9WZqFUjI+k5llOCZv86xrJPdl4JmvnzGH07TqotyT5bgWyA2PR5tBKZ0PGtLTfb9sUQe143DJtyj2eirz6YjSE2C0SXLtU+P/369TPl4LXBWEAma6UvfMjkYdvB5gL+39OV4aWdx6/jgvNEQ2xRX7f74+Q1I3kAYJO7ah588EFc0T9r1iwMseH81a9fH0WDoNqXWOCAlzstGKs+euAHwzq6WpsWsd5hRcYFUfuIx17F0HxIz9aoQ4cOpvZBD81GSZXLodtqLcLP21xmniASxi5e/tHTXsOPMI7w2odNeRVP5A35Yfu5WycL8+N96Vrfto+swALETeU0sbyhReD4wi19bLcL49GDE7tKeX6XOSmQraSkFEEpiK2kdIFLBLFBMiDbFE9DZOq7Hvheg8INsdkcIksREcQWxbsB2XbV2CV5RwyTERIRYAyVz2wsacsQ7BfdhwexQSJfbKt4ep+IeNXYfkJsOLedOnXCEHvA/BvxOs1mYLLpvPDiiWgQfb5BbNAF4YttA7CLHVZd8wSTuJHqvSVLluDHrVu3ounTjTYJpA3Uv39/fRm+TkHl5qaMLajPqKfwRJEEpLjJB1AcqrC//OIL9PSbn2O7EzbGab7NX3+LJj84EV10kRgcR0q7du3CYF0EsbXKXO2Fj42vboIHIllBbBAA2tz8cxjeJCbVNLXn/vCRaV1S8z9btle54mbdU5rXTuewg9hutk+38wD1mXMl6JnvrSF2UeCt+s9tzisrifUHTEI3d+5cYb+RI0eiBydeb7D+CIfI5I705xlEPhf0Z8Kq7dvt2sWOzle3M8BV0ecLBMC0ffv2hjYYFwCuAkAFS5VoycNOxjhp0iQMe2XPEckDoiG2X3ncvGZkgkg2z9VXX60fM4wj8HfxxXJ3doRT4Lu8bvEMvMxCbCJyh0HF+FjhhaVhNzVCr7zyimk9GRdE7SV1OqCkarXQ8O7W8WSyyaYXxaJKFY3j8P7qL3BjSTxs++mnnzZMbirKDxJBapk+Mlo6ciP68Gft+zNUT1uNWSAYt/y2caHvOjmvpEC2kpJShKQgtpLSBS4WQoM8V2MHgaehGnsjZSlCweiG9eyrqe0sRaK1GrvzIK0SZdHzw7jtALF3HyhC8VWN0I0A4y6BeDbWT4gNkq3kpveJaNF0Zt8E1dheIPYPubW4MVbV2CQe4LLM5I6ieHwsEiCaJxFMloHYsvEXDMQWsEu26jo5pYZMsbZQebtW6nBo4sSJ+PGll14y9SNtbDt8ndqydTteBogNsJFAIjf5CMSGKmwQDeXc5iMQGyBOvXr1PL4w7gQWQQDiYH8A+v/0009ozpw53Cpd+IYqulXci7SvvjHYp5/Ny4PEm7+apVuO8NrTX6iM+s3timIDx5W78wPuNq0g9jWjP8BwF4Bwh85jhbGfvNUfpba7W9gO4gFqEA15ZPqIRPtZg94b8z9sfQCvpZ0GtfsI9Z2tTSTtBODAeWElguGkshWqsWmYOWyY9v9q/nzz/0xeW622fXV/bV4eJ7kAiHfp0N4AjZ3mgRwAOulxyl2enYFjamOC2E7PEckDYqGx03Mtgs8yeUg7geELFy5Eo0cb38dNmzbF7084ZvgDkYtipXVBD8bBI+Wb4WWh7zKedBXGpxLLi3h2oBjaQVxQ3eJWNOzGS4Xtq/+VhN5593v9+Y33bTD1+e6774QQ3HLbgfbRrVegA7+F5jG4uEYsqlnVeKyZRXXRgT2hPjWTY9DFNY12SPuPFqP5B4xjJztWgcCqBQQgOycnx/Z1gv+5ZJLH02eKpeAzeGXzRCqwC3KOIpiXtVy5GD3fqnlTUe/hGviFZRD9HJbpPvR6+jkdR0uUw3cpkK2kpBQBKYitpKTkv6WIA4gNsqvGjmaIfTmnWlq2Envvr4dQQWEJqlSdD7G9VmI78cXmxbupxMavl6AaWxZi41x1ymOIveNoLDdGppqaQOyp67qi2ITQOZappiYg28nkjrQiAbF58ecdxOb8bqfhdSxTde0FYoNItfPgwYPx41tvvWXqQ9p47d98uw0DbD/ysRCbhldu89EQmyiSMHvLli14P2QhdriEbwuPjeOCcTcQ264dREAzb2JNUqFsB7FF+VmIXXjRQ6Y+dDWhqA+BNQBVWEsRAoTyT8Wg5Kop+nqw/iD+vcM6rsH+1LSINQj0odtzc46jOHQOW7DYQSGSg1b1Ts9YgmwWPst8Zug2EcS2+vzzcpE8LMR2l+cJdE3H9gaI7TQPwGcQmwcqqI8ePeo4T+er25p85p2ca5IHgDgLsd3kWbRwHq4Ep0F2s2bN8HgD4x4LsYkiCbMzMjLw5Jq/5Fc1QVGTlQ8G2UXC8QoE1cVr9g0TgmIv7aBR1+9FhcGXuFKrZ1B2drahnfwPcQuyYfsElCe1nY4yM8132oF/uF0feoyzskSC7YHmbeqB84IfOW3xwbaDjQvQEvi/ARcqZS6okhy6grSl3xuaJQyhL+yFVBpE0+CZXUf3Z6G0CFQrkK2kpHS+SEFsJSUlT5YinfpORYMbG0Eoz1JEh9gx5skdo90X+/fff7e0DBFBahBUY8Okgjxf7J07DuJHFmKDaFhtqlQOtGUIbFLYPrxYWV9st5M7OoXYvGMgENtNJTaJpyuxwUbECmTz4vGxRABig2S9rWUgNui8ANnUuECDa1CswDLEC8ROT5uCUttplYUEkNStW9dk1yGCRgBFvt7ynQ6x09MeC+Rr7TofC7HBGzu1rTGfE4hNqsRZiA1fA+EvXLfXb9q0SfvxH/ixDsdEvMPhESowSwNiW8nOk3r24/cK20XxdB8exKbhi50nN89flvXEdguxoQ+BPzQEgmUCr/GkbKeKUWKCEb7Bftt5YuvHEgRzxIKFCHIXBLaTREFymbzsewegMWsD4gSIwvu1dru7HENssO8AWxW6TWRL4jwPHz47zeMXDCd5unRoZ7IlcQLDSR6vEJvksYLYtJ0IK/JzGB7D5ZkN8BoE2z9e6Sp9PQ+4OvWlJ6C4TZs2prahU+ai8X3bCdvh80Pi27Zta2qH8YXYeZyuzx83IB5y884txEM7VDXzvLfp/LU6z8DfuWlBxfTmA/F6n2qpL6LDhw8b+pw8eRJt2HXc+oKAQMQj24k/tt1rlX/iKJr/zGjLnCQv+IeHy1qEAHCisMJrWgpkKykphVEKYispXSDK/vRK9ONe7QdU5+G7DW0yliK8eADYxSVn0JDL3jbHE5Ab/D7bsWUiftwVzLHtp9CPJ95dkrxq7NWj0/X47bsLDf1kqqkndF2h74OTeICpoBcHb9Hi92g/2HLyteqJ55ZfjPp1+o0bD5M7PjOmB/pp/VD8vH/3qoZ4XixIBLEhnuzDlIVa9YtVPAui2XherCierJu+PAS7+nU0xgPInr68PrqLWU8sRaBtxdRs22MgELlZ46qmfatW6awev/1nvlch64s9fYXxPQ77QF4HXg46no2FfaXP44m8IqEv9vMrzJ8tNv54IJ4HsUWxbD/Z2MLq5h+PUavgmMCzDLEJ8SRi2eEU6IAeeWwqSlv+uf78/sG90NQpkw39nUBsNt/I269Dzz01zXW+hx97HM1d/gVqVTeGC7HBv5ssX3rppZ7OI4BrWjTEhipsuhJ79+7d2Hd0wcd7fHgFvYsHmekKZTsIzWun+7iJd9LO6wOv7fpdZyz7kDwiiA3L8IuhME/zc80vjEHJ1eRhM4gGzjKVjfd0uwR7OkvDcUr5P6YboOiAAQPw4+LF5guYbFvcxV0M7UUHvnSUh7Tjyt+LOnvOg+FrvU6e88Dnrbj21ZZ5eLnGjx+vg2kvedj9hTEAfJl5eZy8ZvR5HnuH5gE+Y8YMVKVKFbx8xRVX4DHHDmLTIJv+a9iwIXKrzZs368tku7AvWRVbho5bAFvdgOyDBw+a1pPxwWs7TK4oqoAmkNqqHWSVHyA1r8qaHt+gT8rV/0KHDh0y9bG6GIAvxBWcQ5UrlTP1kYHYICuQzQpygmTzDnn0dcPFu/NCQZCdseyZ0t4TJSWl80wKYispXQBK+3sD/NiiUehHqx3IpiE2iadzALib9sVdiNwjx6uQBhFLkT+OaqCtObUPViCbhdh/ZJrjaRBtV41N4ukcOYFjILKKfy4IbQddq0GW5g21SYhkIDaJhfby5UIHSXIIIS4FjEmbKN4JxCY5SPyJwDHs40xuqcWXBNrOmnJ6hdjseeQdgwhiV+88Hb330nDjMXAgshXEJtunc7Ag2w5is+eRjbeD2G7jvUBsUFkA2VA1TytWcqJGPyA2EQ34eJM6kfZJE67Dd1qUVj6A2Cz8tdtWi+Rj+i31IBrWEJBNP8r8FRVpY6nIt7WsQ+xJE6/X7UKs7EBE7fRr4SaeQHRQ73YXCXODlgz/DM3P6GVohwrgDb+UUH02BPr05OYRQWxQXMWaJuAMFihZmx7FdiEyk6TJTu5I25B4zUtbnrCfCdj/F17ayG1jZdWXbrPLdSHkYftC28J3dukw3C6PqC+0ZW+egq0eeHkG36B9X6WrsZs3b677YfMgNg2vySNvXJQdG0XjIWwfYmHsO5bQwtDmVzW2WwjtR7vXC3xgwUFeV1EOuz48GyQybhXkZKJzRSUoOUW7ww+8q7M3P6pP9JiVlYXS0tKE53fUqFH4cc2OQmQlYiUiO4Ek5F2z87Sv8z5EjRTIVlJSCoMUxFZSOs9FA2gQQOgT+doXbNoqxMpShABoPT4If+28qvX4TCNkA4gMABkAN5EsxKbjCXh2DrHjA/HGL4t2EJsGnzhHw3gpiE23sxAaAPJ0CnLTkoHYJ4LbF0NoYxsdT+fgxwcnR3QBsbU+RpBNIPbBzHOG/vVqlMOQWASxWTuPUc2XmI/BAmITSxEriG0HwVmIzb4X6gaOYb+DSmzee4mtxj7fIfbMh+/wnoTSrl270Ksf/eBbvrF/uVJf7lLtFTRgfjf9+eJhn6Ivj4/ntsnkizvwT/TKllt9y3dLn7oG8G2Xr3lSJobIRApiG7V4+GemdQPm3SBshyPuT7VP7vQBantFkqHPx9ti0NytXfHyEk7+6p2f1QEsr53Ob9f+wNUfoKtbJnP6dNWXMXj+6lFuH0uIzQFqBGK//e2fkYzoyR3z8s+hChVicWU3K5gwEvTWlpttc547dw77bUPek4VFKLFinGFfAWIfSZmBl5tfXmCA3dCWWWMWXq55bKzJ05sW9D1e5994udrh+wx9x7ZZga68+T38GWAnTPQqkdXOkhEbUVHTd/A2434aqPvtgpYG2kquWKJ/JvtNmiPMD33jrtQqTIt23Ik9gOnjumFo6D13x/gZ4jwjN6LyVy3Hy7Dd28a9bMiTU3U8uv322/Fzuo0V9L1xROgulL+Mfcm0nfjW/8HLlRJ+0F9PArCJoBq7VatWKCEhAY85BGBbQWx2mQbY9JgoGh9hLIRHdhtkuxAH415mfHNDO+8zhu11ThahSolx0jDb5MUMrz31eoaznddG+02fzM1EHz3wg7BdJoddH9F5NFyAoyYKpoGzzESPg9uvRHfOaonyTwZex3Il3LELBBNIQk4A2PC/zk7p2/Nt+5RZKZCtpKTksxTEVlI6zyXrd23Vb+9BPuCVhdhWgJiAbCuIbRUPbTIQ2w5Sy0BoXvtzAghtFw/igWpeGy+/XTxpF7XR8TyIrbWXN0Bssg4ANZFVxTWvbf8hPuzdx5ncEEDyhBXXouRKIeA2gpnQ0S6ehdj9OeeiAcfTmsTjY2GAMJujvsXkjDyYzIsHycBoHsRmY0XbJT/QKjTqjkpbU9vO8Z6E0u81XkDz1//mPVFQxJd469ataGC/JgZITHsW18wcYwud16V1Rz/+XEXPx8JaOl+zJnm2ldhe811R5ajhR3UkIDZp40HsCRMmcI+jtGVVBWkFdZ3ksIoXwhgHlZky/UUTONLbtjtegLtHq2t+tXbWH7WyxunwV/sJEmOa3IzOSyaEXLUtCS38ti23HVQ7/nO0cOvV2qSdQVhI3o/0/tHbt2rLPZGN4mKLUAI18R4A+127K+uxLFwm9ic/r+iGUqr4eW9I4PvW1tGmdQB7m94UsnMT7Q/oiqb5wkp1UvkM1cu8PAD6yEUAqzwgAMkkD9vXSR6rvnRb7ez7dYjKQmxSjd2iRQtDFbYdxCbPeQDbCmQTgG0FsaGtYsWK6HC5yw3tAHgBiOqe8EHQKjvWsJIZX7yOX1b7RY7Hi9ezl/HLSVU7vJ/IOFK9enUpf+yxzy6ztUMiVeMwOSSIvhhA2kFkjGPbzxsFITZIgWwlJSU/pCC2ktJ5Lhm/a1Ff0k8EsUEyIFsGYjesV8EWVlvlXrqpkSVItoqHWJCbeJAdyH7OQbV1ONrFkNoeYmvtIUBKzhWRE4j97uZGJoBLIOxjC5LQvT2zDG0AkcFTHP/4C/wALTp51BXEZvdZtA+8auzpPkNoXjzJ4ZcvNnu8RNECsf+vzRwU6yPfKQr8fty1vwgtPz7Ol3wAiV98WasCHHr1KgOkpttA5BZm/IO9fAyK41ifuMlnJai0XvB1b9t8PKsREEBu+pZpWYhNP6dhDd1uBbFBAK2jDWL3bFmxVLZblsW7nV7Wv5oGpPg9ExsnfRs9gKjc/HMYjiUm1TR3CE4YyeakYTfAIgDVl1c67MnrmHcuoDJ6/uYeKOHA86h14zgPWc3iQWwQbdHAWqpAhfW8zZr1AoA0K0hG2zSY8lBtTvKwff3KI7ItYSE2CKqxAUoSOxGQDMQWWYrIXuATQWxQYmIi+iPmMqoxllslbEwQa/k5EV18gmU1xjnXu+++a9kOIHvMs+8F3lPy4xcIT4zLuVvkvJcC2UpKSj5KQWwlpQtAXquxpSB2YCQZ0kQOYtNtz9HWFC4gstd4OoeTeN4+eIHYXtvtIDcvnu5jZSlCV17zxAPZohinEBsEvtgD5t+orx/WdLEphwhiy0DoSENseB1Y1OcVYovsQ4jo22RLE2KD3/W0zu96T0Rpx16tCtgviA2QmBYLibO+eoTbBioKTkRJw2wv+fzeP5AVxJYB2CKQLQOxAVyTamwFscuuWIgNkHjVniEoOzvbNhbsREi1s5MqU+KRTat6p2ek/LUnpv4HdbgqNL9COCE2aPGy7yMGsZeOMForGCxFGNsFO2gs6kt8qGXyjG/3H9S5TTVhX3o7KR2ftq3GFvXl7S8PYkM19pw5c/RKbFA4ITaMi7yxkDyH/chOvBL5rpjYwP8fza+arUy+IuUMatSokdvMF6zsbEDAxih9ywH9ud049slbA9CxjfeZ1rN2KaxWzZuKeg+fxn1OltlHUQ5Re0SkQLaSkpJPUhBbSekCkN8QG7fRliLBUUQEsXGOMgyhSR+/LUW8Qmy6j5Uv9nSLc+wVYufl5aERNxkn+qGrsVmJ7DysIDbtiw0QVLYaW9YOxGs8yAmE5uUobYidnvYo6jMqPD8q6Ika8woR+tefohti4/08kYmqVK3pOh5gNg2y7fIdP3YEVatR27f9K8g5iiol1+K2ndv7CWrTpo3+3E+IDbIC2QRiE39sgNgTJ05UELuMiQY3IPCvdgKxQcQXm8gOAPEgNsjKw5oVbSkQDohNdGvyTN8h9rnAMPfU9tGuYp3a0IQ7j9X45GWfeBAbBNXYXbp04VqJgHhe2FYTO9rdncKD2GRSR7iAl1WxpS/Hbj6OoDUfVbVNIDZIgWznsgLZxB+blt3ng+fnDbK6MGQHrXlSIFtJSel8loLYSkoXgMJpKTLt876G9bLV2DwIDRKBYDcQmt2OHUj3O95vX2zeNvyKdwOxCRgd1cMIn60gNogHkcsSxOblEEFokKwvtmy8U4jNTlYEEBugNQjAdbgANg2vYxM0oOu3F/bpsyXo5z+0H+sAse3yZ+eVoJk/j/H9WEUildnRpJIj2x1BbLuqQy8Qe+/evbhKUkHssiUW3IKdzocTd+rPWbDMbQ+CtuJimPTTuoIf7h6wsikBsVYlrADm5Z8sQpWDk+QBxM7NzfV8Ln7MqWpad0/Dpaha5Rh0Se1YFxnFeuBj7X/hv25cZtnv14PFaPYPd/m67bKgsXe0564n3tgwyaNVFTZ5tALYdlYivPkB6EkdYdw7fPgwKnfpnyJyTpomHtKXFcR2J3q8YyenvCtNg8/sxQMr3X39xVK+26DR017zdOGIhtylBq5ZKZCtpKTkUQpiKyldIAqrpQgFssuipUgkqsH98MUOX3yJaQLHUHt5V3Yi2jb5caZ9sPG1BogNQFQDoSVoWNMlhj52vtgyldQ8S5JIQ2wQO0EjL94rxF7/yWcGaO0nxKbBNYjAayK/ITapwgbJQOz/7XHnnQ3Vy+FUpIAGfSwEZJcWxD5wQKvmVRC77IlXfQzyAzaHJW8QLukVsoHnlyce9AViH4praloHldigcFmKTLpiNqpcMUaqr4xO7l6NKlSoIN3fjSIxxokqsUFQjV2lShXUunVrw3qnENtqTCTjIYgHsaEtPj4eHTx4EI97Tj8HbkRDbJAC2c7Vp08fW+A87rll0vkAYoNkQLZXiB21UiBbSUnJgxTEVlK6QBRWSxECsWPEkzviHGUYQpM+bi1FotsXu7wlxNbi5UG2W4gtqsamK7ErZmVIV1KT+Gj0xfYS7wRiswAbxNqJPD7yT+jJud4grcEy5CRCySnmCQ4nXD4bJVfycUZHZITYff/SHP24/SfL/gCx3zs4QH9+6mwJSigf2qeCwmJUqWKoejK3oAjFZ2/FgOfIkSPY/gIgRKVKlXw9joKCApTc4hZfcxKteuPvqMfACejd0d+jzJqzcUUiSAZiy0xgRsCNE4gNEIdo5MiR+LFHg3mGvnfNuUp7DfLPoaTKxlu6T58pxpP70XL7Q19BbOeKFMQGL+asTY/iSRnt/GlBg9uno/5vCG7LD076CG9TqPz2qxL7wFnj++69MTuwJzbIb4ideaIEzfyhP7q99iLb3I9/1S8wnhUFxrNQv9z8osBnyRh3ev/X+JFA7MzMTJSQkICBr5/yE2Kvnv8E6j5gHFo2dgdC1AwTK38dJIwh1dhEBGbz4DWIhtcyF/foC3qiSR0h5tix0P/KmDqthfvrF7hUENsfyUz0KAOywU7kw5/vxssnTpyQ2nb69vzSPvzwSIFsJSUll1IQW0npApGspYhVP0tLkeB3dhZi0/389rV2Gm+Vo6xCbLqPe1/sIMDlgOxwTO7oFGKDCMgGiM09Bz5M7ugl3ivEJjnc+GI7hdggArK9VGHbVV2z8rsKO/9UCdp7OHTr7pUNraFOQaD/b4eKDRDbTqd//0aHO5s3b8aPUD3lpwB6FBYWRhxiEwHMiSTEPnr0qGGdHcSWlYLYkRUNsglsfvvbP0vF0pM78kQmfASB37YTiN13dsvAZz0GxcUWo4QKMcL3RVmE2KA9VZ9DOd8+KAWxZVS4dzO+MwK8muEvIyMDr+/QoYPv++4XyA5B7J2G9VYQGzR//nzTOrAYAfkxqaMdxIYLBLSgGnvMk68L99cPkM1CbJAC2e5kNwat3JYnbCNjmnbhBWGQLQOx4f+r6KLheaEgyI6NqYA2vRcldidKSkpRLwWxlZQuIImqrL36YoNggseEzE14WdbX2qkvtgxELu14K1/tcPtiRxPEfncz/0cSQFUWVOPtSPhiA8AWHoMFhMb7b1HNDD83I12JDdtnUZ+XyR2XbhKfb1anTp1CSc3dA1OZqmuewmklArKD2FCFDXILscMlANgAPpxCbKh6ZcWrcLWD2CAAOSy0kQU2BGTbQWzRpH8KYpdNsWAFJl50ArHJxI55J0tQhXIlemU9AOikqimGvACxh3Vcg2C0Ziutl4zQJkpbkNETDe2wBvWfd4Oh4lokAKHD7xno+TywEBsEldIgsEdu19RfkE0g9pWXAnS27isDsnN2f44rr0HRZiliNca5AdlsNTatq666yjPEJuMgD2LTFdiGtjBXY/MgNkiBbHeSneiRvVuIfi3J5I7zNvVAwzutNU3qSHy3ybhnNenjeSEFspWUlBxKQWwlpQtIMpYiHe58FA257G1uPyuIHQlLkGiG2HSO0rQUEbXLQGwA1SK7ETuILSMaqPJgtVeIDZL1tfYa77WSmpfDabyT800EABvkFGI7rbpm5TfABrFWIpk1rbexIa0rfpSB2HOeuA/DCACs4QY7J0+exBYLIKjMevx1e2uXu2rMRM3qGwnWmXMl6Nn/mSetpCF236n2X/latmzpG8QWgWv9PAf9sEF+QGyZ9xntFQzVcX3aX2wbo2QWD2Kv2jMEtW/f3tJSBN7rtbLG6ZXYGihEtpM7OlJMLDq3Z733PIzq1zePxeCJTVeOgwjEBvldjb3t19C496e/brDsK6ry7de1GcrP1ywKFi1aFDGIDePELbfcgtbuPGXbF/ytG+U8YlpPPr9+Q2xaLVq0cOSJzc4NQI+BWVlZltvyUo099rLZqHqS9edm8Y+3cdcriO1eVtYiYCsy9tll+H0QC1eZJCZ6dCsyaSM9YSOs63x1W1S5cmXftxdWX3sFspWUlBxIQWwlpQtIdpYiALBBIogNEoHssuBrHS4IXdqWIt7bjdXWdu1uZQexQbKWHqUNsXk5GvgwuWO0QWxj1XUJSk6p6Wpf/IbYx/NL0B/HQj8Oa3Sahfbv328Zk/jHdPyY3P4lNPfDr7l91rzzkr7cMbUd/iEYZ1fu6FHghw0QJOWq26RjpraZg9gvb3uPFKOFB8ca1gHABjmB2KyaNGkiBbLtYA1PkYbYRYG3zD+3aRALwGP+ySLU77pLHO+3Et8X+55ul0hBbBCpqIXXAXzPoWoxMcl6fAHbEpFuGrlWX87+fgVKSkry/ZjhrolVL4S8ovsFq8IjCbFBALKT272AffqttOrbP/TldYu1ySYB/A7t1QYtWP0dfp778xe4uhTGObAVkbFt8aJhw4ahtz7bb9sPIPbhTQ+izs3N+wMg+8H+qehPPfqg3C+7mdr9ANk8NW7c2HIMZO1CZGVVjQ0SgexbkmaiNpdZv7/2HC5Gm0/cwW1TINud5Pyxl2u3+UlC7PVze3LX3zRyjb5Mxhn6/cCCbHjeoV0rPHcHuTjllwAZlW94o78nk5YC2UpKSpJSEFtJ6QKTqBp72ud3BddoQ4JpgkafqrG9WorsPSSeYFLG13rcDIQm9XXvi+02Hs7q/TO052y8LIT2Iz45ORlP2OSkGpu0jXsFoapVqzqa8On333/Xl2moIILYomrs/1to3K4IQgNs5rWx8aIcPIgua+nhFGKzliI8SxKreCfnmwi8sGV8sGl47bTqmqdwW4lAdXWfVOtzRCB237+0sASkL0y+B3322Wdo+fLlYa9MJH7Yd92ljb/NmjVD586dQzOWbLCMm9bZ/CMa7FKWHTJWma9d9LIOsEHdxh5D0aQhQ4agOnXq4GURxC48VYwqJlCTbXImegTJQOzC0yVo+s4x2o/lkmJlJeJBokpsu+p7ELzHJ024TgfP+TmZ6OzZYlStZl1L6KN5b08xra/e6Wk9F4AesMiA8d7Kn92NDBA7kJrc5s9CbBAB2S0vjUPlfObYbiA2Lbj7AKqNd+7UqpgjWY3dp08fy31jzx/vIgCxSQEw77QaGzz5Fy5cGNZjdCoYB9O3HDCNdUQ8iH1Hhxro7K6p6FzgX2Hq5dZvMFWN7b/sLvbAGAevKZGMNQyxGWEF40xx4EdEyeksdOp0MUqID71H1i6aoS/3GHg/OvFTKEdiYiKejNpPwQX3+MbdvScSSYFsJSUlCSmIraR0gcnKUgRP0BgUF2KXWEPoB14NfVm6/y8F3H5WEFom3goiR0s8GwuiQbIIQoMmBXKw8SzEBhA9snsmt49dPMSCzPHlg/EVOPFGiA32B7I6cyZ0rDIQO3XQN2jZC625bQCiyba55zjQb9K/OfsfhNjsfvP68eIBJD8uEd/Awhf7wX+bwYBMPFnHi3dyvkF2kzn6VXXNaubDd3hPwohYg4BGTD+Eeg56QBpi03YiBO6CwC8atGrVKjQkNR3d+ujpsAMdqIyHH4Xgh7142Kdowde98XoCempmhuxBaPAugth33WYE9OcDxJaVDMTOyi1Bs34JnVMFsd0LIDY7ASNIxhcbAA/4V8MkjKCCU7EoqWo1DDCKCjPRyVPFKDEhlgt+iAc2K+yVHYwnPs9+f35hv8+ePYsSG3Yy7JsVxAbZ2X441SevdUV1r52D9uzZY9kP/HaJwF+X1bCOa9GRlFfQoEGDIgaxQXAHRnp6enAf1+nr75zVwnT+Wv5lKapdu7YhHn66jv1Hml5dzlZjlzWIXaOFvU0D+1kY1LU+yt06GS/bVWODFMj2X9b+2OmG9zPIDmSPbrUCXZ+aYlqf0vEZdNOodaikWLvAB9fmgN7wrtFlbV9ueA4X8+AOC1+PO5y2IvgAFchWUlKyloLYSkplRFmfXol+2nsaL3cevttxfPan2iRKuwI5tu8OVVBJQ+y6FVDHKxP5ORxAYF4OpxD5m7Rgjj2n0PafT7mC0P27V9Vz5OSHKr9EIJoHsXk5RPGiamo6x4lAjkkS8SzEhhx0vAiiW0FwkmPE83GlArHxduqUx97XQ5suNq0HsSBaFkKT+EkMCBb128eB0KUFsa3inZxvkFUVNgHYflRdGxT4kdWzhb+3tIIqHXxeX15+fBx+tAOSdevWRTlbJur9iwq1Y6ZBNujNbzSAHIlKbDKpI6nEBg29epWpHwt0e3N8nBP/eL7MVmKzAJs95sIzgTdScZGpIhssKOCPwAE7iA231tOWKwpiuxeB2OTcw2RkH07ciRZk9EJDO6zWPa9pAYCGCRhBNeI3o7e/bWVoJzA4Jj4FxcbEcCfJyz1+FLG/XConahAvrmJNXMkNdiJwcahatWq+Hzd8ZgFi4+1ZQKlbkzXAKlMx7VRgFdW8eXP0xx/W1cxW1c6sF/zSpUv1qs1oqsZOavs8Bs+iY3NajR2tEJt3xwkZ30Dsew2sRGjZgWwRxAYpkO1e9B0pS0d+jh/nb+6BLxDdlXYdfg7DFQbJzF0mPHuQgpxMdK7IjGZgjCNV2FbjDguxQaR4xU8pkK2kpFSaUhBbSakMKO3vDfBji0YhGOQUZJMczakcOkTWLUX6GmJYkF2+XAw3Bw8ig3gg+I/Ms8Ec8fr6nDx5iEzicY6GVA4biExXjPNyyMaPC4LgRwbwcziB2OR80jkAIsvGG14T6lzwQbQYgvNywMUBY3x5HWKDZEG2FVSV9cV2ArHDES+qhvYbYpO+4YDYALBjAj+iVr72sAli+20doiv49o4miH1nvwGoz8in8HOofCYi4BrUu3fviEzoCAI/bPDPBEHV9drfR6BDhw7p7TTQpqGuPMR+BfUYOL7MQWxyrAW/fWUZX6lRZ/xIftTPmGxd9b/l7RsUxPZJLMQmgtfAyhMbBL7YxBMbBHlINbYOdoJAmu5zsrAYJVbkVxXCfvztz80x3L377rvxunD5Yv/73/9GD72ykluBTUQqicMBseHCFwB63rwHtAD00nAX4BoRQDbQ0eoz8MWCSFZjwwWGWbNmoXXrtCpsUo3NVq7COazdZRbat2+fYf3p06fRJzu0scwpxH7hhRfCemxuBBB71C1Xo5dfftmyX1Lz0F0OLMTudu+ntvM3zJw5k7teQWz3kvHHHvLwHFQSE4fKxxXrF13BHmT2I3ea+o97bhk3D1wkFF3QAPXrUge1bt0az+MxcOBAU3tZBtkZy57xnEpJSen8koLYSkpRLgKfiQAg5+RrfrAwGaPrHHlFurUHtxo7MDIMaRKC2AbgGoTYJIespYgxRxD85hkrE+yqqa0AtEw8yAvEBgHIZiH2iWC8TCU17seB2LKV2CTedE6pHG4gdihHEdp3iAHBwWrs/3vTPcQGyViKiKqxox1ik75OIDQPhIcLYke0CpsqnvxLu6r6hJJ+iUDsK25bjp6a9xletgOSUAm16vvQ+SaV2LSIJUkkqrDh6xe8H2k/bIBSb3z0Dbd/XMXQ69ODc2EAIPaKE+MM61a98X8XFMS2ew8ApPvPluP6cwWxvQk8X71AbBpegwDUnDuw2dQ/qcWtGGhDFXZStVrcCm3QbakpaNkXP2M7ERwXJog9ZswYtPDTfbZ9oRo7HBB77c5T3DGAFoy5Gy2+Ig687iJ8EQ2AMCiSvtggqMbmVWKz76f+19RFx48fN6zLz89HX+4LWTmsnv+ENMiONogNYyBcUFi7f5g0xIaK33fe3W5oq9npFdvK/N9++03YpkC2e8mA7LHPvoeKT2ejfGzVVgPdff3F+L1YqVIlU3/yOsP4mFdwDlUobz/pLeSDyZWXLFmCL3Lx8I4C2UpKSueLFMRWUopysQD6olohSOsWYl9UM5QDQ2gWYgdHBRHE5uaQsPQQ5XAbz+6HXTwLwXk5nEJwono1iae0OJ4GyTQE5+WQ8cX+W+9j3HjQvkNnhPG0LzZ7TuvVLBeM50Nsp5YifkNskMgXm7YNkfHFFvlqy0JsXg6ryR29xHuB2FZe2GGpwmY+pvf2aor279/vT+6goKo699sHDP7Wdp7YMOHcpl9D55u2ESGV2FCFDYpEJTbAI/DYhR+4UJm4Zs0a0zH2qP8GXgaoawexoWp7wPyQNywAbFDOf2/Q113oEBtE3/6tILY3mSd3DNmFpKWlCeNGjRqFPbGxjzUlmLixQ+expv4AdYgHLFQwxsYEq7dPFqFKiXGG1x/Aet4v/8UgJxyTO8IYe99995kgtsgXW8a72qmgcnneJuvJ1eCC2Je/5ONlUTU26JprrtH/VwwePBjFx2sX9iNhpfTKK6+gL774wuSLTV5PeD+88JLZA/3BidfrE3mCyjrEhvcsVGKDZEE2W4ldvcNLhrt4eFIQO3yyGu9AMObR4+XQGxvixxkzZnD7w4U78PcHFRQWBQa98igpWWyPRENsEA9kg10QTPbot8IKsoMQG6RAtpKSEpGC2EpKUS6riRhlIfarTA56IkG2GnvaRsZSJAiy2Z+BbA4ZCG2Vg8gOIovgLC+HCELb5ZCxFHmQmZyxATM5Iy+eBslsPJ1D1hd7FONrTeewgtggni92qG+wIpkC2ZGc3FHWFzvSkzuWJsQWxcuc74hWYTMf8uJgtTPP/sKLeBCb9bbmyWqyQALB33//ffxjz+/JkFixftiXXHIJevX9L4X9CcTmWWaAFUn1zs+i7qNCMIitwgZd6BAbLhp8/GPo81W3yPn8EkohHThrrJp9b8wODLGtJjwjGtRuJare6WkDjLSC2AbFaP6yxM6EVGbD6w+gCD4jYI9RsWJF3efZT8Fnt8oVN5vWsyAbIHaNjq+gAwcO+Lp91iZEJNqeo19TzT7puv4a5ILzRSZXJCqNamzij/3F0gFoyU/aBTfyeYbzSR8nTELJitjSyIDsaPTDJhAb9huqsZ966iludS6RqBr7TIPJttuygtigvLy80j4dZVbt2rWzbB8/trNhrINJHE/WfAAvi0A2/H/T70yIMXtqEwHABs2ePVtfB+9z+Iyz1iLw+SYXqvyUAtlKSkqRlILYSkpRLhZig5yC7Fc5OQjUNFmKlDATPAogNptDxlJEBmJbxcvmKAsQGyTK4cRShD0fWo6SQI4KgviSQHyMY4hN1vsJsUE8kF2akzsSWM1bX1qTO3qB2DVaa56LEanC5gwS4YLYUGF5xxVLddg5e+pfuf0A7hLR1czr0rqjrK8ewcukCvumm27CwCva/bCndTbfury/+vNowcfGak8exF7wde+ogzgPP/xwxCA2nPMv9oQuTiiI7U2H4poanpNKbLijQcZS5Iqm+QawA8r94SNufwLvAHRnbZqCl8HPmYhA2dTUVFSzZk0MseEnTjhuoQeIPWfOHAzJiWpn348fUzo+jboN0vywAWInXvUMvgvETxEbjjmCca9WlrYv/eZqE8vd3+4/qEubFLzM+mLD8x49euh+yjD+gWAs9LuKnRWcQ/C73rFjh6kamxb5fD/UYjZKjDfuE1Tm/+O70WUWYm94tQ7qOb0ZXp7YX5sw1E01th3Ehsr8/3vyaTRhzF+FfRTEdq8pU6bgCxJWgv/3rOe1VUU2/f8Nxr3szY/h5/S4BwK7na+++gpfwDux4wN8p0jjxo3xxf4BAwaY81aqJHWh0akUyFZSUoqUFMRWUioDikQ1Ng2hdYgdY5zcURZCP7f8Yt0D0gpi0zncVnPz9sNpNTebQwSxSTyIzeEEYk9frgG9/p1+4+aQje8XiDdDbGJJIobY05fX1+N5soLY2vb5tg0i3083liIiX+vpK4zbZo/Ba7wVhH5+hfm4Szued85ZiA0AGySC2KfOlNj6LUopghAboNDm30IXFAr2bDL1gQsONVuEflTBcVZKNh8nqWxetUqDxuCHHY7qTVrw1QtAGKnCJiJViSB64jtaj7eZY1oXrRB76dKllu2//PILys3N1SF2Zo1ZjvKz58gOYsOP/Yw/QlYsCmJ7EwuxQfd0uwS1b9/e8eSORKLJOUlfAOV6jqB1CdGwjmvQ/M09MczJ/n4FXhdOX2yAovS2ifrNvV6vIl74TW98B4CfIhBbNBkge3GHCEAYaNfuyvpxfPaZNqcAsWGBfSWWA3YX87xCbvDtvv322/VxDy5qgNgLG0TgMd66sXnywmlbNYgNyv2ym6mdgOzSgthjx45F1113nWUfAjeHd2+M/4d36NBBqj+A7KS209GxY9Z32cBnYlK/9uijjz4S9lEQ2726deuGOnbsKAWyR097DZ06XYwS4rULqiNubo8fDx8+bOoPn0sQfXHmw58HYusQWmSiVrhwxVqLgF0ZKxgXw3GRSoFsJSWlSEhBbCWlMiCvELtT36nonsbGSjeupUhwHYbYwe82CZmbdNAmaynyXBCyAmBzU0lNIHjt2rVNkE/GUsRpPJuD7D+IFw/i5aAhNGybF0+D6P4ciNyAareKJTKD8BBoNsebITQPZLuF2CA7qAoiUGH9x5+i915oZdwGBZt5gLo0ITbo+TBDcNJXNp533nkQO+xWIhYAG+Q3xAYYSftb8yD2gw8+aLDngCpsMpmjlR82C5bDIbARgWoo+EELy6tXrzb1cVKJ/b89RTaTOmov0IKve0UU4swZZQ1Wvv+tCCW3/5cOsX/ctsuyf8aZSYbn5Ae+bCW2gtj+ioXYAEnfWvSjNMTmVWKLXkPyWoNYOMvGhxtiA3wdPXo09sUmFiL0PtG2Ir3bXeT79p1AbLIvIl9sqFq/ufHbuLoTfhJCBTvYDUQCaJ49exatWLFCtzWxqsYe2qsNyt36EBdiH8gsRm/8Pta2Gru0IDb8L7rk+CMozsahCmA8aFDX+qhx7qO2eaG/E4gNWhU4R7xqbAWwvQkgNkgWZMNEjwQiQzU2D2CD4HUjtkmyYiE2iAeyw3GXCmwnvnF374lEUiBbSUkJKYitpFQm5NVSpMOdj6Khl71tWm+yFKGrsb/oiwE2yCnEBolAsJNqbjaW7KOML7ZVPEgGhFvFP8eB0HQ19nRBvBOIbRcP4ueQh9BW1dhuIPa4m4+gI8eMFy5mflBJOOGgyDbEK8R2G4/Pn4UvtWw1dTji3ULsVXOnoN4jnzb099VKRFDMQyD20tHbPSfjrdUtJzgAG8RC7LzAb/iqKaFjBUuRH3+ugpdJFTb86ANAFQmBFQEB5nDrL/yghNt/Qc2aaECB9rgGTW07B7Hf2k4UlKDfjxYbILZxUsfQ2YtmiP3uih3oqoZxlv33pTxv+LGvIHbpCjyxabhCqqTf/vZmqXjwxe47u6VhXR/BBS92EkmR4D1A7DEAyPo1uePmzZv1ZaiShXHin//8J3r6DQ3A0j7OtGS8q52KAF4RxAbxqrHZSmzQd999h60mln+t7ffx//0Hw2W4uBZuwXaIfYldNfbgGxpgiA0SVWOvClZj5wmqsUtrUsdRN2j/n9tcZj2+7TlcjOb/NgDdVmuRVH84ZnhN331/D/r9998t+9Kfn6aJ5gkgFcR2r5f/ehhXR4PgsySjDzbvNTwXjXvs/zg73dmxJr4I9c7GA9haBDR37lx8V8Xdd99t6AsICOwB/VBGRgZ+bN68Oap25V98ySmUAtlKShe8FMRWUooCpT3WADVvHPph3WW4+Ye1XTV22t8b4OXmjRIMOQBgY6PrgIZS1iAgFkKXLxdjyDHlTQ2oiCA2nYNA7D8yzwZzxAdz1LOE2NwcR405QNt/PiXMIYLYg67Zw80hW80Nghz0vuTkF+vtshC7fFyMIceJQA47SxEWYrM5piysp7eLLEXYauxywRwtqBxOLEXsIDb58j6qh/FHPA9iQxV2n3ufdQyxSRsRt5I8CKtlIDYvBw8ik/XRCLHhvNPglTexIyvfqrAt2FBe9lH5PAFVqqiVqRUUOoQnhzNMq8BKJLHRDYbcxA978bBP9fWkChs0JDUd9X4wP2IQG35orn5Rg+hg80GLrsIeMD8EZP7cxlxVCj9Cs795CKXnGyF2j4ETTJNdRhJiP3d3JqqSaA0PAWLfdbsGMb/L+AFVjLfubwexlwz/zHa/+lJV7ReXz7LtryQWC7HHtV2BvZedQOz+b1xvWEfbhdAi/TRvWM0T+0iK0Rv29OnT6JNPPkE33HADtsmAiQrDObnjrFmzDJPw1c4ery8TP+ocyXGwcqIGLPNPFtn2TU6ppS+D/QQPZINvckHOUVQpOdQXJgMkItXYxBcbHmGfAXzBeYyEwLrkv2kXo3mbQv+jSDV2SsenDCB7Yup/0G+7NVBbUPcBUy4yYSuA7B5QjT2Oqcb+pfQhdotLY1GFctZj3ONf9dMh9pUN4wLf26xzA8heOupzZKc7Z4Yq29cunmmqxlYQ271ua7sTXZ9aHX+OZLym4X0/acJ1pgs19OcT1PP5Fii5mvEODxhv6X6sPzZcfPr6668xxAZBVTZ8R2jSpAlas2YNeucd4+9AmMAaLvT5rc8+ni60BfJFCmQrKV3QUhBbSamUBQCbiIDsnPwiU3W1FcQm0BfnCALonLwiNO0Lclu8PcQm8JnOAQKQLVtJbQThFDzebYRCohwsxKbzADwmFeMyvthWOWQtRQjApnMAgI5BpQexSR6Sww3EBhGQTV8cMJ4LfjX30k2NuP3p6pP3/2H81dXnoQJLsMoD2V4gtB8Q+3lOvOjYvULocEJsEJnckci3Kmwf7RRp65HYIGyWTc+rvm3QoAF6fdVP+nOwESEQG0RXYYOgEvuB8dfi5dbtRvl3YBaCH7vJTa7FoBkgNu2HTSakpG1EQDxbFnjtP90ROn9wnACxf/npBylLB3IrP6uhHVZjj2qZHDWPjTWtt7MGAdEQ22l/+tzYQ+zQu6n/vK76sqrEdi+wEuFZaYDA19qtJ7adaIgN/tesiDd1jwknMNABSONkImJZARwfP34844sdgjYEYstKdC7tBBD74MGDpvWk8pa1IuBVY8P4R6AaQGyokI6EPp2tAXaA2GT80y8ExBjBKwgmykxq+7zhnOvH8O0f+DhpiH2k2itS78Pax8cL2+VzTBC2v7N0m75sV11deLoE/fh7sXz/MyVo+o4xaOmoLyz7pXT4pwEqsrYiCmK7F29uANkxcOiUNBQXU4T9sa0++3BBKiE+Dp0+U4ziK8QK7YFArD82aPbs2fgRxkQW/cBz9nujH9r5/QITyF41byrqPXyaadmVFMhWUrpgpSC2klIpi4XYALBBdhAbREA2DWxBF9UMVR2BLQgRC7FBBNzSEBvvS6MEDMJBz1l4MBtAOLMfzRvHB3IUe8vRKN5Q/SyTg83jRw5QvVoEDltZeRhBNg3Cyb5YQWw6x3SmGpyXww5iE93N5GiBcxRxvbO1c2FvHUKLhthQZU3r2ms64y/IGV9vwc+hApuWVTW2jGQqtp3EW1VNR1s8fd5ZkP31lq0mGxGQL1XYPs8HRCB2LAWa/YLYNMAGeJ311SN4ma3CJvrTuMhU59Zq29dQFU5XY4v8sHkQO+QPrp2xuIraD2E/QKJsjjFPvq4/Jz/EwfrETgClwQYFQNuTnZdK9V92eKBpPe/HvwwUVBDbveYtXIT9h0E8iA2yeu/A+wY0ePIcDGXoyWXtJne0EkwsCV7VIOKLHQ5AA5o8ebK+La+ibUhkQDaco6yPrSdRq37jJ2joY3NRUnI1/PzBjh+g1JbaMg2+WPie+d2ysJwvVp/OCVWJz/uKqsburFVjsxAbBN7YIojNnjuwIElNTfU0DjrJAeMg77UD32qiyy8OvNcTrP+7ffdLqBq/cb1YlGRzRwvx0qZl56OsILZ/Aoh9MjcTj2PknAM8BtshmffN8Cn/RmeLSlC16qHPA8SDvzYrmBQSJHuxS8YfO1wXraDi/OKOd5vWr5r3BPWsRIFsJSUlx1IQW0mpFOXU61pUjb3voNgag4bYIFE1tpW9hhX4DXcOuk0WQPuRg5engdTEikaIbVdpLQOxxdsowZDZyhebQGgnEzjSbTIQm/UA5NlXWElBbH8gtsx596UKO0wAG++TRRU2QJtj662hTY2bPkFbt27FHrhzP/zaUH0NMJv1xRaJBt9Fhcds+8uKnlySXpZVvxuuMMEGDWKbK01nT723VCG2CETS+uz1rjqUnv34vY76G86rgtgRlwhiQ6UvqfKVAjiP/RudPVuMqtWsG/iXpl1szv3hI25/sMiwE4HYMx++E3vAQuUhwJRw6N1330X79u1DLy7d4jmXE4gNxwiTZ8pAbPL5hvwFp2N1oC2zP/TEkH6Izuc29+g7uqC9e/ea1hOITbRs3A9o5S93e4LY8F5e+M4u1xAbjg+ge863Dxn63njfBtvj/PjfXYX9eR7v454zXniQGf8IyFYA2714k9sueCtUJS0Lstn3H0z2OGPGDG5/nt+9SCzEhpzVqlVDAwdq/0fhTpVw2QeJIDYRwOwFC+ahdz/f721DQZAdG1MBbXrPAxBXUlIqM1IQW0mplGXndS3TVxpiBz7tQ5vIQWy6jQa/IBH8jWQOKxDOy8MD6m4hNsgeMFtDbJkcMpM3kkpqu2pspxCbbrcC2TCZEJmokQhg6rS/9URTX12D0l9/RK+8hmUQXYldMSvDdwhd2hCb5Ah3PHvx4ONPN+BHUn1tNaHjqTMlhspHaUkC7JkOKjHHTHvNUIFNNlOQm40rhiolxGDg6wRiL/h4j6mNgGmnFcp+QmyRZIE263FNXhC6Whv6vPlNb2lvziFXr0LVOz2Luo8y3va7ePhn6J2tt0jt/91tP9T3Q3aSRVDFA9N1KC2a2ErU33D+FMSOuOjqQ5Bu6TJiI1q15x6UnZ0tlWdQ+5Wo/9zrNRAhCbGXjgz5ZrO+2D/++COu1M3P1yYIfPPNN1G4fuqQcaR379BdFDxfbFmx71l4npd/DlVgKtUBYgNYPba+m2U+GmKTfPTnwc1FKq8idghuBXCapztnNjf1A4gNF/lkNDh1lTBHZmYmHk+7d+/u+MIBC7GT2z2P81kpNzcX1Tjxb7yc1HY6OnbM+n8D/J9cv8v83dmuGhsEkzwqiO1eLMQe3WoFuv7q6ujD3c4mely5LfQaAAh/Z4n2v8kOZNO2IjC5JFu9/d///heNHNZKtwq67777UKtWrdDGjRt1f+xwVWLDHTCb5l2Cl0VjIYDs3sOf0B9dS4FsJaULSgpiKymVsrxAbNKfhdggAmR1iB38pLMQm/SV8YgmclIFHc05nIJwkHyVNB9iO8nhJ8QGmWCvS4gN4JoWC7FBGGTf1wO1b9vGALFZK5FwQGySQzael8MJhC6teF4FPIBrWiKI7aoK20EF9kxJOPLdd9/himmejQh8PSmGH+GBtlG9muL3Xd7O54T5qrR4GIOz5s2bmyA2DbBBMnAdQIQXgJ1bUISSKpn9TGlgXXg2DpUUn0OJ8U7L28X93x3zPXrza2cQm/XeBhAOfthZNhcNqgcvGvRoMA8/Lw2ILYI0bjyGlwzfgB/BN9uwPCK4/Ibc8ro08G1+NILLU/DEh6Ll9YHlLMnl6h21MYO3fNOotVwwVpB7DBWd0wD0qod2oQUZPaXff+Bh3W+ucXLHET0uQy+99JKpPw9is77YkC/9t3tQ4W//Qmkry4V1ksINr9YJbGtwWH2x83MyUUXGLxcgNlTjHjlyBOVbjImVA2PiiRMn0OYD8Xp+ksepTQar02dKUHwF63Hr1Oli7PXLEw2zC08Vo4oJsb5WfvsFsUFvfaNdpIAJQ2GSUCuQDRAboPBjr2qWKOBVTXtiy0DsCvun68syEBs+R2RiS1puxkDsOZ/xd+yhDSLLAEHhWM6f5c8Dy0+5WmbPMXt+yUSbALLdQGycY+TnaPXeIXiZB7JhLORN9Cjyx35v3WEU31CbEJX2x4b3TrhQ0AMPPIBuabJIf84bD32D2CAFspWULhgpiK2kVMqKiKXI54yliGQ1diQtRcINsel2Lzmc2IGQfuGxFCk9iE1EYLYIYtsJALZw3zxC6PMdYvN+GNmdc09WIg4YK9iDzJ76V2mIfdPFc1E/BqJCpXilZK3ykADfPqn1LSE2CEB2nTp10MB+TVD3Uev09U6rsAHMQo4/DVqEoksxUs10xTZvAsTFzASIA+bdYLIzwJ67DiA22Y5TiA2e2LL9yWR1MvIMsR2C68hDbDG4TgnCZ7tleLvIgGuorraC2Kxys4+iBc/+TeqzNuTR11FyNWM+O4htJ2IpEu5JCmu2uRO/b528L61kZSlCqt4/fXsgemvRj7ha99i31qAGIDZA/M9+LtbzQ17aJgMU6Wrs0hY5tydzj6GzwYsvxYGHajVqmV4DchEBKqpBcM6cVGPnBD4Lgy8N+f3XvXY2tqCxEg2x61wzC+3fb223sPTzfSg5pRa3zc04SCaJ7Jd2bVQvj269Al2fWkNqGeD1iln3hZZnBpavFi1Xx8CaXu5051so/aEfpUF2QeDzeu5cCaqcGIfu6dHKk60IiAeyndiKgFhrkXBaiYAGDx5sOzY+PuIG9OQb2vcRBbKVlJRkpSC2klIUKOyWIj5DbFA47UDC5Wl9fvlil6e2EXlfbICo8CMa5AZi0wCbt29l3VIkmiF2OAE2qFfLitJVmHXr1uVC7DjGXgQmQISJGGUhdo/6b6DqnZ/FIJt4YX/9/kA0Y/YmqWOoUaMGzgECOAtQ/VxR4AdpxVBVIeQsH4dQAjVksNXXbiut8wpjArlLqNxy8NpOVj92WdjRo0UCyt853TJf5RaT8Wv4xkrNE/jU6SJUKVmDKTJQevwDk1Gv4KROkYbYa+ZPNZy4nsOe0CB2jDtwHRmI7Q5W08vdg1BaZtktxAZ5nViU936Qff1psBzOSQr9htgFOUdRQrw2fojOMam6hIrLfJvxECA2VGKmdHwKdQtekNMrNwPv85W/DHJcqZxXcA5VKB9rsAQpPF2MQS9Rbn4RrtKm+xQUFqG4wFNyfLJic/shmXGQ7kdsQUDYqkZiXFy785RhHZncUaYSG95PpH+11Bdxxb1df5HyTxxFFRPibL2xiXoP05b9rH4GRQv49mtZ9hxD219vbYuX3YBsArHhYhxvoke4CJhUNQXJKJIQe8KECXhbMmOjcaJHpEC2kpKSrRTEVlKKAoXdUsQlxKbbZCE2L0+02IH4keNC9MW2g9ggni82iGchAroQIHa44kW3p4InNtiHWHlhg2Qh9syHzRPzjbOYBLCXBIRkdU9qunb8FhB7XVp3lPXVI9IQe0gwZ58XW6IkqjoNQPg7390qtV8EYrM2G6Wj8AJsHrQBSPriyxulITapxKa3IQOl07cc0Jdl7ESgv2zVmatKbA/gOpwQO6XjMzh3uGC1zLJ2bNfbntclQauPBZt7orS0NMvzPWrUKGz/kdJBA+REYG3y4iufm/rTQIS+hf5IyiuGfqtWrcLwFm5fl4HYAHVk/KXh7qPJkyfj53ArPtiJAEymPbFBfvpis3ILsdnqUbA8mPdVd2yPYSds+9JpncluoyzLykcfRE+CCfASrElAshAbJpqkt0Gg9JkGk233Dca522otku5vBwr9rMYe03oFui5Y5cxbBnj9n1n3cZdB0WhPwjtOpyCbd3FPs2Z5TPfHBqgrMyayrymA7MOHD9u+9ve2XI7+1FH77gT+2ADNaR08eBBt27YNx8BdKiC7O1UWL14sdefBgAEDDOueeOIJ1LRpUwzKiWpl3Y8feeOR71IgW0npvJaC2EpKUaCIWorEIJSQuUm6kvp8shRxArFhYHTrac32KdO+2BwYTENUUTX26RStaunzd19Eve55EC8TeMoCbO5+KTsRYbyVxyLxxfbqhf3oVbNRhXJmOvp7jRfQvPW/cWOcQuy9e/eix/vutK3CBgGAJlqwugCtPWy0FXiky0eoVdNK+vM+L7dGScnG6qQHO69G7S6P158PmN/Ncjs8gG2ukOZ7XxecKsETUup9ThajeKhetOdFlCTotIMCb/oHNus7y/74BruRBRm9Igqxb06tb+vNeSFBbFlw7Segllm2O6/YWztjCnp7y81S53xw+5X48c5ZLfV1y8buMHldgyaNv06H3TTEFqnX9GYo9ug3tv2efvppfAeHDKwZPnw4Xq7crI/UPriF2FbnOPf4UaR/VGLKoeRq5kpMsLEgEllNkD7FxSWoWo3a+vbJdvMC20msGIfyTxZhWwTTfggqritVDPUFGBwXUxQYM0ODFZms0ssEj17lZDwk4BJAtizEHt55vQl0AsiWhdggANl+QGxyjE7GQvq4o6X62c5KxGQZIlj2E4LbnWeyzx/uHiDtj/3/7J0HnBRF1sBrZmFZ4u6CgAET5kCQHEQ4FUnqeSLJCAhiAAUxYUKMZwQF8RQUFJUspwgq6H1GgmK4UxQjBlQks2wEdvab17M1W1Nd3V3VXT3TM/v+/PjNbE/1qzBhd/7z5tUl7ZeRC6aeFP950Zj1ZNbqXsK2/H1v1ON2MDuLVvxFZn7RnYT/+thxLLARJMhwmdfGYcOGGdeXP9rAMS6KbARBvIASG0ECgt8lRdpdGPtjZcAF5xuXXiW2jhh+lxRxG0NVQDvFcHO7XIzkS2z+j3CZkiK8QJWR2MD81c2JLNXpfNEbodLS2FeXG5x4ruk2Pgt7zzdLhXHrn1Alhie2mW66fePmCKlx8mNCie0mCxsk9vqtZjFStFFc8oOth1vw9VLHNlbtnOrq0vrZXjZ19IZeeU1hvxpfUBQhDeqGSUlZBamXm/ihAUjU7atvkZbYQzu+YVznJfa5bXLJ3r17bc9nN5U8v+tRjl9tVpXYCXMu3G9IszoNGlueYyWlJ5y6lLQ6rr75eNfXSKvjG5iO01jur79nCGM/r8fGGhPUKz6vQZ77rKvp+NIvGpKXPm2RcJyuJ/uY4oGNF0FCQ5Y1wG/cSDdmpG34TGyA3SzS6JMRraq8wZRLEDF3zizSrl07KVFzzAktSZ9hEy36mWR5mwpOUtVPRLKTHtO16WJQMOYZCkdf67cmHuOgIvI/f4w0fm/JvC5e3mUl6T/1xIR4F/c41HGTRvib6oPvYn9XXda7tVT7Vb86fzrq5kM9YEF07gMrZbyX6zozpxe8vYcs3thXWXxDXfml4zd4v747ev2GDcY3E6zWk9awN8r3RMcAEhsyseEbDbwAhzJCr0fjASCrh3V+K9rPaaZ4S8d/Y+oHZLeX14flotfGSjP00vMzjUv4Pd6tWzelWvCBoFJiA2sXPZDq0SAIohGU2AgSEDyXFDko21bagsSmAhvwWtPa7xgPCgSyam1ttzFUa1rbxUiWxLaOYV9S5HCn2z1I7JVv/8coJQIS1U5gI/JYZfLISGyo6wzZcCJJfMMNN5CnFn8U/3lSlwWmNl/9XG5cLvxjiOk22HRRFRWJDeN7Zvm38Z9FclqmTWyNEiU2K6uhznVewwNMx5ODpJl2IbAB9o0u/OUH/8MWiZCijR8T1qx0e8LmkQAvsfkYIths94XxeNYTHDC9hdQbdpGw2bNzK6mX1zj6vjY66YqIqxj0WGFpiOQydUh1H+f7ZW9XOU5FCh/P6riV6HI6bjVeN2ucCmAjyFiGrXN5DrusV5DYgA6Rza6PW9yuKyuti4rLSY2sEKmT2zhjJTa8HkA2ejgcMr4NEgqZX4OKdm8j+8tjrxvQJq9R4gcqtC6ysI9KoLzEzrW3O46rf2XZlsVjvpaaR38bmcriJhubPZefj91xUX8yz3fV1zi357CS2em429cp/sMfP17nvNynVtDHMmxISQEB7+X1ka177bnmtQooshEkI0GJjSABQbakSOcBE0mkYi+57OgXE9tW03IgdjHsJDYbQ7UciI662HwfdjFkS4o43b5nzx4y4izzhkKHcxndCbcxElskUJ0ysUGglu2rIDPvvZJcddVVpH79+sQtMH4v50M900MPVZetQTrfLuPdqRY2YJXlDAK4R5PpZNBTrYQCe1dRBdm0NfYGnpfYbgU2AOVEAFpSxG58OiR2cXEx+d/nzxobPlJYWU1LmbDHivZmkTApJ7UdSogUlkQSNn4EQVkj7Fx6JIa/AtuYW8IbXRins8j1grrE/tKxvZPEjsvhkpBRYoFKuLp1mE23QvYSOxny2io+f1w0Nrtavk7Chm/DH3cjqlTG77Tmbs93C5Q+AebM3SAtscePPc3/r8FzsPcTz5N3XuFpA00R7OOMlbrs/VRSGiG1cxLHVLa3wigvQoEyJDVrhGw3gYydF0ksSQLinDuvNHpejtN5JdHzwtHzmHb0w1ur85L9AQrcl6+P32Dbpj9Xe9xJZqtIbDdzNl5HmRrhMsf5fmRkqxGvNBovL9/ydrsYKmJaZl28yGe2T/a6bukM8ehzQyUunAfP4VCoIr4ZM8Wo5b3mNqOuNsWrxE4pKLIRJONAiY0gAcIpG5sKbPiu12VHJ27OKCOxb38+N0ECVse62OztMtnY1z5ByA0DzDFUMqnHPF5Bbhy4TzkGez4gjmGfjU1vH1O571VeXp5JZNtJbOP2SpE95gmzrLba3BGysNla2LQ8xR2vHKskokHcssD4VUU2GyPdz7eS2CCwATcSG8TunXfeGc/E7n6C+Q3kMcccQ3avG0cuOO9EMmh6q4TbvEhsPhNbRmJbZVjLSOzx48eTGW98Zzoeif4pFGay75KXhe2/vM407CQuldf8cavzhDEY8ZyMDGsVUeJWYlO8yGzZLEoRjnOTKOngBav1H3PKEnJq20Zk2U+XSEtsumFkUHjiptgGvDpFtlPWKxJMZJ+bqrLT67dCZAW2jjb8fFVeb51ktwxOmdz0Ov0gxetrHdU4u3dsJXmNmti2ZR8D4Vqx308F8A0lpt49HY9RW5sQY1PKunXrkl9//TV9JTaAIhtBMgqU2AgSIOwk9j0fXBwX2AAvsY32DiVFQGKDsKJcd16RsJ1djOufSqy95zUGf76OGLIS2y4GK7EBXmTT28dLxLCS0HwM0Vo4x6hZGSPbYgzyEpvGuJZfTxuJDfDZ2HwZEba+Mkhs9jHoBF9TF8bv9XzAbYxUn8+v/+J7ssiQWWcIs7ABth65VS1skL9PL/s2Lkp7n5RjapOTk0OyfrqHLN45JuH4ihlnkcmPfyA9FwpI7McnX2J0ecbFL8ePuy0lAut5YLtBtm0AK4nNI5LYkEUNbzpr1WQzDSPRN4BMJmBZmIRDEVPWtuk8I2ub3fwsVHkesxlkUayGM5tpyG+wVlRaeV4t5rxCmfNgnOXJOw/WhaifJ0KYIc3JawOuTIBV9rlOeW01Pv44e5sOoeTUF4+VzObHZSezZZH5On3srUislEPsvtILO1/I8qWMaPMB6X9mY/L27yOMDwtlJXbDjveZanjr4tZLu5KaX15kOj7p86vj12E9F1Vm58Jmg+3bt5eS2E13jjXq+FK8ZP2z8BnXRaXR2KHEzOk90dfB7Joh0/M94bwSuP8rEjK15c6LGKWRVM8D+Mxw9+dFoucRLeeJMtFlznN6bRBlTdvd/6KYfpQPcWpj14cTbrOz2Y1RZajHftvHZm78Xg1ey43AS2f883eHbxmxr4Ps79qs2o3j57HzfvPm2DcG5v/3H2TLJ/YlkuC1Ed4LTLrz7KR/U0UaFNkIkjGgxEaQAOFUUmTS+wOMy6VP3UjOueph19nYVKCpCGQ2hluB7FcMu3mMEWRSy8Rgy4GIsrHZ28c7xJCV2O5iBE9i0zIiwF2dFxC2vCRIbCBdJXKqz+fXXzYLGyR2nxbizRcPO+ww8jQjiUUSe+fOnaRZyUxhPexm2Tuk50LJzc0lH/8WezPVID+20V7vk63Hx0psUTuZNoBMlpD/WdiZm30NpQ22r3TY/KnnO8Zjetw/Z7vqg33Tz5YNUen/mrufif+sS15Pu2OkUXZBtn8vX1Gn68ACGbkJfQseP/zGW6oy2w5j7SU2/qJrrzPb2pi7RN9jHlxsqoleXLCNLL2+qlyDKMsaNpl83aGNLv6eO5W0bm7+IMdOYsPrswyXtF/ui8RG3KH6nJHBSaTS+1X2OcO+XqiWD7GT5m76Z2N7+fBPtu8///yTPDBnlXQ/gJUcZ8cg27/K/S7LU3ddSbau+JtjO7r2NCMbeG1dA/LS560T5gQsGrM+vhnk4o/CZME3p2oftzZQZCNIRoASG0EChl02NkhsENj/+/o7ctvUVz1LbEA2k1pWQOuIoVOE20lsePGTyYL2KrGNcTiUFHErwmNtqiS0eB5VIlsksY01qRTV4/+V7Ulir3znP6TPJeYyIhSU2Loldk+yfOZtpPfF18c3z6SwWdiAlcS+tN3rZMjsqjdUfU6uTfg/DQoLC0lu+Ttk2aZeCcchE3vo8GnSc6GAxH5i8iXGdbY+tUg+X9Z+GRky63TbNm4kNshqWgObxT+JrWCl01BgQ/bg7H9eJSVxf//99+jvsNeU4jdo2MRSXtOfTSLXon8rOeAlw/rxG8+Xltgq9YlFiOSz7NxFfcvIbDsu7tmCdO7cWVpK6RahsjIQfldNmDLP84aHbpHZbNZKYv/4Z4S8uHl0wlhAZM9afZbyOJat22RcupHY9DbEG0P7nGJk0PslsfnXKP5DKdi0r2PHjlr6Vy0fcnGPQ42+t608nTghEulu6+7T86D/Dh06uJboKn3y63NR92bk+OOPN/4GSoXI1nm/A/BtsAZ5DR3bBQoU2QiS9qDERpCAYSmxo8/Udhd+bFyFLGwAS4q4LymikgXtVBdbthxIMiS2OIY3ic3efttsa4kNHND6gvhmjjdc3MPUdt++fWT69OkpLymSzuezGe+A04aOVGIbpT+eMJf+WPDBr/HrdXNCZP7V/+VaxP7YZ0Uyjbd91S1k/MxmRJVHR2wyorIxBx/1KtlVe7Cp7fXXdZMS3f0eaxH/eWC3w4T9Lvjgl+gcwwllP0QiG1GDzYTeVilSrTw8iNTvv/+eTJnrvPEjj5W89pKJ7YTs1+lpbeJkSGwKK59l5/7tt9+SJ1/9yjGeiii69PTDSbt27VKWXRjPgleU6KrZnLBxYN3aWcrnUa74e0cyefJkU5u6zbsYlyClX17wBWl9VFY8s5HlztWDTMdObLSPHHnkkcprxots+vhloWtl14a2Y7GKlam4kfogsZs2bWp8AOvX84YV2jQrmt6fsiIXyD99JRn7yBLpdXB6fkDfgKpI9vohEjv3gw46yNho22+RDbDZ2SCxgU6dOrmS+F6h/cuK7KA9b5c/d5en8/sOrzwfRTaCpDUosREkYAhLijBCdtIHsZIi9A3OZceYs7HtxC+QTiVFoI3dbVbns+3GPOGtpjVwrccY3upiJ5YE8aWkCCOxjfkqZmNDBjbAZmEP7NKE7Nmzx9R26dKlaS2RU30+K7FBYNtlYZfurSB1GjSOH9+zK/F+r5/f2NRfSfQN17+v+x/Z1ni6VJ1V4Khjjyd9R9xn2xYyxin9Ktsuix7rx5y3Z+dW46UNZHpRaUW81AhL0e5tpDxS9adLeXmE5B/Q1NQONixKWDcaK/rmpSISqaq/y9WR1JuJHczsaxCedqgKEyoWep6QTQq/fsS2bb0TbyCHHHIIefb1da7HbyWzZftf+c1emW4ScBI053doZLze+dW/HSBJ/t7xEKm+S0pKyIc/ZznGU5HZILHhq/cy/b/5+Z/aN24c2edYo86+6tqrbnYHrxmhkP0TFWIWl5STOrXNa+wksYHzm74cfU0jpO0x5vN5ib1i7jQydvQoLRJbJktcps0lfzuMPPnkk5btinZvITm17B9/QYJmTNth9Xpp95iCdQI2b94s/bxxC5+JTSVynTp1yMaNG7W8ZjmVD2HbXdY7VpICXosgCSJZrxts38Bff/2V1NdrmgFPMTaT9bl/9n6nAhuoVatWbB+AFPy+8gKV2HEZ7eJ8FNkIkv6gxEaQAGLKxuYlNvOsFUlsAEuKyElsIBklRbzVxU4Pid1vZNVmjhRRCYtMkNiAbAzdm0vC+qtmYZuQEKZTb+ovJbE///xz8tzKn6Tm4dQtK5B9y5BmJXZWlk8CW9FIJ7l8SNFP9nU+WalmBysVVszoRR6d8h4pXP+Q7Tn1TrrJyEC8eMjx5CyXm+Px8hr6BmT7Hz+2u3Fdpn+Z7ELof8ZznxsSe89X9psD1j/5ZnL9dae5nruob+Cxx9+X6hu+DXPzDWdI9S8js6H/F+duMISM7NzPuKRqM1cvYorO/aV53xpCyu3aq8psS6KvLeUlVb9bw7UakkhZ1Z4BVhIboM85kNi5bR8hP/zwg6nNB98VmI7pyMReObMX6dhltLAdFdTQZu6CH8iUKVOEY6frNvyso4Rt2FjpVI5k5LkdLOfDzl+E6LEE6wi88NI3xuXWrVulHrcy+zlYwWYwQ//Pvxirpx4Oh2PPW4cNTeufZN+/bIY0nTvtf9u2bVJ9w99K7//k/ZckO3eV/r2sPdv3kqlXkt15sc2xa9euTTZt2pTU/mfPWR//efv27VJ97969m6z+LdvT5pO6QZGNIAhKbAQJGJ0HTCSXHPVcwrEEiV25uSOw9F83kkWPtjbFEGVj65DY7G1YUkQcw5+62PYSm22TqrrY7GaOMhIbSNe61Kk+n0pspyxsQCixJQU2ICuxezabSRp1+WdC2Q8RgZDYkv27w8Ub7cpT+rVTL8sigsopK5wENiAjsXmBvX31BDJ7bW8piVyjRg1ySdvXScPODyQIRShDsI0ricGvKJTEuGzCDENeU+Zd/q5xOWuNXP/DOr1pXB/8bI/48UfHnUtq1qypXA4E5r5jza1k8dcDYlmFDv2DkBra8U3SsNP9prk79S3qf97l7xmXsPYyMgzmeFHbpWTwzO4Jt8nW1AapccfTb8fnvnPtbWTZT5dIS+xhnd4i+R3vM+bOykzZutbs3OePiG069so3A41xyfYv2pjRy0ZzPHHhU7ux8SEZO0+r5x/7nBvWt42xnjzsc5tu7Hjny8cYl25FNpXYdoKaYid0QVDDPBdHx/XmL0OF7ZItsU9ouJc0b97cc5xZs2aRunXr2raRFdkLRn5oXC794UIjE/qXX36RetyOH3sa6TlC/MGTymOX9v/a90OkJK7BYVeTj36pYTqcUMZJov8Dd46L9w3ISmS7uavM/8CdYyv7j639r7/+qkUiq/T/6nexuctIZCDryDG2Av/h6842sqpl+m8a7f81hf6t5s5+aDHtlgEkEokkvTRJgogW3MYiaicS2eFQNlm9cJK2MSII4h8osREkYHS8YAK57OgXTcd5kQ0C+5wrHxaKbF0lRZxiyAjkVIrwIEhstk2yJLZTDN0Sm9/MkeW8dnmmfhYtWmRcpqtETvX5UHccEGVhA6IPE+JIOlbY3BFEowyNGzc2JDZfM9tl1wT+KoE/TMIp2NzQm8R2L7CBoEjs8ePHk38tWW3bhhczqhIbHs+jusVKEA2YHqtl/uD1F5J69eqZJDbPAYKa0m4l9oAnq+qox+squ5TYVKTK9f9WyiT20Ojc4WE3yIXEBhqe+TYZfc+M+M+LRq9XltjE6L9KJIMUkRVhRUVF5KZHX4r3Dbz46dlkx+f3Oo5dh8SGeu5Tl/zPth2ftbh7R5WQHnNBe6Ggnv/+L/Hr4wZ3Jn/88YdtG0qHQ2PfJPGajS2TQS3TRrZdMkS2LokNLFiwwPZ2lWxsKpJf+WYA2bVrl9TzZnjnlaTXg8cmHK9XJ4sUFpeT+0afQ5o1ayb1+P12xcWke/vGVRJbsu+FK/4kMz/vntA3nd/9V/cyXrtVRPZbvw41NviVEal07tAnv55QGqVt27YkKytLWiT/3+ZRRhmXLevuIk5A//ULXiAzv+genzc7BrpJJegUFZEtK5GHd14RnftxwrkDUCJEpr417R9E9ju/j5AW+HZzh2/qjDznFOn+8/62gox79N+O7WSxE9nK56PIRpC0AiU2ggQIENgxKkybNlplY8O7Uau2dtnYD74SEybwFVzATUkRiGF1vo4YqiVF7MYA/QzunFjyQLUu9kMeYzxUueZOMewyqR965VCLGHISm54PDOJiyG7u+NASc912oKRRx4SfYxv/3WxqN2TWGWT/z2+nrCRIqiW0jkzst//zrnFdqZSIpGM1NoB8/ANpiX3hKa8al3YSOwU+Whn3AtubvKaks8QG5g5/N2Fqg5/rYWozr7INEbShm8F5kdgJsZksa5k2U2++gGxbIbHRlrD/97i43U3nObVx2/+EU5eSVscnfrDIZ1lP6PoaaXVCbsLDzq3E5vun2dCUNz/ZT2b9N3EepjbrCJn1RaJIFvYveJ5YZWNXzcssqGXayEhsUf8i7MqTiDamNdaEyXgc1e94I0PXqg2Nz2Zju5HYIMj6Tz3RuA5Z1q1btxa2Y+cLglrUTqYN2y7TJDYgK7JB/r1+w7cJxwY+c6pyG9VNGuGxW1paSo4omZBwfMH7EbLo28TnBBXtCf3PMPdPa0zL9g8ll47Zf6dtXFH/bBt2o0TVTSJB3J+cdS8Xu5t57cdvsG3Drr1K/z/++CPp2nBq/Fh+x3tNWeYLRiZuwM22YecOqG7U2LQyG50ySDD3pdzcB1nM3U3/ujeKtBLZQ886xnRs9orv7c9HkY0gaQNKbAQJCKzABuwkdruLPo5fH9D/fJOMpO1lJDaFl6KyAlpnDKvzdcSwk9iAlWBm2z3kMoasxLZvIyexZW8HrCQ2ldROt1vBy2wRqZTYmXD+x+s+Iz0GjkvYtBFgJTaQILJTaJLTQWLzG0Emk4HdDtMSBza3+/g3h9X+c63tzSCxH33pQ9s2DRo2ER6HN7elZeWkbm4Ty3Otamv+7ZgwKfxmMnGi3gnjyP99H7GM7VSz06oNbAq568uHXfcvUzPUrk2fFnXIts+da3L61f85pzQghYWFjveBqH/Zeql2988/2jc0slL96t+pzQWdGhvZkW76t+pL1J+VxF5QmWVdt05WXE6bxlgpnPmYx9XdbJSyUeXPrMTMXthsEGo087CCHQS1KEtcth1tw2an+0X7ZuXGZbJEdsWB4r99ci1eLwt3bSG1c7I81RmmEhVKSvz0009aHr+ysBIbajxDHffq2j+UJ4FvaSSrf+j74p4tjLrmAJS7SXb/7CaVye6fBUuLIEj1AyU2ggQAXmAbJUIeEde6poDIBoFN4YWjTEkRO/lL29rFcCuxrWJYjcFLDNmSIg/ZxLCT2KIYTpLaXQx7Sc23cbod8ENiw9fp6aaDdqDE9i6xRaVEgJI9W0mtmumgjdMZl+trcZquLGyQ2BsKm9q2oRnPVshmSvU6KcfdEoSqFoGOF0pyTHtqDdn+2T2O59PN+QDYzNArINXc9A+lQKyEZDr1T9fSTf+ArjGksv8mTZoYAn375xL9S260ZifNC3ZuSdigW/Sh0HwuGxPgMyJpG8jEdiOxH7/yL5Lf4V7S02Et2flChuxzq3vatpGJBetTWFxBatYgpFZ2SPuGccfW+TN+XZfE7tu3r2Mb1UxTWAddGeMyNZatHr86nkde+of7KxlrYNX/MbX/IEcddVTK+geScR/Y9Z+MNdC1USWPlcjmj0u1Q5GNIIEHJTaCpBiRwIZa14BtSZEPBpCcrVVf+RZJbCCTM6lVRbhdNrasxHZzO9/G+vYK15nWMm2cJLaxVoyoVpXYILABWYkNpGtJj1Sf3/D4HuKa1wx8VjaiA73ymuKnxOa/tu/Ul6gciUgwuZXYLFAyAcYLZUYWfT3AyASWquvc8Q3j+uy1fTyPAYQo1LSe/79/kC2f3OXYnm7MGOu/t7b+X/rsHOm6zlDXumHH+7VIfADqRM9a08tx7Wn/tK40PLZ0PHbd9g/oED/DOq8gs1afJd9/tD0vlHlks9OdcPp2QcGOLUb2drOa6uU5vt0d+z1EJbqohATAlnJYCZt5fnyHqU1+h3viMlw2Fl2jotIwaZCX72mdeFiJDegS2U6wr58y9z1kY7c5uFzb+JwEIvydtvq3bNNtyZDI0D982LLq15qm25LVP5QzEW1SCQIX8FPiQv/wN59oo8Zk9V9WVmaZCe33GPwS2JTls+4ifYfd5f58FNkIkjagxEaQFGInsAFeYgNHWGRB+1VSxE4e+xHD6nyr27zG0FkOxEmE298uJ6nZciBuSoqw5wN2otpKcuuQ2MtmTCC9ep7hSuLSjQ3dZnNTAZyO50MGNvxh3XfEfRkvqbNqH+A9SJqgQ8QBILGB9dtqxAVK0CU2jHXh1V+S1364iOzYsSPpEpsK6YVf9Tc2DZTrX5/EprHmrOtHdv33fsf2VGIb/a/x3j/gRiIDfR5pQQaeenBS+4eNMaGW8wXTTjJ+1vUBECDTf1bzMeSaMz6UltjGOR5ENsQZ1rcNadeuHRk6dKht29mzZ5OjT2hJ+g6baNtu+awqKQNt6c/seTKlebwAbz/Zb2XoJhUSm3/tlF0/OtZkSNzhXVbGPnBg6jDr7N9uDLR/vrZ3staAbhIpqsGtU+BajYFu1DhQ8NpB+9c1hlT3LxoD9D9+7GmmGuA64UU21MaGWtjKNbJD4cojKLIRJIigxEaQFOEksOHw0qfNZUWOsBHIvHScv7q5bWYyH0PUdp5DDCeJDedbxZbNpPYag54vuk22LrbXGOz54hg1mRiHeoohez6gWlJk/mrxGwwqsIEaB7dJuM0pY1gnoegfnuUlW0go+uYxHMqKvlE2Z5yA/LUaU/z8WtHzw6k5H86p7iVByvZVGPOvDiJbl8AGWIktYsHV/yPPf2z/lXhZEaM1E5vbdJHflBHg2+gQ2ABkhrnZmLFhJz2Z0NL9j+DazOxu1EJ2s6EfD5XSFNnNEVPTf6iyTUzEaBtD5xVV/bvY7IxHl8QGLj39cGmJDXjdPC1W6qOc1KwRMu274Cc6N3uEEh08fotsELT9nzgh4ZjMfa9bIvPZrguuEGzSyIhk3aVXnPq3kuh+jcGpf0C3xOVL8FRRIdzMke1f9xjsNor0u//i3dHXzhsSXzsbCvrXxbgBbUnPvueYMrL52tgUvrTIuAFtSM8+5zIiO/b7Zu0i5/0qEARJHiixESQFyArsc0Y9TC47xrqkCC+QrVDJpE7XGG7PB0SZ1KmJYd58USWGSIQ74XbzRhZWYFMgG5sVsckS2SCIS/dWWL7xthPIybidbYeIAXFdXrItfkmPZSq6s7ABWlKEl0IgsZ0YOL1lws/JkNjsWGU35+P7d5vVydboVekf0FUT223/ugQujCEd+9c5BvrhjZfNIb22FwEC6vUfL5aS2ACIbK8SGyjcvZXs2xch+Qc09RxLZa2AorIwaZDrrbwIL0YBXZIYZLUVXiS2rjFalWywejz6LZGD3j8vcAHdItuuf9EYdGVDs2NQ6d+PNdBVYskJyMYG3JYWocIbRTaCBBeU2AiSZGQENgsvsYEjPIrboAnoVMdQFdD+xfAmsd3EcKqLLYOVxKaiVqfAhpgFReWkVnbsq3616zc23a5LQi+featp80QZSe23oH7zxcmk98XjfO0jVbDims3GplI7E0mGxH7p4WHScS66cVbCz/wbzjdmxUoODL/0Is9jzs3NVZbYK+dONa4Pu/RCLev2Z9axSv2vqOw/tgbex6De/7T4z2NHj3K1oZ9oDOnYf59hEw2JrWMMm/Y1kurfqY2X9iJoFuULnzhvKki59pou8Y0vgw7/QZsuweWnxAYuHNRTuu2ld7wWv86XcqEbO1KgZrMO6OsKD9+/aK10jMFL/36OQdS/SODC/gx+90/HIOrfrzHA4+0t4zW0orL/u3ztnx9DEEQ2W3LEbqNH43wU2QgSSFBiI0gSURXYBiH7DR5lxK1KSRE3MbxkQXuNoVNiA24zqVMhsXXEAAF9Re/EN5EyEvu3336LX2/QoIHpdiqxQUTyotkLxQXbSA6zJxErlP0W2Gy7VJLJElskrjM9K9tvid237SFKccbecLNxedaQa43LZEhs2Te2QZDYAIjsPtE3wQeVf6elf5X5x/qfplXgyo6haPcWklMrS3v/MgKZXQPaP6BrDD8U5hlzk7kPVCW27NxEjD5lCTmtXWPywify5XMubf+GsO5v0NCdfc0iEqNAsjZ45GEzUqnI7DVktKnsiZ8CGaBrDiIzFRKbjsHv/u3GAJtpvr/kqZRIbNn+/RoD9F07J6tSZCdfolN0lluywk5k33VlX9KhYwfL243zUWQjSGBBiY0gScKtwAa8SOxNm2Jfkb1hgPwGj1YEtRxIEEqK6BHh6uVAvEhsENggkdyUFHGS2LQutp9lRPhMbx2lPmjMN198jPS++HrL63bH4BLgrzudH7seE9T8JSWTBbaduM7krOygSezln/6e8DP/BpO++WxW03v9WlZiq4pBHf0DKhKZ7R/aJlti8/3rlshFpWHSIM9eJPrZv8z8oT41/SZOKsbgNhub4kbYQGmPSHnsj8QGDZsI2+zZtZVUROzbBAW/sq8pVgIbCILEZtcA5s6O12+BDPDPoWRLbLv5p6L/ZEvsZPVvNwan/pOxBqKx6Ibf6JG/DYDbrdqhyEaQYIISG0GSgBeBnbN1tbDkA5YUMceQPV8UA+tiVyFbTsRJZK985/9In0vGkzfmPGr8DNefnDjK1O6rr74iTy3+SNiHrJRWEdRO7fgsbFFWNj3G3sYeo7Bt2OPm226rPHYf08dtCT9bHTMIyB6QXoYhI67pbZR0l9l+bOoI+CGx5w1/N+H4uBkHexpvy5YtPZ0P/O9/zjW+dfRvV2/7v//9r+sxtGrVyvMa4Bi8969rDFa1iAG/xW264Gf2NQUyncdec4Xl7akU2aJNFm9/sar2sA6B+/hVW8hzq+TLndjh9nmV6jFA/7CB46NTvG++63YML8waY2xgqOP3vKs1uHJL/BsZqRoDK7F17iGhgg6RHS85giIbQQIBSmwE8ZnOAyaSSAVkQbsT2BReNGZKSZGgiPB0LSmSqrrYkMXNZr+JJPYDD08mE596gyybMYH0G/kAmdhmuqnNvv0V5K+DHiPPvvWj6TY76cxv4Eg3kdSR+W1XSiSVZLrABmTEdSZlZevanJAV2ABbokNFYsNGi+u31Yj/XFpWTurmNiErZvQiO1ZPSGhbnSS2FXB/pVreAjiGYIxBRrBUV5mdzHknS2L/9NNPSrHg8bFyZi+y8+M7TLdRka1LYkM8HfN0K5DpnKrrGGj/INKvHjNLyyaJymO4cgvJ7xjrH0jNGP4iA2d0M7K9/disUhY7ka18PopsBEk5KLERxEd4gW1CUmADXiU24EcGc1DKgXiNka4SW0cMtxIboCLbKhObYiWx1/9Sblwu2j5G2A9bf1ql/rVbgiqwY2MTSOwMENjGV5sd6mDbyW32tnSDl9giZMQ2K7EnT51O+gybpEViU9GkW2LrEMhAqiW21zFkirzFMVQhK1iqk8xORvY1j11JESC12djmb57d/mJzbbWgH79qqxFP1zzdClxdAjkdx0D7v21OrG9dAldpDFdWjuHF1IwBBDaQ3/FerSId0CWyaSY2j9OGkCiyESS1oMRGEJ9wJbCBkFlgA1YlRZIpoK1iqJwflBhW5UC8CGgdMUBAqwhsXTFEJUWcBDZgJ7Fhc0eKSGD/sT1CdhbGnghX/HMpOWvkCmF/NMuabhKpKrChfUFRhGTXDBubQtqdy5f80Is34xxUga1rKG7FNS++0wkdNZUBqC1NAYlNN2UEdEhsvpQIgBLb+xgySd7iGGKoyhW2PnGmk0xR75SNrUsY169fXz0be0YvsvOTO023XfeU902wQWADOiU24Ebg0uzyZI+B7z+VY6ASG0imRKYC2xjDi6kaw1/MGKr6DZrIZm+j2LVBkY0gqQclNoL4gG6BTeFF4/zVan+UiaTrvADEUD0/KDEyaT1VHluyEpvWxJ7UZYEwDs3CBvqfeyIZ9FSVROCzrtljbiQ2GzcUDpOKSERpfWTraTudX7w3TOrnHWDZPxXuDeqGSVFp9fj1XDcn9iYABLRVVjZLJmVl+y2xVethW0lsCptRyW6sOOuFl6X7GHbphdoF8siRV5Au3XpYtuOfScN9GMNzL8yVPmf4pUOMSzoGt2VkKCAUVPpnx6BTILtZAwB+fxx55JGex3Dd+FtcrYHOMbgRK4g/2GVjp0piA+xjxGqj2GcVnkuXM49julHsCQ2rNnPXIXCvdXhusWP4fk8eaXNwecLtfo+B7Z9u0squQarGcHx+WUIbHQLXagyi/oMwBr5/XWMAdIps/rhUOxTZCJISUGIjiGb8EtgIEgRYgQ3Y1cUGiQ1lRKbe3N8U54cffiC/vzsi/jMtJyKSxTo2cAQ5Sutnq1ISPbdsH4jlLGmJzY4BpHl58ZaEn0USmx6HX8sgtSxle4ZlYFPYTGodWdlA0GW2XxKblhPRLbEprHhxg0wZFRneWl/q+tx0GIOs3PYiTo+ruzkl8vaNWZOij9OJxmPpxEb7UiqQYQ0AHWNYtm5TRpcGSSeWz7qbjL1mpOm4LoENgMQGVLOxediMfK+PH17e68pCtnt+QeZ73+jzOZVjANgPWv2Q2CpjgPsRakHz6BC4spvIigRyMsdgtQbJGIMdfmRkh0PZZPXCSZ7nhCCIMyixEUQjXgQ2gBIbCTK8wKZYZWPTciJ9Wph3JD/44IPJ7nVjjetsPWxjw8Z9FaRO/cbxnwFZiQ23Q7YziZSTOjmxjR691M+mAjpUq5G9WObGUFBULpTebFY4kggvn+2ysuU3gAxHbwuuUPJDYrvd1BHwW2K/WfnmELKxdQBZhyq8wbw5HZ6yMVS9yWUzgZM1BrZ/YOzoUQkfRiZ7DF3Pv5a0P7gsqWMQrQGgYwyQfYgSOxgEVWIDIvlWuGsLqZ2Tpfz4gXnGqCC9how2yVtd87V6fi3nnk+iMegah8wYTo2+pkDddVEmfrLGAELfSt4WFhb6Mgb+fvB7DKJx8GsAJHsMMlBRLZORbRcDRTaCpAaU2AiiCa8CG3ArsTdt2hS/3qyZWm1pXTHY80Go0D/sVfjtt9/i1/Py8jBGAGOIyoaIJDbNwgZEEhvOOajwX2TffkJe3a0vC5uXzoYU31vhOgub9gvxwuEsUlEhV4YEfrWWFm4zRCviDF/Tmr/OIp+Vvd0Q2HAZ6yN4Ykm3xKZZ2G7jQxyQ4E54ycSGc9lSJF6gX1dWGQcdeyrH4Mc6uOkfgCzoVMhb9jEEmdDJFunsOGANAJTYmYdfIhNg/55SjWn1WPX62gokW2IHZQzs2vl5v8uOIdkS24jNfRCSijHIrIHfY5DBTmSrxECRjSDJByU2gmigSmADgqeUhMAG9v20ghQXFyv1vW/fvoSfQUIkOwZ/vpsYe/easzZAunqJAecDQYihep8ENYasxGY3dRRJbMjqPrjoaVMWttda2LQN/GoLZ2UZQlulBEjp/hpkf/TxXK92SDgWRD+sjOazr+nt6lnZ2ytvi8SzsanUDhJBk9iybwhVRcuKGb2Myx1rJhiX455xvykky/PPjYnGjG3G2rDT/cblWSPfsuw/NoZbK8dwkL4xrK0cQ0e5MexcexvJ73gfuWz4VC1jGNrjB9L6uHpGTIrdGKB/ANqPGfu8Fnk7pXITr/wO91r2nzCGj2+Pt0/mGNj7YdfHd5BXP80l676NfcipYwywoVpeh3viP1utA5IcRNnYOmUmlaUqMe1eZ1WzsVdWPp7//eSVpHuHJiS//d3kmutma5/vC8/F/lbrKXg80zHQzSr9GoMxjlljSM8RgjHMpK8rlWPoEB3Dtf6MQXT/0f6XTL2S9OjYONr/PeTqMbNM7fzMPq5agzsq1yCFY1hbOYaO4jHoGocXiQ2IRDZbToS/zSoGimwESS4osRHEI44C2+qwRYLm7q/+rdR/ECS2rhhBELeZLtO9xrCT2PR2NgsbEEls4NJ2r5Mhs84wrouENf+zjIzmM7dVsrAhi3vPzi1k//5YKRDEX+yktWxWtllqV72wigR20LKydUlsAF5zgyqx513+bsLPuiT25CvM2XaDn+1uOgbiksrrqjHokdiTR8EYEn+hD555mnAMVB5Txj59oJYxTBm1OeFnkNMieTp/xPumY9rGUCmQ42PocK94DCM/MB278+VjtEpsyqAZ3Uxt4H7YVSl5WO54+Wg9EvuqLQk/D3zmVM8xEW/wWblBltiA6uvrgis+Mh27/cWq8iY65vv4VVuNy4HPdA3kGJz61zeGLYYcFon0BVd8aDp225zEMegSyFYyP5ljsHocLxgpGMOLyR2DCqLyIewxmfIiKLIRJLmgxEYQD+gW2IBqNraOLGg/YqSrxM6kGKmQ2Gs/+TRBYANzh70jjE0FNiDKwqa1sfk62VaIRDdmUAcPXkhbCWy1rGzrzOsgZ2WjxPZGMCT2ZtOxVEtsYJBgDGaJHYqOwbl8jNQYAiWxQ5VjuEc4BpFkQYmdufDZ2Loltq5SIhTVbOxkCmTIshZlY1e7MXS425VE1iFv6WuM1WtLqsdwdaslpEcH89/rrMjWMobK1/uBgg8rVbES2SKs6mjHbwuFK4+iyEYQv0CJjSAe6HjBhMpregQ2gCVFEtEhbtNRQAc1hkhiA/DmnwrsqTf3F7a5ZtLTRumH2pyM1pWFrdo2LQhYSW0dw7ES0nZZ2ex1XoKzGzjy4pridFuq0C2x+XrWfkpslVIitIwIJZMlNjxHBgVaYic+i4Mgscf+S9cYtiTMLi8AEjuv/T1pV1KEbhTYd9idqR6Ktvn4JbEBP15ndWVj65orlbeAqkT2YwyqGeHJGoMhcDs24Y5WxCWyToEcG4OFRO4okMhJHINTNrZOiZ3f8V7hBwqqyIhsu4xss8iO/TZCkY0g+kGJjSAu8UNgU7CkSBVYDsT9PPyKIRLZUAN72YwJhsSe2Ga66fYf/4yQFzYONq7b1b2mx/jM64yT0zJkqMC2KxPiLitbPvM6CFnZvJzQWRdbtCnj3OHvSt13g5/rYXv7EzeZP5zauHEjmbzwM9vzqMT+Luue+OsgywMPPEBkmTBhgvB4k+3XVs3DQWJvafSEpzFcd911pE6dOuYx7Lguvs5OEvuvho8LY3tdi6bRMVDEErtKIP9W7yGSnZ2tfQzGOHaOjY1BkCHHS+y/8qd4GsNNN91EsrLM5Z8O3DnOuBw4w1mwbM6fLIytMg5KJklsIB1FtkgAU5GtS2YCrIxeMOojqXMGPt1Vqh3Nxn7yzitMt1370GLTsWtaLyHdOXl6+5zmZMyYMUT0Vt/r8xz+3h8/+bWEY1YC+cwzzyTHH3+8pzHceuutwnnwa2EnsUXzKCkpIVOmmF+DRAwbNowceKD5g0eZMdw250hD3Fq9Znq9P2CfmTuefpsZgzgbG8YwatQo0rBhQ+1j4NciPgbmbgORTQW2KMamTZvInDlzpMbwOPPBqZ8imx4HZMqKxNuhyEYQ30CJjSAu8FNgA0EpKVKzZk2ldQmCxA5KjEyW6SKJTetgiwR2JPp8+OaXctKg3WTy3IqfEm8r3ZaQnS2S2tWSgAlsr0Oyk9T0unpWdpV8diuujduiEyvbG70tOyyd9eZ6HUq3k4LC/aRBvRrxY81qbvcQsYrnXngpoZQIZd7wd6XOd5LYd55ifm5//3uEzN0yWiq+6Hygy3VbpM4HVj3eRHh84upB0vedaBw//xUhQ+6Xux/ee/QAkl3D/Gy46d1BpF6u+zEAna/bKnU+sPpxc6bdxs0RMudPufvj2mOeJHn1zPPwOgbg7s+vljofng+TOs83Hd9ZWEH63iZXCmr+bY3IYU3CpuNexwB0uk5uDH2HJope1SzaIMEK7Pj80kxkw/qXllWQnFpVj++35j6pVWLz2dRGrfV1zuuU1+5u6Q81LvnbYeTIXbcIb7N7fLOPv3MbTCWtjzJ/yNPpWvvHNnufjzvuSVK/jvm1QmYMwGW9W5Pmu8XS024c7Bis5lFQXEGmfHuN4xhgLa5qPo00zjW/VnS61v41r++wicblxT0OJUcVTCAic2K1FvwYrOZRHiGk61jrcbBjqPH9zUqvefzrEZ2H6L1qx2udxwCcE51Hm6PEe8dMEoyDH8NF3ZuRfetvJiccao4hOwa/XmedRHbieKzb8SJ77SL1D0URBBGDEhtBFPFbYAOpKCkSlNraQRDQmRQjeRL7XbJqWjNSQ/A37fqfy2PncRLbKgsbBXaqB+DPkFgxDXjLyg6bNmp0lZXNCexkyKdI9M+uEPyL9v3GrIlk+KUXaYn73Asvkz6CN1Q6JPZFB04jRx1kftP85cZysmTXGKn4VuJWVjZaxYAPye79wlsMFRl/a8vpwtc5r/PQEWN7QQV58sdrpM4f0mQaOeYQ9/IXgA8tVYQOj51Alo1xXu5U0rJ5luvzYQy3tptnvDZ5WQs+JpBuElsksFnSRWbDW1t4WIZDifepm/rVVohKgujOxgaJvX/9Ta6ep5HKx+B5TV4mpxyVJXxrIvP4hjHs/vRGoXiViVFcsI0MbjbXkLRtj3H/PAX5e/TBYVKvtvrzFMZwxbmnkILPbnI9DzoGQBTD6feQ8fdJ9O+Mf0TvD5gDzMXNGEBA74Z5RF/zQoI/zGRE9jmV8zjF5VqAgC74/GZj4/QuJ9Qw3T5JQuhf2qtV9P64mRwVXYdcwQckkxRev+m8dOK0maPM7QCKbATxB5TYCKJAMgQ2JRNKisDLSyZlMKejxPYjBi+xQWD3G3m/MAsbpMrmHZH4z82PO5w8tPpcQ1YXFJWTBnWzSFadJqQiEsFNGDMQKqZZvGVlV0lr/rpyVjYjrlmBnaysbCAZEjth7bmsMFlubzWdhM3vuQMhsUvKKsjDX8uJW6sYKvO4vXV0LRTkQVDX4ry8qaTlke6lko61uPT0w8kRO2/2tBZWErs4uhaPSK7FGdlPkK4nmWVMtZPYsyslts07w3QR2cL5zbqbXH7pYC2xnn1hnuNaRJjX27CLx4KdNAW8ileZ5wiV2A3qhEjzg9yJVzqGVtExiN4SOcUAcQsC2staOMUoKq0gj35jvxZ0Hg0bhMhhjdXXgh2D27WgAhpwI6H7tapHwhsfsI3htBZUYgNN80Lk4EZqawF/0w06ZF7VGI4Wr0VQRTY9zl/ano8iG0G0ghIbQSTpwAhsoZfWKLCBIJQU8SKx6UtLEKSrmxgo0+1jsCIbJPbHTzUTnkezsIH+fz+RDJl1RvznChLLSAWwjAgJZAa2l2FRKQ3wMttKUtPzxFnZiaJalH0da5vYRrjJo4245m9LpoiCr6RvXz1Bqu0Qh/IfwvvEpcS2kq46JPaJbU4S1rGWjbFlV4Scf+tSqa/oW4lblXnc0Xq6MAPu1KtflRoD3McfTv+78DZZaQobNK7/9CvTcch2vO+/kvLXYi1kS5LAPJY9fC7Jres+g9mrxIYxTL/hbKHElo0BdVtfnv+5MIZKZjvg9vkVBOICWwK+fEo6s1AyezpXoQwIBepa18mBx1Uo+rdNQ6VzF45aRebM/dS47jZzlwpooEX0uZ4l+CDSLgaszZy5VXseuBHIXmPAc/yFl76Oy9/Ckgpy6slqHzhBjeoX51WN4cgDw8qvW6yABkC8qnwLBcbw2neDE2KorgXEmDMvcQ8KkYQuLq0gjwgk9EVHLSKhQ8cZmdyUhvVC5PCm8o8teL2cM+/zhGMtjshS+naSIcE/S3zdh/VUWQseP/5ec6qDzZYXsWuDIhtB9IMSG0Ek6GCTgR0SH2ZudEc6lxThX1Z0yN8giNsgyPSgiHAqsVf+513Sb8T9pPtR5ifB9u3byfHhufGfF+1gJRG0DxmPlVAoZJLYy2feSvpG41YbuNeK5TNvMw72HXFvkIblClZE291mn5UdtpXWSlnZCgI7mVnZQNAkNm1vVfJBRv7axQDp2qKds8S2iwH1rF/4Y7TU+ZcdMVeYTeh1HoCMxIYYi0avFwpowOkNOx3DotFfR2N86SlG/wNfFkrs37dFyLO/jXY8f9GYr8ncBV+4KuVRFeMb8r+P/6cs1xLm0fRlVxKbnr/42m8sJbbMOPh46SavAVmBnUnymgIbIvbo2FSq7YCnuyjHj5TuiF+XEdls+/OavBS/riI8aYzF122Ii3CrGPCX2D02MdgxlOytIJ1PkBPINAs9NoYq8drsgDA5IFdOIEOMisoYL7oU4fR5CWU8WGRjVL1ObEgQ4TpiQDmOToL15D9IZH9vn8fNQzYTmn294yV0S8kPOGiMS6O/R6EWOYtMVnjCGOZ+bmqbLiL7nqv7kLbtOwrbY0Y2giQHlNgI4kAHhRIiCX+WabA/UFIkJyfHdHzR3bG/Nlasqtr84ol/1w1MSZGgZkGno8TWEcNOhLOPr8X3xP6AfOujxI3W4LFlJbGzm59lXPZpUVvYd93fHzIuEwV2IiKBDVQbiS14rVg+8/aMENgU91nZ5uxrq+tSWdmK4jqVWdl+QOdRWhYhdXMbO7ajc77sjCOE7Qo+HW8pf2mMwpIQyc1vKIwBr0ELV1tv7MivuyhGOBwms1b+ZHs+jXHhaYcINyyWmUdRaYg0yGtIhp55JBH96fz8Oz97moddDNGHD25jFJWGo/PINzKxc9s+ampXWlpK5n+02dM84IPJ2W9vlJrHkG4Hk+zsbPV5lEXnkZtvlBPJ7zCZRCIR5Rh0DBAjt92jwrZ292vieLKi48kj6QiV2JkoqVNNLBs7JiqdJDYvvOF32uBmsbILdVreT2rVqmU6h3980hi0r3OZ8hONOjo/T0TSnY2R3975eUJjFJaFjOcorYsNNGjzEMnKypKIsb1yDI1MY7CKUV5eTl5897fYdcFrjUwM9ncS/5rJzgOo3eI+4Xs0dh78aw07Bpn7hJ+HUYqjWVUpjlyJ9eR/h8E8BjHzUIlB53EON48GpzxIatQwC3n4XfnCf34Rz4MpKQLUa/2A8HfBzp07yWuf7SYy0L/ZdLJ8VmzDbHZTScqwXseSWW99JxEDRTaC6AQlNoLYoCKwEwjpEUA0G5v9I4kKbBG9xpl/yaeipEgQxa2OGEHJgtYZgz62qMC2oud1OxN+BolNs7ABK4l90EEHkYJ14ywlNhXYZfsqSO36MammOwsbspr7jrjP1XkUev7yZ29LaNP38qrj9LoSFgI71mfqJLZflU2csrJZeR1rZ715o3JWtguBzcK2T1dkZLyoTe+Txc/vN78qsTxfJsauXbvImk21LGMURt905+Y1tI3hNA52DFeefQL5+eefTW1rb3rIJLGt5tG/4wGkqKhIaQxUguiah0oMq3mAxC5tdpPp/N27d5PVv2ULY1BxTAGJ/ddff3max4jex5BNmza5ngdwbptc4e98qxj8PEBilx5qXguruTiNB0FYZLKxeflModITpOu2beZ9Q9jHp1OMvYfZP8btxgkxcts+TLZu3SoVQ3UesOHmR7/UqIyRKLD5GCB+//zzT5sxWNcipzEOPHUa+fXXXy1jWL1esRIaPliA32FuY1itBY1h9xpDJXKuZAyr8+1iFBQUkFW/1pSKcWDXqeS3335Tn0f9qhhNujxOfv/9d8v1lAE+NKqdk5UUkc2WE+HBjGwE8ReU2AhigReBbfOjErzEzm7e07i8vtMy0u74xE//+z7agoT/WhuIkiJBF7fJjOFWhD///PNk28ozbNsc0PMdsn//frJhwwby8MMPu5oHPLYgmzoUDhubK84d9k5Cu5lLtpCVm3uSwp9WJcRYu+6zuMAGrj73RLJxoznzDiT24AFHk7NGrkg4TuU1fCUxr2FVRqgfWdhUYoukNL2dPU5/FolvVlbT61RsK0tsixeHTMvC5nHOyjZL6th5LrOyuTdgbsuJZEJWttPYvQpT1RgiYUpjiMYoigG/s975dr/UGK46R/w6pTKPCzo1JoWFhdIxZOchimF3f3mN4UZi8zGu6HucrQiSWQtZEe7rWihK7EzIvgZ0ZWBjJrc9XiQ2ANLTSUDbxZAV0DRr3GoMVjGo7JSZh5M8lolxQKcp5I8//nCIsV24mWZcQh99u+0HX3avNxDDSUB7iQHj+s935bYxzs+fSvZFmzTq8BjZvNn8zRn2PrWSulRC2wlop3lADMjChix4N0LfiFEf1uJBowSh3XrK4t9Gj5NM2dj0mEhoo8hGEP9AiY0gAnQJbMWbE3j9X7E/WLud2sUQjSvf/o/jOdAW3tCvWfuJ6bgKOmLAH2FrP1mXGKOrfIzE82Mr16vnGcoCee0nnyYc69a1s4t5JDeGjMAGQGJ/8cUXxvXJkycrjCFUOYZOscfWO+8mNhY8ULt16RSLsS5Wz6/Pxdcn3D7/qv+SL8vvMJ3XIuseMuipVqbjvLym+JmF7SSrRRnbrKDWmoVt82KQaomdjP0ladkQQJyVba5r7Sorm3kzw0o01cxrO6mdLshkjqpK7OuvO81UBxpilJaVk7q5TRxjQOmKd38cFg0cAACW6UlEQVQw/0IVrS3UC3/s8fdNbUXZ3KoS22oeohgDOjcxsgZlY3iRrqprAR9qvr1hn+l80TysYqhIbNX1FK0FlBOBr4s7rYXqPFRiwGZlz63q6SlGusHWwWblMxyXldGiWtoossXIimzRbbBBo5OAZvvgY8BzZM7L3zgKaLsYsNHk25uGk19++cV2DHYxQNxCORKnD62cZLqc0Bdnc9ONIp0ENGD5ejHqI/Lat4Nts5edYsgKfScJ7SSx7cZA1wLksUgHSa1F9LXz1ehayAhoq98B/RtOJTktxBKbX09Zkimy1WOgyEYQr6DERhCOTgMmkkgFfDqvV2C7aV4RKU/SrJOhrRAZpt7cX1pg//jjj3GZMuPVtcYlrSudbPgMbsqQWc5zofixmaMoCxuwOkbPYZ8SdrLaVRZ2NRfYLLGsbCqzG3G3VYlsV1nZlW+YjHM5Ua0jK5slHYRWMiW2rGiEP0HfWl8qNQYdEnvMP1qS77//3hRjaKe3yOCZp0nFGNilqfHG2u1a2K2nV4ldVlZG/u/7iOl80Tzmj/yAzFp9ltQ4rGJYlWdR+VDgH+0bkpKSEukYfkjsMW2WkO/3Xmg6XyRQMkFiywpsO6HttBkkyuxEvGRjg0B+9iPz31Kix6dVDJUPnFRluqzEhk00f9xvfp6pxLBaC7UYH0VjnGk6n82Aroohzuge1e94odDn19NKQl/dagnZ2eAaTx/gLbjiI/LcKvM8kh3D6rE1ProWPSXWAo6PG3KqbTa4Cn6/RttlZI8b0Ib07Pt3R9EtEtnhUDZZvXCSL2NGkEwDJTaCMCRLYMucnjyBrXkyKeaTJQ97D4Iklfb/uNG4tJPYeL+mFx3Ov1G6LRXUACuyWSHNHqPtbLOyBdLaTVa2aqmRICMrsUW3zbv8PWH7wc92l4oBonHHmlulYthJbK8x5o0Qy87/fLafPPPZ6VIx5lvEyO94n7TEroqR+Pt20MxuUutpxBj5gXAcg2Z0M50vmscNHV8l7Vs29BRj/sgPhee/taaQPPdlb6kYCyxi5HW4R3o9IRtQxMBnTpVeT5A54hhdpeaRTvACmhfObsqDYFa2M04i2y4DGeStiAFPJ37D0Urcjo8+3zu1buwphtUYdMTIbTdJKNNVYvBj0LOe4ozu4t1bybKbEjf0o28RBz4t95oBGd1W7ytlX3esXrfy2t8t/UGibAy7rPDEGFWT4l+DrcZQBOt547cWa3EqkSVZr89WIluEldBGkY0g7kGJjSCVpEpgi8KlTmAnYYI+g7Iz/QCJjQI7s1CR2AArpOnPvMCm2NbN5uQ0f11XVraT1A4iXiQ2H0M1k9uPGF76SOZc02WcqZ5r0e4tJKdWVuDHKRMjyFhlUFPhbCWwVSS1VaZ3dcdrbWzATszKxnC6nbbx0kcyx5nq9YzFyBJmbFOC8Nols+lhEH6fuN2cMdkfMHotLRLL2j4XRTaCuAAlNoKQ4Ahsg0AJ7GRMWB8oO9OTrdtjX6cUSWyQ240b5ad6iIgibiR26d4IqZvbOP6zlcRmz0momx0iJlHtNitbdZNHURZ30CRXEN6cwu17ivYbHzzUbtDYVYzCXVtJJFJB6tbJcv8muWAnqYjsJ3Vywq5iwG1FpdFzQ+Ukp1bI1YcCxloUR0h2jVD0seM+RkFhufHYs4rhJIdjMfZXxghbztduPeH2wuJyUjM6lzou71e4vbgkQurUdnefAHt274i+sSkntb3er+Ho/epwn9iNI6jYlQAB2UzLh4jKijhhJ6tV6mxnOpkif2mb6iC65eYqzthOnGtyRLeOGOkgy72014VXkR3L3q5AkY0giqDERqo9jgKbWNxU7QR2MhbAPSiw0xtaUoQH79f0REVi81nY9JiTxObbscLauM3HrGyWdMnKtnqT98RN/YXtr31osTCGaE6yMYoLthmydU9ROclr1MRbDGNz2AM8xSgsISQ339160PUE6dkgL99TDC9rqiNG4e5tZN++cpJ/QFNP4yiI3q/53P0qG4PeJ17mYvdtg0tPP5y0a9dOOkZhSSj62GjoKkZQkZHRLFRouwGltRinbOzhZx1FWrduLTyXPsac5K9MDCdxe3GPQ0mHDh0wRpJjOAlkpxgyAvmi7s1Ix44dfY0hI5XtYlxz9zPx617G4Te0hIiX0iIJMULhyqMoshHEDpTYSLUmaAJ72TMTHPv57/rvSKuTjpUK2W9ksnY6Tq3QRtGZ/ogkNt6v6Y2syFYpJSI611Q32yLjOllZ2VbHUomV3Cv4eqmwfXFxMTmw3SBhHH4uVjGABieeIz1GqzgYI71jgPidNm2apxiX9zqaTJ48WSoGZOmHwyFPMXSMI2i4ldE6QKGdiJ3sBAE9ZcoU4XnsY8wuxrCezcnjjz+eVjGsxG+yYjh9MJCsGHYZ3bAvxNwF3zvGsPu7A2K8PP878sQTT/gWg8aRifHAAw+QunXrCmPUaNbJNhlAJkYyXpetRLbrGCiyEcQRlNhItaVKYAMKZUR88rXLnr7JVjovm5EouJ3aJk9g8yRfaKPsTH9QYmceSZHYFllLXrKyrc7VsQFkqlCV2OPHjycz3vhOGEdWYlvFEKEq01ViALJvZOFNcaeuozFGJbBxY59xOz3FSLbEDnoMBLHLxgaJfd999zlKOTthCrI0FAo5ynAnAQ04S1f/YlBp6yXGiJMWk/KDb/QU46qWr5DSpjd4inF16yWkpPF4yRhikb1w1Edk+U+XSMWw28Rx+U8XG9fdiuxkxajbvIvw21IUyMKuWbOm1Dj8xk5ki7Ky5TKyY++nUWQjiBmU2Ei1JLMF9q3R2+8nwcB/oY2iMzPYun1Xws+NG+WlekiIR1QktqtSIhKbq6UiK5slKFnZXiW2USu4LEzCpJzU5mpA+ymxky3CgyKPMYb+GGPaLCH3vVjDW4xTojFeco4Rq60dfZ6EI7a1tZHqi5XsXDhqFXlj4yWesrEhBghCL5nUsjHshLxKjIKi/SS7Zjj6fAknxKEx7r//fluxz8ao0+AA4ThkYuwp3m/U9s/JznI9jsKS/aRGlnUMwG5NEmOEE2S2rMg29hgojURfg4jpQ3RZCQ0xSssixs85tVIXw44FV3wYX48gi2xRWxTZCOIelNhItSMdBDabSQ1SGgAxLRLU7DG4/t/135JbpwSxNqP+BUSBnTnwmdh436Y/MhJblIXNbvBoe66ExAb8zMr2UmokmejIxLaS8EGX2DpiAOlWxgNjJDdGQpxQOPpatjV+HCU2wuM1Gxs2bN1fHiY1axCT+AVksqAhxt79xNho122M4t1bjY1j4fe22xhO61GdYtA4MjHshHr9E84mkbJYjOKyMKmfm7hvw9AzjzQu7UpxQIziPdstP4ijMQArgawjhtPrs44YuvC60aMpBiOy1y5K1TesESR4oMRGqhWuBTbgg8Re9vTNCQLa7rrVMYC/nh54W1CUnJkHFdl432YGbiW211IionaQCcSKcS9Z2Xx7L6VGkiW3VAV0UMSgjhgosTEGZfO6+aROnTqOcew2iJQtKQLvriJlla8bICIqItLjRDIfWg4EcFsbG97Cw6as5ZGQaZNbQKYGMzxOIY6ojrzOGE4ZzEYMWAuLtwa6YgB289EVI2TzFidZMZyg8teptrVMDC91qauTyFYpLYIiG0GsQYmNVCs6XEDLcrgT2CCdgX6jHvQ8lngsC0HNXrcqESKS2emJutBG0Zl5oMTOLGQltttSIryYtmtrJYuTnZUtOpYMkW0lsXufXFvY/s2vSqRjV4cYQRpLdY0BtbW3bNniKQ4I6N9//902Bn2uFJWUG1/nr9OgsesYWTmNY3/eoMBGBDhlY//xxx+W58o85qno3Lx5s/D2N74srlYxaBwdMfbt20e2b9/uOk5Q1oTK37/++ivQMWTi0Bhw3+zYscNVDF04iWx6m2w7FNkIkghKbKTa4FZgL3vmZkNaG1nTGuS1EZMR2JZtHAS2qG1m4Cy0UXJmJiCx8b7NHJwktigLm/3Z9lwF+evU1k1WtlV7N1Kb4pfMtssq9VNQXn/daeSskW9lRAyVNYH6zY89/n7KY9jNJ5NiqMRxEtDsc3fPrq3Gh2ThcGIWtXOMHZUxGhIEscMuG3vhlavJsx+eLjxP9vFuF0M2zooZvckLL633JGwhxtwF33mSrXSTx6BIbD9jyMbRIdOhxvayHy/2JKBpbetUx4DHyMvzv/MUQyd2gnpY7+OEx2e9+a11DBTZCBIHJTZSLfCaga0Tqwxs4P7RZ5Nbp72eILBpjWunbO3MxHwHoOTMXFBiZxZuJLbuUiIqbb1mZbP4lZUNbQoK9xu1R7OZ8/YURUjNmiFh3clUSexMEuEq80GJLR9jeJe3Sf8njk94XKp+a4DGoBQUlRvPqVo1zc8Fu2zuZes2xdsnfJWfKwUCmzt+v+9Cixi/o7xGlLDKxgbx+9jj7wnPCcrz9/rrukdfW9+UinFxj0M9yVZdMWBzxedWnekpxtWtl5CN5RelPAbQp0Ud32KoxLmoezPP2c86YoAMn7W6p+c10YVKaRHMyEYQeVBiIxlPXGDThzrvRW0ysAFd2dcGkXJTCRAWevx/X39LWp54XMIxvp0xxowW2GY+WfJIqoeAIIgCdiLbbSkRo60LMa3aViYTW3dWNnuMh9bYpWTVbkwi0d8pZXu2GUIbKNmbRerWzyUhppimncSed7lYkgx+trvUmmmLMUIsbAfPPE06xq2nLiWtjs81HR+kEAPk8c61t1X+VLWG+R3vlRbhwPyRH5hjr29Inl11kqcYxnxmdFOI8aHpGMxq4IxTpWMsuOJD4fGBz6jE+MgiRlfjkn2MWknoW7q+RtqcZH5e5LW/27hv4PlRsif2HASKyrJIg9w8qbEs+yRMnv+8s/x8Rq0Sz+fpLtIxEASwKykCmdQiBvxL/rF6S9elpG0Lc73s3LaTpAU0/G5bdtMPnmLoms/CURYxnlaJscoihvzzV0eMW7q+TtqebP7QK7fdJOnfN8Z9c+P3nmIkzifxTfGAp7tKx1gwinltZcLQ13mpGA6/K5IVQye42SOC6AclNpLRmAS2LKGqjGmKZ5nNCGwrrGS1VdvqJLABlNgIkl5YSWxR6RCVeti6s7Dt2rrNynba0FFGaieMpzIjlGaJGpfhqmNWG2vZSWy+jZeSJpkUg8bRESMI8wlKDFsqH99FBdvIvn3lJK9RU1dhYs8FQsJhf4aJILqxE9l8m7CHTP9MikFLsXiJEaT5BCWGrnUNyu+cZG+iLWLcwLakZ59zLTdw5MGMbARxBiU2krF4EdiAzhrY8XgSAlumDjZbZqS6gAIbQdIPWYmd6lIiTm29ZmWzuJHaicCbF/mN4pzexMHthcXlpF6dLNdv9GiZEyOD1iKTXCoGZOHWhBgh1zGKSqPnhiIkp5a7GDROcUmE1Kntbi40xp7ofOrX1bGuWZ7WpLCkgtTMCkVjuH8zD3FKyipIbQ/r6ghbuoMr44EgmYqMxFZpZ0dxwTajHFWqY+iaTyatia519RrHqwzXKZ/h93mDPG/j8DoWHVBZzQtqkcQWtWPbo8hGEJTYSIbiWmBHuW/8YHLbY/OM67pEtm6BTdtWF1BgI0h6Yiexk1FKBNBZdiQwWdkK2G0gKSpR4kYcJrxZ1BADyqLUa5CnHIOuPyVcq2FCaRUpom8My0u2epqPH+tavDdM6jfI97wmrh5H3Jq4WlcEQSxRkbFBEqYoojNzTdyK7Ej0dxa889YhsImHOEES2BQrke0mDopspLqDEhvJOLwIbFoHG+h3xYNaNnbky5JQwl/E6nRu+KWUHPv3jy3rZIsQCew3ronVpevzZG/vgw4QKLARJH0RSWyvpURKyyKkbm5jqbZ+Z2y7zcr2IrXdwItM2g/Ndo1EKkuRuMl+ZcqcwG/dsJvfmyHnsiiyJMTwMB9da1I5Klcy3fO6aloT+lYhVqbD5ZogCGKJG2mJ0tV+LKlekyCKdZUY7s+J/q5JoXwOosCm6BDZphgospFqCEpsJKPQJbABQ2KzuHgDaZWBffnxsUzvk4/OSTg+7vXz7ONZZGnH4x3FxVtmHy8dQImNIOmLjMQOeikRmbZesrJFx5yktq6sbATJfNzZf8wzR7zgpYyDm/MzVURnwnyCsCZual0n6xyKLvkchDrYduja6BHgRXY4lE1WL5zkPjCCpAkosZGMwavANklrOyTe3dAMbFY6UwlNpTPAiuzdeyLkrvfOF8ezKTOSEK9SZO8utI6VLqDARpD0xkpiJ2Rhp1hM6yo7oisrm8VJarsFZTaS2aC4RoKDrNDLJHHLjiXVMjsIEjkI80luNrbaOdVFYFOsamG7wRDZIfpNOxTZSPUAJTaSEfglsGl2tq3gFrzrkRXYgCGxK2LSGQDxzAtrWYFtxDsqJx6LxktHUGAjSGbAimxhKZEU1rj2o22ys7IRJN0IumBww80XdSKHHHII2bbyDMe2B/R8h1z7UPXZmLs6UrJnm7FJLYuM1NMhfoHiaP85NdM/gziIYwnKfIIspb2IbK/fNMvE3y9SoMhGqhEosZG0p9OAiSRSsVdbCRGR1JbK1K6U2SKBzcJLZ+DQptkJP7Pi2WmjR6d46SixUWAjSOZgJ7FTnYXtV1udWdl2UhtBgord8yQTZcOlpx9O2rVrhxIbMcFKT8BO7OkQpCw6ZLaucWGGt/6xBFlKuzvH3caQmfg7xRUospFqAkpsJK3RLbD522bPeYks/GCTcky6SaMom3rYcWbpfPiBiRK7/cXrEjZ6tJPYTvFQYiMIkkp4iR2kUiJ+tRW9oRJlaLNtZQQ2ewxBUo3dc6GkYBvJzg5VG5mtKrF///138uBLa1I9bFueuKm/cTl06FDHtrNnz0Yx74CszNaVje0Ud/nse0jfoXe4noNofDIxefnrZhzLZ91Neg8Z7biWLMui5/QbdqftWGTOcVqXN+ZOkzqH76dP5Xxk7/frB7Yjj7ywQukcIJm1rmFdkiHm/fpdoqN+ddJhNnpEkY1kKiixkbTFq8CWqYGtVCu7ojxBXFMBDfDHFj3S0nQ6L55lBDYgI8XTSWSjwEaQzIJKbCMLOyQWuzL4JZtLyyKkbm7jpPSvKysbQfxAVQDoEtWZILNBYp9yyilk29tnSbU/4MwVZNyj/071sG255G+Hkfbt26PE1oyTzNadjW3Xv+ssZIsMb1UhnQ4Z0bIimx1LskS2m3PYDwD8PIdd02QIc697hWQUKLKRDAclNpKW+C2wlTd6pOcIBDbAZ1WrZGPLkCnZ2CiwESTziEtsTlQlWyAHqa2XrGwEUUHlTb1bmaxLVKejhFgxo5dx+eLcDWTr1q1kz1f/dDyn/sm3GJdvfFmc6uHbzKs3mfPy10oSG0CRLQ9fN5tKOyrx2GN+4KfMTslYAlDeQ8dYgl3uI1jngFzvW/lhATxvaudkkbfmTtOSPZ2WWdgsKLKRDAYlNpJ2+FlCxKomtkxckXDmM7OpzHbKxAZUxHMmSGwU2AiSmbASm5XW6SCb/WzrJis7VfRte0jK+l7+6e8p6zuo+C2mUymzY9nd8Pj3T965oddJOSnt/631pUnrCwT27k8nkte+HWRIbEBWZB9/TBE5a+SbqVqmtES0CSSLHyKbzZhm+/fS17JoTBH9bDKz4Rz2dpDi/7f4KdJn8DWWY2HPWTYren3YHfFLipWIfmDcBaRly5ZGlrRThrXbrGoaVyVLWnSOU7/QVrjeDuewc4d1kumH3k7HJ7MmywXj6ytxDm0DY3vwlhFkwpRXpPqB82LXK9JbPusERTaSoaDERtKKuMAGPEpskai+6vx25KlX1inHdMqYZgU2batTPGdCSRGU2AiSmbTtO5wUl4WNkkt1ckIJWcfpIJuT1dYpKztVpFJgA7ok9qTO84XHJ64elNL5UVQlsxvBnKzNsnRkXQdNZh9XdzM54ogjUtZ/MiU2sPDK1YbE3rlzp9J5l3VaSfpPOVa5Pz8zjtMFK5mdrLXRKbNBQsvGofIbxDR73S4jmops/pKHzYgG8coiI7JZ2Ws1FrvzWNHsJH3ZtrKimD8XzpMV5oCMxGbjQzvIeH5vyb+k5sTiJruaFdSysL9/0j6bWgeMyF676IFUjwZBtIASG0kbvAhsPrvaTba1ZVwXAhvQLZ7TORsbBTaCZC4tzhxqyCgAZHb9vEakvGSrUimRILT1Q2CL2ovKrqQSlNju8FsYlxRsrZS88v3I1LDWcQ6dj9M5MqK6vFJ8pFpmZ7rE7n1ybe0x3/yqRKqd3zWg0xHZTSB1Q2WwjvtElxRXFsgCoe1U9kR1A8dkbYpI+3IzvmSdk8x1cHMOK8XdAjIcSFshjiIbyTBQYiNpgdcMbIBmYfPy2q7EiHS8inJxG0ZgG21RYptAgY0gmQ+UFIlEKkg4HDL+mAaJHZQM6FS2tWrPZ2Wnkkwpo3DnKdOFx+/+/GrtY3YjmCmqMjtZ5UJUZbbac2aHo6R2IzJ0kmqJDfgpslMpsSkos80kQ2aD9H3ppZfJRRddaJK/bu4TkUR2ev5aZVKz+F1/O2ii2Iv0TQdhLosO+a1DZE8Ydjrpdlp343paymwU2UgGgRIbCTxuBTYvrXVlX4tix8YWE9lvXBOrBbjh59ibjWPP+zjWVpCxLSOe+Xjjlp0nHFM6lhRBgY0gmc/2XYXGZZ/hVbX4giCQg9DWqb3bcg46SbXE9pqJTdfOSmKfevWr5KyRb/kydrf3nxsJngyZ7d9zxlliU9wIGh2gxHaHqsgGUGab8VNms7WsrURyqrKqRcjIbL+luNfs4EwUxUGYE7/R4+TbR5K2bdt6FtgZA4psJENAiY0EGi8CW5RxrVti8yx+tGrDxhZHVb3x310YIe0vNtfadtrg8de/9lrGu+uDAaZzhx3zkm080Tmp5JPFeu4PBEGCC0jsVas+IvfMfNv4WSTO2JIZvPiyKreRiW1F65PqrOx0lNii9bcqJ3JSuxbkgqknSsdzg5+1pUXn+NXeLzFdtHsLyalVQ6o9Smx/5gYceeSR2mO7kdgUlNlmRHWz/Vibx288n4RCIa0xr31oMRk/qD15dP4nWqX4G/OeTNgIUkZgs21idaGfTNgYUngOs3mkSi3pfoxUhVrSMtLWbd3qZJ3zytI3ybOvrFKqj52s8fGbQwJvRs/TIbJpjW221rZM3e0nburvuW8eeD65AkU2kgGgxEYCi9ca2Cy6Sog4Mfy4KolMpTMIZ+Cu98UCedix1uJZJLFN8Zi/MdNJYqPARpDqAUhsURa21R/1Yx5cTOh751S1BegbBFo7+9n7rpRqC9jFZt94OI3DbVudpFpiuxF3IvlrlYkNEnvQjG6O8XR8iGAXx+5+5efj9Bhg+9HRVtTeqS0vsZ3HUdXeri0vsZP1fKCiNxPrYidbYqveZ7y4RaGtV2aLNke85G+Hkfbt22sfN9zHbD+yMttJTPMfeDi152+XEdmsxGb7dJuNbQcvvyFL2kng8lnNMtL3lku6kH/OWaVlTirj8zIn2fGxG2UCKptQ2qEqsi/q3sy47Nixo5b+WVBkI9UVlNhIYOlwwYTYFc0PUTYjW2d2NiuwKYc1ZQSyosRmBbZsPDshHj8vACIbBTaCVA+MUiIhKCVyT/S1PPYBHJVgBV8vFZ7T4KS/+9L2hhtuIM8s/1aq7fjx48mMN76TamuM48RzlNtKzY+LCzi1lWHFjF5kx5rbqg7YJNzNWn2WdFw/GN55pX0Dbuw0qxrWi5W/V597kvD06a+ttwwNsm3o0KGOY5w9e7Zxec3dz0hsZiguFaLzMcDO2+mxKBNXNI7Lex1NJk+ebBM3UWI7jZmV03ZteYnt9vmwYkZvsnudQ11T5rF1+5yY4E11NvaIbv9nHhxH/ynHJvzsJHz8lNgAL7JvOPFJUqeWefx7SirI5A3XCGNE4K1A2Q5SXFpOwmFCcrKzUGYT/ZnZVO6CxG7Tpg3JysrSOt6NGzeSyQs/E97mJfOeLYkCsJnZKuc5ZXAb58zizhkmc06iUO0zZLTj+B4YdwFp2TLxG7uyWdxez5EZH39O0MbHkso9FajEBlBkI4geUGIjgcQvge0nUgJZQTz/snmv1njxc1IssVFgI0j1YftuWg+78k1fRcSQYEU/rbI8Z81H0+I1ip3aqohpvyS2Stvi4mJyYLtB8Z9l10JGjrPrZgXEKSwJkdz8hmTe5e/bymsg1QL7l19+IZMGfye+UTD2Pg8db1zWrV0ldaig7dOijjDMG18WW/bvh8QGRBnZmSyxLz39cDJt2jTbuFROwwcsnbqO9tyWbc8C5xaVhUn93Dxy42nvkg4n1EpsYPGcCI7Eftf29l73N0/4uWbNsGOmK5XYQDKysf+eO5W0ai6Wo3YbrcJb1qKC7WTfvgjJb3xg/ANMJIauutkgsCl+ZWPLzsPNHHTUd/bzHBxf+ozPiVuGnU5OO627bTkRVmKXlpaS7t27a+ufgiIbqW6gxEYChxeBLcqyXvbMLdHLfxqXLHBMJ24lttW5IlBiIwiSToDEjgvsKOUlWx1Fc52tD5Mpn5wrJYRvueUWMvvtjXFpp0t4+yWx+bZ2Y2aFt1eJLSqvAQLQiUenvOfYxk9AYj8x+VLp9uz8+TknQ2IbbyThTaGDXFOR2PwHGXZtAdVvBbBxncR0LG5MTstI7Nj6NyQLRq0iva/bbhvXb4ltJTAgI1uGMWNnG5epltjjx/awvf2skW8Kj4sydiknNKpKmtizZ4/2Mc98YR7pW5nhCh9o7P70BnWJzT+vJJ5n1RUvMhsyk+c9PyP+c6tWrUh2drb0+TLs27ePjJ/8mu0YICOafcxC3WuZLGl+DYIqR3F8yR+fl/NkgJIiACu0WYFNycvLI8cdd5z2/lFkI9UJlNhIoPAmsMWSmj/O3qYbR4GsWFLEKRs73UqKoMBGkOqDVRa2rmxpaHvBP46QylSeO3cu+ebNwVJyHFj2SH0y5LkeUnI8WcJbJcObYrWJ5sLR1iU0WAKXie2QOZ7f4d6ELH46d5Cdk5/4QHjOuGu7meT//JEfGpd/5U9WktgH7hxHBs441bF9JkhsGTFN2+oW0zKlR/jYNPua/gwsHvut433FAtnYqZbYTpnYQG7buyxltgg2E9sPif176Oj4JoFUYh91cJjUyzE/offuryD//PIa1S4QAW5lNpuJDaQiG5ty5XmtyfR5/1EaPz//6i5vgz6+dFgLK9hNJEWIJDbQvHlz0rhxYy1jYHElskP0w80QCYeyyeqFk9RjIEiSQYmNBAavAtsvMa1C2pQUYc/Ru/m4JSiwEaR64aaUiF/lQYJSDzsZwpu2B3h5zR9zItWbOoLE3lDY1NW5OiT2i+v6Sve3f/9+MqzTCu0SW6WciKi9XxJbZswqstltW7sx12ve1bhkhQUvtFUIwuaOgO4NHv2W2H9kHRfPml501Roy5+VPjOtuSoog6qjUzeYzsYGpU6eScDhMdKOyjwMKVVyLVK+FKr1Prk0aNbL+e2v69OnxD/d0ovK8ioMiG0kzUGIjgUBXDWw7mZ0M0Z02JUUsxuCX0EaBjSDVDzelRFjRDKgI76CXEgH4TR1lMryhXWlZhNTNbSw9Dlr3ml1L1VIiQKaUE4H57vz49spbEn/R5Xe4x1Jiz/mkj21/7BvQoErsEb2PIY899phlW/7x4TwO/yX25nXzSZ06daTaykpsr+VEgHQpKQIEKRP7j/Ax8etwP/yjaexv1DNGvStsz2cTLuc231Ohr0IJikxHVmbzmdgPPfQQqVu3rvbxwPNTViS6qZPtNhM9WX0FfXzpsBbsuUET2VZZ2JRHHnnEl+cVgCIbyXRQYiMpx2sG9tPPPENeW7dDeBvL5xt+Jrc/Ns/3+SQ7G9t1SZH3HUqKaBTaKLERpHphV0oE6gyL+Oqrr0yiWUdbgJUi0P7JO6+wbPvll1+axLRVbLdtZcZBx8zKS5Vx8Nfpz0BalRMZ8p10+0EzupnmystiON637SG+jPfyrm+Tgc+4k9hW963K40DUHiR2y5YtLdsW7d5CcmrViItp53HscGxL27OyWWbMtD2IaajFKxNXpi3AZ1+7KSkSlM0dR0qUFLngX52k44EkHnfNSF8ENrBpb+JjnUrsmifcTQoLC03t4QOMVz5OLFUDY1QV0m7OqQ7YyWxeYAMgsWvXru1LNnaNZp1ITnaWrUyMfXsiRCrK95GsGmECo6iVHXY8Bygo2k9qZIVIOPo/x2GDU3peIXzRoQLOg/YVUuOL91Uj2lc41pftOfCWt2wH2VMcIeFQhGQp9AVrEYmuBYwPPkfNcVgLkJORkm3R8ZVH+4n+TgyHlPqi6w5nOfVVsGMLqVenRtW6w1pk2687XQtY91B03WXXghKkjR5Z7CQ2CGyKHyK7vLyc5Lc4T/1Epj42imwkyKDERlKKW4EtqnMNYEkR+XE4SmwWD0IbBTaCVD/sJLbVBnuHHnqoSUxbtW3atKmxoaNMW4CWjGBFoFV7ti1gF7tZs2YmeSw7ZuDs9odajpluOKgyZrY9L7PpXFTIlHIi/DG/JLZKmYeSgm0kOzuk9Hh0agvwjxuQvH/88YdD26ra1VZlV/i2MmNmZbPMmFmJbTdmVj5AJvXkJ963bUszse0ysmUISjkRQGdJkWRKbLruf8+dSsoOvUnY/s2vSoRj5IU0PcZmarNtUGI7w2fAXtantakNSGzAD9nmKLFDYVK06y9Su1YWKSqpEpyRSIW1uKzc9BPmtscQy2ESNg5VkJxa9n2B7AWKSkH4hoz3p+XlFaRubee+Cov3x2VvRfRY7Vo1pOR3cbSvcGVfsBaAY18lVZIdVI5lX6a1CEUPqfVVVBqdV1ht3Y21qJTsRl+1nO7jzcYcjLWolOy2fXFryEtz1axx3SJbJgubxY/nlqtsbABFNpIGoMRGUobOGtjsz6bbZkR/Hpk8uW1VFsTtBo9OsaziaZXYLApCGwU2glRP+FIiVGIDVuL2wAMPJLNW/mRcLy7YamRayUheAGKrtLUbBy+E7dqyYrokOuZsyTHLiHcdEpvClxLZsfY2IkOmZWLDsYLCcjK4+2HSMVVwIxZ1Ph4B+riBbMvsmiEyrG8bsnXrVtu2sdg7yOLrNpBZq86Uagt/CvRrL36jzo6ZSgKrtvyYIUN05N87OIp32hYyqZ/76AzLtqy8Linbb5I9C69cLX1fBSUTGxh52ru2tzeAzR1HqJUU8Utis+VEKLolNr2Nb5dqkb3MZSmUfkkeM32e8hKbCmwgJyeHZGVlKcWVAcqKhGrli+sDV4pR0BVTb75AOiZ8CwPOKS3cbso696uvot1bDenKYidu3fQViUTIdQ+/QirKdppus+oL+oD5qvYFjHlwkVJflOKCbeSh6weQhg3l5bByX5w0n/3Pq6T7ot/+0b3RI0VVYgMoshFEHpTYSErwJLAtpDQcF6EisMtLtmiZ34hWK03HePF8x1vdpc9zysZWieU0Bl189sYs32IjCBJcTFnYQOWmXsDc4f9XeS3xTWSjzg+YahPPHf6uZT9Dnuvhui2I3O2rJ8R/DjHDGfxsD9P58y4X14Zu2Ol+05it2sZix15zqWhWaWvI5zW3ClqGom1Pi/9ERSfU0c6pFTZlY1/Scg0597T6xIlUC2zAj3Iihbu3kf5dmknHVMFJYovKiFAWXPGR8Hhe+7tNjzGrtsDAZ7om/AyPm12fTBR+AD3w6S7mtusmiuNybYGFo8Q13XPbTTKN2dy2akADnu7MjaM32W0xDr6tEdtCROe2nUTOvORlUyY2vYQSIw+cs5qccqLdJo+JC3f7nCOMy1SLbCeJ/eq6BmTOJyfKBauUQQdHvtc+TpHABi49/XCyZYv4b26RxAashPSg7oeT+e/9IrwdJHKyhbDX/qn4TsW4RfWwWXyrjV37gIS/E1bMrKpVH6rRgDw/ezXp2LEjUdEWYx5cbGQCm+ot2/VVswF5dsYH5MQTTyR5efKbv7IlkVT6qthbQKY/vZacfvrp3vuyqfe/d185ya6ZRV54aT3p0KGDdF8lJSXk5qnLTX3x/Yn6ev7Fr0inTp2U7jO2BJRTX+FaeSRStouU7S0n8xZ8Q5o3b04aN27seh11imzZUiIs8AFF/frOf5upgiIbyURQYiNJx+smjrys1pVlrUtgA8mW2Krx7M7RBUpsBKmeiEqJiLATel7b+9mWbrLoJbbouNUxQKYt256eIyotIkuqS4kAusuJ+D23sTcmfsjQZ+id5M5Tpgvbbm02jTy19GvLsfvz+K0qBSLTNrZ+8l/LVvkKtx9tRe1F8pq9VCUoJUV0lhMxCIXJweXy9cFlsZLYi65aS15YK/6g7LXPdguP22VjW3HDkA7kb73OSZnIdivRUyHfrephs2RnZ5OaNWtq71u0ySM8Rij//uYC8vDDDytJ9Cp5F44+37cl3ObUFzB9+nSiQqw/mb7WMH3FvhX75JNPirPDvfZ15RrCvtt+dcMAl+vo3Bf/YSKd21NPPSXdF2ip3JPOc+5rFNfXBvW+quamV2S7ycKmwDcd4BsPuvlw7WdK7fsOq/wQGUU2ElBQYiNJpdOAiSRSsdezwAZxrbNMiE6BTXESyGu2XyQ876B98vLXaza2XxIbBTaCVF+27y4ifYbfXXWAk9hu6jP7Ibz9HoddfFY2UwpLQiQ3v6GpnawEZ49bXQLzRojrB/MEIRN7eJeVki1jb7IGzUjcVNGqpEoyJDYIbMBKYv/0Z4S8uHm06bjs49Ld41dOYpdXbujVIDdfOrafEhtwG5vN6hNJbCPr+9O7pOcZlExswD4bO3r/tZ2oVFIEYGUehY8juk9E513wVEfLfiDGK+PEmd9W47YS1qKSHawADmI2Nj3GX6ZyzDISG/AjGxuyUBsc3c1SLlOJDZt+qste4pjdK+pLNTNWra81lX3F5KuqWKb90XIYtn1dWdnXhqq+VDfqlO2Limw6LxC2utbRUppXxOZG5bDqOsIHKMCe4lhdbai/LupPFjdZ2Cx+fVCkkpG9fNYkocheu+gB7eNCEDegxEaShleBbYcXoe2HwAZksrGbnznb1Ob/XrxQeJ6bkiKicfhdUgQFNoJUX0BgA04SW1UcF5YQkpuvJzPV7SaHAK17LXOuU7a0mxhO58pIbKhV+dr1X9v2C29XnksbiS0W2Py6sPi1sePyT3833TdWEnvj5giZ82eVxFZ9XEApDFYy19nxifHmN5ns27ePFOW3M64nM7vaqg0gasfeJsrEvuG090jHE2tJjSWYElss9ewkshVQ7qDg00mOsfj7RCSxgfMnizOxAXgM18/NU/qgQkZk90uTkiJs2RBRCZFkjJu9317dkLhXjkhgAyDY/HitscvGpmIZUJGU5eXlJL/FecZ1JynqtS9AVsBe3XoJOb3zQYbspX35Ks2vXEOW/3QR2bt3r6e5yfTFimwqbWvVqkVq1Kjh3AnTl6o0ZwWx6mMk95jTuM0yiSGznV6TRCW1/r1hoGV7GYkNqH7IoLKusqDIRoIMSmwkKejIwKaSOugZ2BQZiS2bjZ0uJUVQYCNI9cYksSUEtigrmULldd2d65TeAOkABJ3xv6m5FrCMcFTNoraKwSKTncvLa4AtgQJ1j2V4dMp7Uu38ZPxY+d9P/OaHdmvlR+1f4Ls9+dE3vqGEvq0k9s+bI+SFSonNSmm75wOFxv9w3n3G5dlnn03KysoMUZBM9u/fbzwvX3/9dePnLudZb6wlKvEhg4zgdIrHimsaiz+Hrelqx5ixs43LIEjs8eN62N4uymaWWU+ZrGo+zuhTlpAenQ52PE8Eny1vx7LZ95J+Q2+3PSbTJtm4rY3tt8S+pvUS8rfOsftNVmIDfmRjAx98/IVpzvTx2HV4bBNlN0IUkMpa5vpSnWusHMa5xnVnab6msq+f48d0ZZpbZWN3vfznhONuyrM4CvpW8Jg60JNYpv2pSPNTL//F9dzqn3C2salk6V74m7WCRCIV0hs+siLbTmADshLbzXrJgiIbyQRQYiO+ExfYgMuNHFlYmc2Tik0c7dBZUiQdNnhEiY0g1RuZUiL8RoNWsvH9l++JZ6L069cv6XOBDY1AYn/wwQfGz3D9b5fclTAXu/Hrkthuyp1Ybe5obA659rb/Z+8+wDQp6sSP18yyCyjskmVdRCRKXIKs5HwIInrqooJ3igkF4fwbEQMIplPvTLDAgZ5gABRUDBhQYZcomEBRQJCTKAi7wAbYwM7859ezNdNvT4eq7qru6re/n+eByW911YSd+U5Nvalvm/yx+d3nTfe/yDmmTp2acaeO2T/gzz5zW7VoyUq1+uSB3B3zviL2/ctHf+CdtOaGYx/7mRH7kSH19YdOnPA5YfL+Pu0tB6i9995bfe9734uevuSSSxqJ2LKDbdGiReod73hH9PThhx+uXvHOz6e+7tOLHht5vwxGUWDJk/9Ua65eHAhM4rQwvR15+PSyZ6KxNXn+pe/4tbKhd2PL3Jv05XcuMHq9+G7oRU8Nqckjnx9rjPyXtW51HSkSv62FS55Rq498zuqPkSxZMVqeL+Rl8ceL3q4u+dc9nHqkyOjLa9iNfcLo++0Ht5tHbInIPr7emERs4WuHtI768bFsj3coc6xIPGT7PlYkHrLL/kLA9KiPKmFZj2cazZNj2c5t7W2PVMPLit9naXTIdrELu8p6mZIzsiVOS6TWxmJ1AiEbISJiwysXATsrTFfdnR1CxBbJkH3//ferWRv/MvXtXB0pYvp2NgjYQLfZHCVSFOu+8/l3qquuuip6/OKLL452JtX97crixYujP+99+9vfPva8nXfeWb3jExdPmJOWPPqjiYgdl7bWSxbOVytXDhXe1gunPeFraY3d8eQ6Rq8X7X5bf+ORf9cf7Zl7Fl8R+wG1pRocHBj9Qc8iYseZ/JLnw2/cR82fP1+d++Pbo6fXWXxr9EsX+RPkOsnnR/R58tx9o6ff8bJto4f6ulLfxuCOFV3svs4bM+0aFj5u/j3h7psMNR6wxR1PTMt9+dT1Nhp/YtXHZDwIDay+buquz4ULetdi8uTRuCz0ej218FG1xpTes2OTbzfhGtIkrmuxwVnsZYJ0CBFbZO0QTz6s87qjcLvXDPWDVXdoqOVFbOErsMmxIj+9ZE5qvP/Hby6JHsovuG2+3sV3nxZF0eRYZeZqGnvTxpJ/z9Zaa63KY/mcm0k0TxvL1/nYaWOVnZvpWEkSsl1H7DJzMCUh+7JLvqFmv+7fx4I2IRttQcSGN752YOuXVTlSpI6AfcSLNsncUR0Xj9gSsLW0kJ0mhCNFCNgATI4S0cdapO3Ijnvn7H3UnMuuix5/9uK7a99hKj9oPfXUU9HD4Rn7jT1fIt1WW22l3vuFH6a+XTzSx4/wSHudInm3kfX6WtZ52KZHiYhj33JWPYud44Kvnmj8uoce94voY06+3ZAupx+m8RuxJewNjb0/5px6XOrr3nXXXerM7/+x8BcP+n32rLVHPw5l97P8YucVr3jFWAyQ40Tk41X+FL1O8iOEROx580aPnpHHL7/8cvXqV7967HN26ZLro4eHvm10F29exDaN10Wvk/Y2RRHb9DgRIUeKhBCxL/jfk4xeT++glveXRGv5U/nkL1tM1lDE1/3LH3i1OvbYY82u9YIL1H989rtO5p23qzlrJ3be29Ulb/ysa67rui874WbriG0bkk2lnY09ug4fV7tuP/5XBa7CcjSXxHh6B3zZ2Ct/GbPhLrONY29ybr6OFYnG+trIWDv0nlXv66iPK752hjriTaf2rKOv87H1eLvusLXzuZn8exPtCN/jOZkhu2zELjMHm7le8bXTR95H+RFbELIREiI2vKgSsE13WOvI/afb71Yf/PxlxrdfV8DWikK2jtjxgC1c7sb2eaQIARuAMD1KJBmwf/WN0Tuz1ZFuwYIF0VES+occOaLAxx3c5JGzfmVnq0TCK664Ioo/jz76qLryyiujlx999NFjP2AuXTIa2+VM5qKd5lXu1NH09fPu1PGSt14z9vpFPx43fZyI+MLbH7F6fTlOJIteg59ecIZ6yxuO9nK9+jgRTc65fs3ez019XbmDrav+urIwYn/nuNE/U77qobf0vN7LX/5y9cMfjv4yRY4TWbJkibcfdLPoiP22t71t7Hk77bST+uMf/zj29MGb/G/08Khz94weZkVs17uv094u66EE7Cd/97HodXM/L1a98MNf3yyIiF3mOJEiNr9AkIgtTEK2RGzhImTnRWqtqV3NRdeddxRKkn7dJnZjFwVszdfXnNM/+Vl10L8cOuGOLkXZkC1fczfYefRj1ij2egrLaeNVnZsezyT2SsSOxoqF7LI7282iuZ+wnD63M1bNrZmQnXWsSJWALWx3sJuSf8Ovu/kPPc87IiNkv/s1u6l/OfzlhGwEgYgN58oGbB2ls3Zcx19edid2HQE7ukaLiC0kZLuK2OIz3xsff/Gzt4geFoXs+Ntk0bcVR8QGUOYoEf3w4jfPjV4+75+jdwo3a9YsdfPNN4+9new6rdvSpUujH3glpkuw1iTQrffICWruI+8Ye94Bzzk3evi6r+5vFLHrOA87K2Lb8LVb2cZDg+bxzWR9xJWXzPEWsfXxJ7LTdZ31R49ROGyH9DAgMeSnf3qq5xcb4++zBSMPR39g/k7sTqO03y1+j3ryySfVQTO+Gj193H8/O4rJNn+C7orE3Es+Nmns6V89+OaxcB2XF7FdnX2dJ+1OHctG8W2e/XAQEdvl50faOhW97N8P3FTtvvvutUdsUbQbO+t1QgzZWbG9aGe5a/Hd2KYRW76O+fgLkLW22Fv99OI5qWeE17kbW/gYzySa245nNbeUkO1393e9IXvWzttFmxE0249T2yNT4iRk//zeN0YbIbSqETsa29NfPlx70++jhxKv9a5s/TBJn6FNyEbTiNhwytUO7LSn9fO0EM/Ajq7rRb0xOC1ii3hAvvSW/VJfp+yRIskgLfHZRcTWtxVHxAZQ5igR/XDh44/2vO4H/n0/9dlvjO4YnvbU7VFIrps+D1uObhjc9MDoGuW6hL62uGE1qNZa9bNFSBFbix9N8XjGHTuOGv8B9t3nbVzbemcx3Ym97qyPRzvhk+uRnL9eG1+BPi0qZkXsNdZYQ13+28cTEXs0Xq9c9YP6pGiXcO9xIvJt+7e+9a3oCJF11hmN5vK4RFUfO7WKyOfK3Llzo8flzk+//e1vq3322Udtuumm0fNMjhMpOh+7SrxO3k5azBayG3vhqt3YhX+mMOI/5tj/Ysg1053YWXfKqNchSd8J5+KnV458XZvU8zrysitOvid6XIKnacQWErJfuPWSnmspy2ZXcxt3Yyfjdd27sU0jtrj00ku9XM+JHz9/QshuOixPmjQp+tptO5bRDum651bzsSLR3GIh23Z3sXw/tu6O/1o6msv7Td5/rueWJnk+touILeRORuXff9fkl4tXxO7kURyRcz62iEL2gP4rSUI26kXEhjNVz8D2qamArZnsxk6G7HvuuUe9bs97Jr7d9OLd2GlB+nV73ZP7Nllvl8RubABJNkeJxM951ruwn3foaOiSnSuy20Sfp/uSl7zE6uxEF+TbIjmaQX7Auvbaa6PnSSD8+9//rm699VZ1xBFHqGnTRu9Q7aFfjX/dlp3YyfkmmYRpeZ3FTw+oaeuahbvkESVZdxQovv3Wa3JuqbfctSlia8njRBYufkatsfokNWXyQE/gDyFiS4C+5Lp/rHp/DYzFa70DW2LhlMmD6rvvuiN6+qoHx48TkR3Ya8z8rvrJT34SPS3HicjObP1xWSd9h5L6LxYkasb/kkLvyn71F7eJHqaF67LnY9tIO0pk6bKV0ceHPH3Z8b+2ur02RWyRPFJk0VPPqCmrDajVp0yauMYDg2ro6cfUU0tXKjnJKVqj1cdf58Rdvq8O2HM0dj722GPR884777zCazjuuOPUW/adq2afPcvJ/MvstG46Ype9hrp2Y7/2Bd9VUzZ7t1XEPumkk9R+++1n/Pqm5N/dnV+8b+pu7BftuE30b7QoEye1MiG7Dbu/zc+Q7g3ZtmFZXn+dHV5hsft7uCcut/F87Kzxkl6z2WVq8vP/n7OALd73vvep7bbbzssvrON/JaODdlbIlpfLd4zJkD04MEXdeOnpCvCNiA1nZs0+ZfSRwD6kmg7YwjZiS8AWZSO2KBOyiyK2/JAsJj1317Hn/fybX1Abrr+OjyUF0AISsOWb2cMsz8MWyaNEttlmG3XnnXeOv7yBo0Ti52HHjxKZOXOmWvfh4zOPEknONU3Ry4TNTu3k6yd3Hz+98FE1ZcpgqeNEkuQsaZ++c/lP1FcuucJqDTKtusO6RU88NvL+XKnW3eA50fNWPv1o7Kzp6/Qrj73ZOruf0bOjO22Nv3Pc9ROGS75dz7xSXl97zXl7rxpnwYSIrS1ZOF+tXNn7+fS597w6OqNd/1XAWotui/5cWsK4zZ+DuyB3YCYh4r4Vo2d/n/yG/dWOO+6o/u39vXcMOnXd3jsozYvYrnZfp42XtRNcVBnzJxnnGrvy0mM/4ibsr/rcyLut8R8NB5Q8Ft0nQeJruj564oknnrAa/o17/tJ7xE5qy5EiSd/4+oXqkqvuyn07X+J3xFfkAx/4QHQMmI+kkLYbe3QtxsPy+9///mh8GzrYlQnLLsczieYf+tCH1C677FLL3MRXvvIVq1+IWs0tEc0lyr74xS+2Xsuyu79djWfzNdjmc6mIXL940YteZPWLG1NbbLvT2HEi4ubrr1Gz9t4vNWb3hG5CNmpGxIYTBOziHcxFIVtHbB2wtbSQnfanrkYRO35bAxPfrkzEFuzEBrprwaqjRA7LOUpEmJzP/I6XbavO/fHt0ePTFt0SBbm6v02RKCf/yTEmT669c8+1Scg+/pP5P5DY3qmji3idNnb88eSRLSaeveag1XWZXnv89uKRvWgd4hH98GNPnfDynmA/kIhuq57uvcPE4hhdNWLL23/3P+5ImY2ch72++tqN26x6vYnHiGjJ40TEN7/5zeivFDbccDwM77nnnmq99darPWLL2fHyJ84//vGPo8/Vhx56SF199dXqmGOOGXud5JEioq6InYy1efF64ePlvmdca83VKl9v0Rroa122YliteGbl+Buu+vJ43Q/Hd0Lv8/Ljsq/1Wav1fg85ZT01mPIhI192xz6UBtIjtrjwxkOs5ikRe+qup3o9UsTX27mSd8eUybOwmzoKxTS8ScAW8tdLBxxwgPPrkK8pJ33iKz1/CZC8TonKcn8A8ktwU+/+78vHHjcNlHpNZLytt97aajesHs9mV298PImWNt8LZY2XNdYjv/tOtKtaxhJlxrM5Q1rPLR5lbch4ZdbS5Xh1h2x97doee+zh5ftjCdla3vnYgpCNphCxURkB2+wsadPd2CYRu/SRIhm3lfc2mg7Y4prrvqoevbr3h6QtX/57RysKoE0kYpvuwhbx85nn33jK2FEisgNagpi+851DDjlk7FiROskP43L2oj5KRK7p3nvvVTfddFP0dDzO6eNE9E5s08Bc9LpZio4ayRojyXRMVzu55TqWLB1QU9fJv245QmPFM+nfS1z/g3PGHk+L2Cbr6itii1d/+YW5ax0/NmTidfXuwF4Z+2E56ziR1bb/tvrFL8bv6+LLX/6y2mCDDWqP2PJ5K38OHv+rheSPFskjRURRsHV5DnbR8yb+kmf8+k0DtT5Husx1L3nyn2rN1SeOk3abWaH9uh/0Hudx2OtOML/ukc/xrEgYujK7ses6msP2uuM+9s5XREfzuNhFXvZsbZPwpiO2qHM39pVfOSx6uOPMY6PwKsdE3Hfffca3KXeqqw0ti8XJVZef/NxJjie7YP/5T/OfM3vGM4ivMt7Ou75Fvec974melvsekF+uuxivaG5i/vz5yoYez2hu568ab+djx8LsggXmRyPljZc11sxd3xxFehlP3nfyl0ym5Fib6/4+qfQdPWpVQ3YyYgvbXeWmbO6Ad2LIHv0ehJANn4jYqMRlwP5J7E4b415qeQeOWl0R+3lTzP7hfcm2v5vwPOvd0/rtqhwpknF7pgFb++7He/+MiYgNdM+EXdgiI2ILHUXFd074U/RQHyWy/0bnjD0u5M5roj9jr1H8POy3v/3tPS/bcsst1SaL3pd6nMhRc3aIHi5+Wqlp66bH03h8lqdP3/Pbqddwxh9OmPC8D888W03KWIr46+u1PnWXs1Nf9++PDKmvP3TihDib9fr6tuOvb3otRfP8+8Mj1/KPE3uu2+W1nHbja1N3vde5E3v8dhaop5YNjvxo94xac/XBCSE77RiRuGRk/fz7X6MeeeQR9Zmvz4uelqM6lv3tSrXRRhvVHrHlFz7yQ/7CZ28XPS3HiQh9bVryOJE4m4id9fGx8Klh9cU73zn29kJuI+v1P3bj6yaM8bbnn6Wmrzdo/PpZt/3kyLV8adW1mLy+fGwn53zcyLVsnHEtaV8jMq9lyci1/LX3Wt5w0PPVZo+fbHzbIcs7FztrR3PW2zV53VfkHEfjYjd22lrEx0xbn12337LwduMRW36hJX8R4oOE7OQvWvRfA1z+l1dHgVdCr6l45BU9IXtE2i91Ljv+ZvXDO4+Kvj8oG3nHxiuIr5cdP/pL88tvnx09rDKeSViOjyf/huiz7k0sXLhQXX/veNw1Gu8do/dB8P2R8WQXfdlfQJis5aXvuHHV3I6KHspfDj388MPe1jLLP39/afTvZVlpEVv4CtlbbDtz1WPjjcd8RzYhG34RsVFalYD9k/NPKTXmS98W5r3ePnflHUavVxSys0KytyNFVrnkxs0zrzktYAsiNoCio0SEyZ0ZXnfJJ6MjEmQ31X9/+7fR8+Q4kbrJDxhyHrb8UJU8SmTbbUf/O/TNnzS/vZQ7XZSY/e6dLlKbbJAeqO5b/3Pqgl/+X8/bZ4XgZKAqith/+r+V6vtPnDT2uvpONovCscltyzEHn7ntnRPmbXotphHb5Frk/r4+cesJqevfRMQePY97PApMWnODns+VtGNExsZ7+w3Rw+ceePXY8+QXPAceeKCaPn36WLSWXZByvEjdEVuCjkSM664bPWNcvmeQo0Vmz56tJk+eHD3vkWv+RU3b7WM9x4n03MbI/JcsXanWXmfDsaezwsBHdz5bZU1Rx+AlywbV2tNG76sj62PklGteM2GX879OO1PttPmk3NuOv/4pO81RkyelX4xEb6FfPy8c/9/DQ+rC/zum55iTVz7nW2pmzrUkvXfbOerZa2Rcy69f1xPl8q7lwflD6vy7jmnNzuysqPuf731tdDa7FlrEzroGk+uqshs7vhZ5EVu/vChkxyO2kN3jPqRF7Hfu/H114F4zoohtG3nf/a79eo60iXbZrpnYZZsWzYclhtqNJ3/NdfL7D+kZzyYsX3nvG9T9999vPN5b9rlazT6nN2zajPfTe14fHQtlPt5VI+PtkTtecqwTZn5fHbTn9Chiyy8gZPOAqXf/x349/5aY7JCOh2zbXd/J8cqG7LQ7mjSVFbCFrJ+PO1YVyR3ZRUeLjL2MkA3PiNgopUzAToZrkyCdFruL3q6uHdhxvndjZ6l6R40mTCP20Rf8i/rN9z5TeTwA7WFylIhIRuzkUSLyrYiEMLkzIXl8//3393Lv60Xkh82lS5dG52FfccUVUaCTHa8rbzsq2oEtRyboSJg8SiRv3qY7n4dG/kl9YIPeiG2yszo+rm04/sD2c9QaU9Ljl004fnjBkDrv3vGd1UWBPO1ajt7oLLXVjPzdpyaBPBnU0yJ21vvK9GW25ONavmUalAOIU84YHh1v4vcS+jiRqx9669jzDnruV9TKrb6h5s0b3+38pS99KTpOpO6/XpDPEdkBGf/LhZ122kn98Y9/HL/eGfo4kfQf4E2O/NDetfUcNe3Z2R+v8bfNi7Wyc/vztx7dM75txD5q/TPVtpuavb5cywueODn122Z53um/fp1xxJYoHV13LLK9YuTa814/+brbbjqopqxmFr1Dl3d2dN7RIU2H7CZ2Y6fdXt712EZs+UW0HL/lmvxy+ao/z8/cjV1G8g5Gk7uxReF4mT8GT3xBUVhO+5qnw3Kp+VmOZz7WxLlNlV9SvtUuLF92/K9z1i9/9OQvRU3Csg7ZZRx1bu9fGNQdsvMitpDvS21/kWNCdqHrO8iMO+JN6Ue6EbJRFyI2rNkE7DLhuuh28m6jiYCtmYTsuiO27e0lZQVsTYfsW/8+Wf3n3AOI2ECHmBwlIuJHiGjxo0TkGBH9uPaNb3wjOme3bvo8bPnvhBPGA67s6Fv/n+M7niVoJ48SicuK11pWfP3HgiG1Yqv/No7YEoKP/9yPo13Apruf468vr3vayOum/Wu+cuRd+eCGdkH9307/Uc9t5801LWK/+4Vz1Nprpoe1fU74wdhtL122Uj172ka5R0u89H0/nHAteRF7zqmj9/Nw7LHHKhMXXHCB1bmRIz/GqaGhlWpwUP7dHLJ4u4nmnPIaddttt6lzfvSXsectv+cX3iK2hOqemcTGkB8jJGKvnL7P2POOP3K7nmuzHi8jYsv5pv910kvVHtumf21IC8fPX3By4c5teX05F/bs9x6RGbGTu6Ul+HzzopuNore+7enrD6oNpxXv3JbXnzPy+llResXKYfXJ3xw9Fthknk/+7n25O7cl0Mnr69tevkKp3bcxi96hy4rWWY+nvV0I1+777fKOV8l7m6yQnQzYQr5W2O50NbqO3z4QPUx+XMrH88Lfn1HmJiNFITtr93emnKg9dbfTSoTe8hE7OZ7Nbmxz4xNOhmyz8X5tsHbpZp+bv/s7bbxLo2NMyqWvopBteqyIbcguCtjCx+ecOPE9H8wM1tnzI2TDPyI2rJgG7Hh0vuSy76uv/9zsuA2T2xNpIbvJgC1c7cauGrGr3F5cUcAWU7Y4rOdpIjbQHVHEHvne9LA3ZR8lUkSOERFylIg498e3Rw99HCUiP1wnj1qIPx0/D1v+PHPK5v8y9jI5TkR2h8+YMfrD637HfDR3rKIdvFnx9a4Hh9TS5cMT4m5eCH7t7JnqdV/Zb+x1T9lxjpqcscMyLRxn3faCRcNq8Wb/VTqol4nYeWdcb/+indRrz9/H6LYfeXxIvfrDPyqM2PL0oiUr1eqTB9T5nxg969wkYkvAFnYRu5xLVx0nMj1xnMjee++tNt1007GgLMeJrL/++tGdVrmkA3bW546O2HpXuHzu3HnnnVFQ33jjjUffH9eMfi4dlYgOmWNmRGwJHt+86DfGu6VlZ/WMDQbV+lOLd27r0CwhOO073GdWKvWJm8dDs03E1tcidjIIzSft8n113z0PqBdsPKimPqt4t/TbDt9a/fOGkzIj9vJnhtWnfnt0T8QWNju9Q5a1EzsZrvN2bIdy7fHnx7m6g8e0uJ93frhtxLY5S9nq2ldFbOFyN/bUXU/tDa9ldmPnSXwxmbrbqTWE5XFVjhXxMV7W13WTtUsd71z7Y0wO3HO63SCrTNvt9AlHYtURsositvz1g81xM6b0HVrKteqQHX88f36EbPhFxIYx24D9q+t/q/77gl84G1/f7q1/+J065ewre17WdMAW/XSkiEnAFsmILQjZQDcsWLhkPGALw4idPEpEyD3Fy3m+8i3Jy172siiQuf72RG4v77xgfR62RLtrr702ep58LZQ7HLr11lujp4855pjooT5KZL09PlV4hnIakyitb++k7S9RG0zNjtLJcJx12xLhbr/PPGLLzuojjpipXnv+vqV3ef/79LOiEJf1+slrydoVLh8KO+xuHrFl1+y/n1EQsaNzqsfvMNFmJ3YTEfuqxHEiTz//q+rGG8f/PFqOE/ERsUXR5478sHvcccf1PE+OELnqwTePPS6yjhNJygoBRbulk+FYYsyF37xZ7bKleWje+nmDao3JxdFbQvP99zyQeS1PLxtWn/n90WO3LUd4yK2aRGyT0Hzy3NlqzTVWi15foto3vnWT2nz6YOZfMsSj9ytWBfWs246C/W/auxtbPy3iAfvyn/xCnf+deblvV7f3vW6WOvCwlxdG6qL5VV07fVtZ53Snhew6I/Zhhx1m9HpvOuXcscfXevbEv9hYvOSZCc+but5GPU9/6f2vMr4uuTPLt330K6njpY1Vdbz4HNd6Vsr8nuodMzmWy/GSY4Uwnt7dfuZH36pMyXjyu+Dkrnhf473rc9+LHpqG7KKI7WsXdvwOLV2G7JsuC/P+zdAuRGwYKQrY111c7k+5brjhBrXDTrsUHjOSd5yITcC+8fJzjV83zfXXX6/e97lvVLqt+36+p/rFDROv2eVubLmtQ46/vdJcNdndJW6+udxOB1mzgw46yMm1ZJGdX67InVMdfPDBlW539dVXr3Wueryy16vnXGUdXc8561ri47i43rK3IZHzkEMO8TbXrNt3db1VP7YlYIsyEfvaiyee+ynXp++dXgJhlY8nuVO5JAnjIhni4t8Cxc/D1rFayPm+6z48ftTJjEOunXD7Mw8bPQ94WA2qaevmB2w5akHuIDLN1ecdoN5zzsRfIv7hD3+Y8Dy59rnnHzghBH/5A69Ove0HH3xQ/fWK1xvfvlxL2h0vZt1+1rXb3H7WbcvH6/u/9OPUj52027777rvVl79364RrT0Zs+ZiV5333P+5QD6/zebXLLrtMuK2ZM2dOeJ6O2Bs/8V61zu6n9/wiI+0aTex79Ecqvb04/PDDjY/h+dGPfjTheUceeWSpceUvGGQ32BNrja6VfIzHP4eSc4zLep9n/YJAQvOLjv5h9JcRSd/5znfUly6eO+HOGg96+9zMMZIRe91ZX1BvfvObJ7yufJylvf5+b/ll5pqfeMb50cP468u1pH2cydfAD37h4gmh+eC8a18VvZOvn3b7e79q9Hik+Ovv9KpLo18epl57yh3pjV1rysdo2vu2jI+//RB1wAEHWN++aYyu+vlZ5TbS5pG3li52YxfdfpWzsSViJ395JT71qU+VXp+kD33oQxOel/Y1P05/7Si6s8bT33ZQ6s8nRbdvOt7HT5ydevtPL7mu5+nrbng6+ssV2/HS3rd7v3LV5/mqrznyC7Gk87/6e7XvvvsWjpP6deSVvXcqm/yFY9p4F37jNvXiF794wvPTbl+vvf5amzRhvPNTxvvmbWqrrbYa+1ku7fbT1tRmvBtuWmZ1+2njiayQLd/DpDn33N72MGXKFPXwww8bjWlD3l9p8zMR/xpHyIYvRGwU8hmwxV577WX9dh84c/TPeXTArhqnTUiMFRKxy44ntyF/Amz7Nh/72McmPP8Xv3C3y71ozrbX7GLOyW/8XIbqPFWDrrz9PvvsY/12adGun+cc/2VB2+ZbVpPv43jErhLCTX7wiUsLD1UCQBodqLW0iF3FRRddFIXs7bffPno6b0dqWZ/85OixKms+8NnMEFz19uW604KAK58/fpqXa9fkY8n1x05IXETsqiRip8VtV55efF3059i+5njyySerX/zpcfX7n5zn5fblfSSh45Pvek1qaK1KQrOObK7XKLr2WPTOisVVbj/J5RzSbt/1HEyv4YzjDlYHHnhgrWPG+VjXeDCf6ngfRjJq77nnnk7XL/mLRkkb8TuW9THGF77wBacbdNJ+War/AswVOdbp8ttnR4/PmTNHffGLX3Q6B/2xFD+O5Dn7uftZNRnoRdYvIqqOEXf9988ucUvp4u/nqdsdqd7zmt2ijRNlg3Ga5OdbmSD9q1/9KnpIyEaoiNjItcdRp6mh4eVBBWwhEbvOgC2qBt0yMVe/XTJi1xmw656zHreJiC1xU5SJ0PHbaFvQrTrnsuO2NWKXibmud1aXueYmIra8zYfOHt+lKkeJrLmW3W0U3f5nPtN7hJGPiC2OPvro6KHriH3NNdeMHV/y4Q9/2OltaxKx5WiUz372s15uX+bw24uPJGJXnJ9oco7yNeKXv/ylt9t/eN4h0ZEiLqNA3BlnnKF+/oeHvd1+HRFbSGj28XEQj+Q+ArDJLmOXt19mDnPnzi097yYi9sLYP9eyO9rH2DKv+O5r12P4jtgiGYEl0PoM5a4jdnIMuX3hcox4xP7c5z6nzjvvPOdzkI8lOXf6oL2eq/78zCnO5yCR2WfE1mNoZ5w4+pdCLiNzMmR/7K0HOr19Ef+c07vgmwrZ737NbuqQw18xfgQJIRsOELGRKdSALXTEblPALvP28ZCsQ3YdAdvVnMtGexH/pqQtQbdswNbi3yjUGe2bmnPd83U1Z1cRu86ALWT8unefJyO266ght3/aaaeNPX3VVVd5mcPmy0Z3MKcdJVIVEdvMXq88Xt3w/XO83b7MYb/99vN2+0X0D3yfeMe/pB6VUQf5iwPXOxiTc/Q5v09/+tPq29c+qG75yVlebl8HFF87gOOR1ndkriNi+97t3cRObAm8oq6IrcfVO6V/d8PVzsdPrquPUB6PahKxXc8hHgYlYLu+/eQYPiLzjjvuOHZHvfr2XY/xP//zP9FDHbFd3358N7aO2K7H0F+HJWD7uH09htARW/gI2Z///Oe93L7Qn3Pxo1zKhOwq1zX2lx5fG21GhGy4QsRGqrGALVI+RMoGbCExukrA1mxvo6wmj9SIk4jdloDtas7yTUlbAnbVcUXVs7jbNucmI3adc9aBUrg4l7rs+FUidtlwL3xH7BNPPHHsadd/fqvnsPvuu0fHwfg4SqRfIvaWz5yqnnvQXC+3L55efK3TXfxpc+h6xN55553VLbfc4u32H5l3iLpDfdTb/OSs2UPf+jNva6jfR0Rss9sXviO26zGKXH311WOP170bW+/E9jF2fJe5j/n5jthCh0EdsV2PoW8/HpiFj2NFfEVsseWWW44FbB9j6I8l35H54yfN9jaHXQ4/Tv3X+1474fmuQ3Y8Yru+faF3U1cZg5CNEBGxMUEbAraoI2KHEnOrXgNzztfkMSJxdZ7T3PQubD1f0aY5V4m5ouqRHmWvWY/djxH7pJNOGnvadYDTc9AfL22N2DKGHBMhxy34un3fEdv3cSJEbKV222039bvf/c7b7T9yzSHqjmEidtHt+xqjzsjsKzC7GKPKkSJNROz4nH1FZt8RW0jI1gHbxxhpEdvHGD4jdh1jbL311hPuIND1HNL+Ks71buxkxHY9hosA3PQYabdfZgwvIXtgcNVLCdmwR8RGDwL2uJBibtXrKDN2E+dgNzFn0cQxIvFxtSYiNnP2r8mIHR/bNkK7GltHbB/nYWv/7//9v+ih6wCnxxg9TmRAzTjkGufrJPF0ixWj3+DPONjP7YstV3xUPffgec5vX4/x4E3/oY5+v79dvERs/2bNmhX9mbmv8X0fJ1LHGHL7PncA13H7wndk1rfvegzft2+iqZAdD8w+xvY9hu+ILSQA+4zYwneg9X37/TJG1vFxhOzi2y8zBiEbISFiYwwBe1xTMTc5dtVrKDt2l+Ycyi7sqtfAnP3Pu+oubNGViB0fV0dsH7uwtY985CNq3jz3gVbGkG+TZO187MIWEk8/fM6V3gKtjti+x/B5+4KI7Z8Epv/8z//0Or58nhKxm7190U8Ru8wYbdyNnQzMrsevI5TH187HGGm373qMfgjAdYxRR2SuY53aEpnrmIPvkD04MEXdeOnpzuaN/kXERiS0gN20pmJum+fcxnk3daRG05rahd3mObdRMqDff//90cNjjjnG+nbq3sUNdMVFF10UPTznR3+JHkqAffDBB6PHbT9XAZgpE7H15+r06dPHnvePf/xj7Hl13tkjADShTMhOfp8jCNmogogNrwG7jVzE3Lbp4pxFF8NmF+fc1XmnRWyiGBAWIjbQHvL5SsQGADvytTMescXEkD36F4+EbBQhYndcUcAWXYrYXYy5Lo5OaaMuRs2uzruLcxZEbCB8RGygPYjYAFBO/E5qNQnZUcQWhGwYImJ3GAG7VxcDdlfn7eIYkTbqaszt4ryTAVsQsYHwELGBdomfuxyP2IKQDQDZFi4dGo/WqxCyYYuI3VEE7F5dDLldnncXo2bXw33X5p0WsTnXGggPERtoFyI2AJTHjmxURcTuqFmzTxl9hIDd2eM0CNjdCZrMu3vzJmID7RE/K5KIDYRNR+xkwNYI2QCQj5CNKojYHUTAHtf1gN21eXd1Vy7z7ta80wK2IGIDYSJiA+0iIZuIDQDlEbJRFhG7YwjYvbq6G7mr8+7qrlzm3a15swsbaBciNtAuRGwAqI6QjTKI2B1CwO7V1ZDb1Xl3NWh2dTdyV+ctiNhAuxCxgXbJi9iCkA0AZmxC9k2Xfbrpy0UAiNgdQcDu1dWQ29V5dzlodj3ed23eHCUCtA8RG2gffaesRGwAqCYZsiViC0I20hCxO4CA3aurIber52CLrgbNrs67y3NnFzbQPkRsoH3k8zYtYGuEbAAwR8iGKSJ2nyNg9+pyyO1qvO9qzOzy3Ls6b0HEBtonHrGPP3K7secTsYGwybEiWYjYAGCHkA0TROw+RsDuRcDu3rw5RqR78+7y3DlKBGgnIjbQTkRsAHAn63xsQciGRsTuUwTsiboacrs6b9HVmEm87968BbuwgXYiYgPtlBexBSEbAOwsXDqU+bIoZEcRWxCyu4qI3YcI2BN1NeR2efd5l2Mmc+/e3NmFDbQXERtoL3ZjA4BbaTuyexCyO42I3Wf2OOo0NTS8nIAd09WA3fW5dzVmsgu7m3MnYgPtlRaxZ8yYofbff/+mLw1AAXZjA4B7hGxkIWL3kbGALVLerQTsbuny3LsasJl7d+fOUSJAexGxgXZjNzYAuEfIRhoidp/Y46hT1dDwitEnCNiRLkfcLs+9y7txmXs3584ubKDdiNhAuxGxAcAPm5A9ODBF3Xjp6U1fMjwjYveB0YAd34E90PPyLgds0bWQ2+W5iy7vxmXu3Zw7u7CBdiNiA+3GkSIA4I9ZyB5tYITs/kfEbrmJATtpoHMRu+sRl13Y3QyZXd6J3OW5CyI20G5EbKD92I0NAP4QsqERsVusOGDLLuyPG99emQ+FgYEB67fxrc6IK2OFFIubCNihrEHXQ2aTAV/GbnLNQ/jlhYTkJsIxR4kA7UfEBtqP3djoF1dddZU66KCDmr4MYAJCNgQRu6VCCNg33nhj9HYhBEyt7ogbSsCNz73u+dc5Xp6mQmYIAbXpayBihxWxCdjdcM0116j99tuv6cuAA0RsoD+wGxv9QCK2IGQjRIRsELFbyHXAHr0Zuw8DHbBFCAFTNBGwtabXoKlrCSViN70LuamxQ7iGpuff9PhCh2QiNupExO4fRGygPxCx0Q+I2AgdIbvbiNgtE0LAvuGGGyY8r+mI2WTA7uL8Q1qDJo8RCeEIk6YjbtNr0PT8RVMRm6NEuo2I3T+I2P1v7ty56oADDmj6MuAZR4qg7XTA1gjZCBUhu7uI2C3iI2D/4Q9/sHr9p556KvX5TUbcqruQ274GLgK2izVoOmJXjZi2a7BkyZKep5sMuK7Gt12D5Dr0w1EuZdZg8eLF0cMQIjYBu71sP/YWLVpExO4TROz+JgFbTJs2zertdtlll6YvHSWwGxttlozY6667rvVt8LULdSFkdxMRuyV8BGzhKuCKtHgyNDTkdV1cHKPhag2S8/c9d1fz97UGdczfZcSsGrFFPCi1bf4u1qDt8y+zBkJHbKGjUx3zJ2L3lzIRW3Z21vGxBr+I2P1rcHBwLAoRsbuB3dhoE/kaFffLX/5ywuvYhmy+dqFOhOzuIWK3xKzZHxx9pMGALfIitth9992jh7/5zW9q2Zkbyi7kJubv8hxs12tQx/yb3oWcFrHFrFmz1M033+x9V7KPYzxcrIHMf8qUKV7n7mv+ZdYgHrDFHnvsoSZPnux9/hwl0n/KROw999yzlo83+JUWscUxxxzT9KWhIr0LWxCxu4GIjbZZsWJF9DDre0siNkJWGLFFLGTfdNmnm75kVETEbgEfAVu4DJdJ/RqwTdehLfMvuw5Fa1DH/EPbhRxXx7EaIexCzlqDts6/zBokI7aoIySzC7v/lInYgiNF2o+I3d84TqR7OFIEbZI8QiSJiI3QEbK7hYgduKKALU44cttSP+j4itg+A6b8oCee//znjz3v3nvvLf2Dno81aNP8y6xB0TrUMf9NN9107Hn33Xdf9LDqD/ttCLh6/vE1cDV/V2vQ5vmXWYM6I7aE6/vvvz96/HnPe15t48K/Ml+HORO7fxCx+xsRu3vYjY22yQvZRGy0ASG7O4jYATMJ2CKkndg+A6beeSzRVuiQG8pRIk3Nv+6I3dQa6J23OlrGI2bdAVvUHbF9zr/sOtQdsWUNfM6/zBokI7bPkEzE7l9E7G5Li9gE7P5BxO4mdmOjbbJCNnfuiLYwOx87eiT6PyG7nYjYgTIN2NdedEb0cGBgwHqMtsRLET//uYsR29f8Xa+Bz4+BrIjbxHnYoomAmzb/rkTsOuZfZg1CidgE7HYjYncbEbu/EbG7id3YaBsiNvoBIbv/EbEDZBuw0xRF7TYdIREPuEJHXFH3DtwQ1iAesUM6D7uOgC1CiNhN7cL2Nf8ya5C2Dk1EfNfjVonYvgO2IGL3JyJ2t6VF7BkzZqj999+/6UuDA0TsbiJio41chWy+fqFJhOz+RsQOjIuAnZQWtNsYb+OqHqFRZg3y1qHuNXAx/7LrkLYGdQVsrelzkJvahR2fu5CQ24WIXUfEL7sORGy4QMTutqyILQjZ/UFCNhG7ezhSBG2UFrKJ2GgbQnb/ImIHxDRgC5uIHaeDdhsidlbAdjVmG3Yg+4z4ZdYgax2aiNhNHiHRxA7k5PxFV9cgHrKb3IUt6ojYOmALHbGFDtkE7PYjYnfbt771LXXuj2+PHn/Hy7aNvlcjYveXMhFbEILajd3YaCMiNvoFIbs/EbEDUUfAjrvlllusXj+kgOtqzNB3IPuO+GXWIG0d6g7Ygojtdv4hr0FdEb/MGggdsevYha0ld2MTsduPiN1tyYgtNtlkk+ghEbs/ELG7i93YaKNkyOZcbLSVWcgejdiDA1PUjZee3vQlowAROwChB2wRSsB1OWZbI3ZIa9BEwBZN776NB9y6A7YILWL3w070MmsgiNhwwfZjj4DdX4jY/Y+I3V3sxkZbxUM2ERttRsjuL0Tshu1x1KlqaHj56BMOz8HO42IXNjuQ278GZdYhhIjd9BnIoumI7WPMECN2nRG/zBo0EbBFPGITsPsDEbvbiNj9j4jdXURstFXV3dh8/UJICNn9g4jdIJuALUKJ2L7C5Zw5c6KHO++8c+brhBKx+2ENyqxDHWtw1lln5a7BWmutlbs+vtegjnhb9xpUWYcm1kAi9nbbbdf4GviO2GeeeWbqHOMRWz4W+CGh/YjY3TVv3jz1wAMPELE7oMz3nnx9b7+iiD116lS12267NX2ZQKoqu7H5+oWQFEZsQchuBSJ2Q2wDtgghYu+1115jdw7pig63WogR23e8bWINqqyDjzXQ0dJkDZo8TsRnvG3LGvhcB5M1kH+21l577b6O2BKws9YgGbEFPyi0GxG7m2R3rnxPlRex5Wud2HXXXZu+XFRExO6es88+W2277ba5ryMRWyNmI0Q6ZBOx0VZGAVsjZAePiN2AMgFbNH0etgTspCpBOxlu47LiVNMR23W8LbMGEq1mzpxZ+xr4WodktCyav14DVwEzlIidtg6hroFeh6bWQP7ZkpDrejd2mYjtOmDH43XWGuiILQjZ/YGI3T06YAuTiC0I2e1W5kgRvq63lwRsYROxNWI2QkLERttZRWxByA4aEbtmZQO2VjVkl92FnRaw05hE7bxwq/neidx0xG7jGuh1cLUGWfHaZA2ajtgu423eOhRF7KLX8bUGrtfBZg30P1k6YrtagzLr4DJip8XrrDXQ8xdE7P5AxO4OCZmabcQWhOz2ImJ3hw7YIi9ipwVsjZCNkEjI5s4d0VbWEVsQsoNFxK5R1YAtmojYpgE7KRm0TcJtnK/d2E3GW5s1KAqYVXdjlwn5dQZskzVoIuC6irdV10CHy6J1avsaxOcW/+cqHrFdrEGZdXD1jXlewM6aW1rEdnlNqFdTH3uoV1rAFjYRWyNmtw8RuxviAVuccMIJmedi50VsjZiNEBCx0VZPL75OHfq2n5V7Y0J2kIjYNXERsH954WvU6pN3qHQddUZsLfnNXBH9D+Tzn//8zNepElObOJPQNuAXrUFbI7ZpuBXrrbee2nTTTTNf7mInchMfC6GtQZl1cBGxTdZB5i/0GiT/uXIZspv4WCiK12L99dePQnVSPGLL4/GdXvzA0D5E7P4XD9hCR+wHH3ww+tpmG7EFIbt9+Fzvf/GfeyRgi6yI/Y9//ENts802RrdLzEbTyoRsvoahaQ/POzh6OG2308vFbEJ2cIjYNagasCVeP3r128ee3uTQ65uekpGy8VrzFbHrVDZem6yBq7Ox62AbbuOyIu59993n/EzkENcgL2LrNRD9tg7JNUj7p0qHXNc7sn0ziddCArbIi9ha8s+V+aEBCIcErORfp8nTErBFXsTWr/PCF74w9bYJ2UA44j/7rLPOOj0vmz59+oTXl4itmcRsQjYA2Hl43iGrHhv9WbJUzI6F7Jsu+3TTU+o8IrZnVQJ2Ml5rIUds23At8n6j29aQXTVem8z/3nvvVcccc0zTU81VJV5rdexEbusaxCN2v6xD2hqkRex4xG3LGgjT3ddJyZCdjNiCkA2ERe++zAvYwiRiC0I2EK68gC2KIrZgVzYAuDMesONKxmxCdjCI2B6VDdhZ8VoLMWK7jtda2yK2q3htsgYSsbfffvsgd2O7CLdam3ciVwm3RWsg738hMaTf18BkJ3LoIbtsvE5bg7SArRGygTDEjw9IRuyHHnqo52nTiC2yQrYgZgPNKArYIhmxkwE7jpgNANWlR2xttM8dde6eZjcWRezokej/hOzmELE98RWwtVBCtq94HZcVcUOK2D7iddH8RWi7sV3G67i8ncgitGNFXK9D2vz1mdQXXXTR2BqINq6DyRokQ/a+++7bM//4GoS2DlUDdnL+eu5x8XUgZAPNSp5/qyN2Ml5rWRE7GbA1QjYQjuTPQvGInfwePf61IS9iaxwxAgDl5Udsbdh8VzYhOwhEbA/KBGzTeK1dO//EpqcZefzxx41fV0clvYPUVFHEDYHpOrheA70b+89//nPTSxBZsGCB0Rro+GwqK2JLyJV4p+PlX/7yl6aXwHgdqkT8+J0qJiNuKGtgsg42a5AXcdNCdkjrMH/+/MyXFcVrk/kn10DEQ/btt9/e9BIAnRLfcVkUsMWRs1+vXvrGD0eP/+TCT0YPf3/j3MyIraXF7DvuuKPp6QOd8sQTT4w9nhewhW3EFkUh+84772x6CQAgOAfN+F+L17bYlU3IbhwR24NZsz84+oingC1CidiiKOCm7Yh0GXFDkbcOyTXox5AviqKlXgfXEVuEFHDz1sHFGuRFbBH6OpT5RYZpxNbrEMoaiKyIbRqw4/NPC9hpayB0yCZiA/VKRuy8gC3KRmyRDNlEbKBeOmInjxFxFbG1rJhNxAaAiewitma4K5uQ3SgitmO2AfviY39VeqxQQnZWvM37c/5+jLhp65C1Bv04fy0tXKatQ9WQnTxOIzTJdUiuQdn5xwO2Fupu7LyPhbIR22QXcmgxPxmx9RrknW2dtQY2EVtIyCZiA/WKR2yTUCURW0jIto3YIh6yidhAfbICtsg67k+HbNuIrb+uTJ06tef5RGwA6FUuYI+bttvHCNkBI2I7VGfAFqFEbBEPuCZn0fZjxG1qDUKZvxYPl3nr4CpiixBDtl6HrDXwFbFDk7UOPiO2CCnm64idXIM6IrYgZAP1kthkE6iqRmxNYjYRG6iPROysO3LMi9hlA7amQzYBGwAmWnv+Z6P7G5k1c8PSt2EessfvvJuQXQ8itiM2AbvM8SFJf3p0E7VixTNqyeqzU1++2WabTXiei3d1VjCVgGt7R2q+I25e+C4jfkeSWcHIZkwX89fXlBewXKxD1p1opo0r0dLkY8HVcRpF8097e1tp4bho7KJ1KDP/rOswjdhl1iBv7ibXkDem7Rpk/UBoG/GTdxKZJSsY266DROy0jwXbiF10J65lfplRtBZl1iDtWtLGyfrBX9txxx1Lj5X2791+++1Xai5Cvl5ff33vHSrLHe+5HEOPI/LGyrtjYNM1y1q7+DhV55L8/L7uuutSx2rDOFlfq5JjleUqYs+YMSPzbcreCXTe16l77rkndbwddthh7PGddtqp0trMmzdv7PHkWGXmlDefv/3tb2NnmFcZq2iMuORRM7J2Vdds7ty5qc9PjmUypwceeCD35XfffXdj49iOVTSGzTgm8q7F9t/rZMTWsmJ41tgmX1P++te/5r48OWZyLBdjmIyTJXnHuiayxjL9Glz0ywT9dcV2TldddZX1XLSHH37YaKwqY9Q5julYPsY54IADCt8mb7OIfv/bzulXv6q24THukUcemfC8Aw88MPP1q2wESo7la5yseU1d8LmRnwOG1NDQcPTzwB67PKfSGEedu0f+K8RC9uDAFHXjpadXGg/FiNgO1Bmwb390g5HPjilqaHhQrVg5pBat9qrU10tGbBfv5qJg6joa21yX72tKRtwQ1iAtLKddV90RW1QJxkWKoqrra6p7vLLX4eO6bMZ0uQ7Jr1dlQuq1116bGRLqjtg2Y1YdX889qcxalB0/bR2ajtgu4jIR204oEVuPVWfEto2ri5aP/vCTjNj777+/8W3o2Nt0xI4HbNHGiF11nKJfUMZDdl0ROy3Cms4rL/42GbHLzMlVLNey4nJetEkqE121uiO2aYStI5ZnsV3PtDWMj+UyZNcVsZNhtGisOmK563GyxmoqYosyIbupiG3yNapsYLYdy9U4mt6FPTw0rIZGHkrM3vtFG5deO0HIDgsRu6I6A/ZfHlxDDUxeU6lJq6thtZpaOaTU8uXPqKfWyN6N7erd63oXsit1hHXbgFvHOtR5TVlj5Y3XLxHb5y5kX9fi8pqaiNguArbQITctJpgEZVc7kG3GdHENaQE7ax2KrqtKxE5bi+RYbY/YIhmyfUfsvIBts2ZZaxcfq58idtmAmzVG3lhlxnMRsYUEX9cRW2R9/SBi24+hx9Gaitg2c7INvz4idpPjpI2luYjYomzIJmKns1lPFzvLhcnRLjbBVysTZesax3asNsTytLFMI7awCdkmc3IVsstEbGEbmOsaJ20sTSL20NBQ9LPAyIMoYq8c+W//F0+3HKEXITscROwK6j4D+8/3r6YGJ6+pBiatoYYHJ4/uxn5mSC2anL4b29cuZOFrx2+V6/IVlbscsfMCdtGYPkJ23VE5lIhtG7BdXFMTY6b9c+QjYou6jtEwHc/1vJO3Vea6qkTstOgbH8tVwBZ1RWxRtBu76pElWpmIbRuws9avTRE7LS63OWIf/sYPq5/2WcQWVaJsGyO2yThaWsSuumZtjNh1jVNXxBZ17Ma2jdiiSmC2Cct1jZPGZcQ2nYvIC9llwrJmG2W7Hstdj2N7nJBpyDadU9WQXTYsi1AjdlbAnrrgs2PHiMjD0YCtooi9cuWwOmTv55ZeR9szsgnZ/hCxS6o7YN92zzI1MGn1aCf2wGprRI8PGezG7seAm3VdoexC9r0GRWHZ5XWFFLHr3hXc1FEaVa+l6LraFLGrhtyy8bbK2P0Ssavuwm4yYjd1zIerMfLGIWLnj5E1Vhsjtjx+3cWfsLodInb5uYh+idgiGbKJ2O7GiY+XF0t978YuE7BFFyK2MF1PInZ/juM6ltuE7KI7U5d/Z2znVCVkJ4OvjGVz57KmgblKLLcZJ20sLTpKJHaMiN6FLQH7mZUq2gB6xIGbGI+TRMgOAxG7hLGALWo4RuTP9yxRw2owOgtb4vXgqpA9PPJJsXJ4QD3jaTd2iAG36Npc7hCvEnB9rUOd12QyVt54XYrYPtehbMCWuJIVXoquyWU0N10DH7uwm9iB7CJiuwzY8duzuTYidu9cNCK2OSK2OSJ28bxEXXG5SvC1GSdtrBAjtjANvz5jeXycKmNVHSc+XhsjtigTmIvOji4zRto4aWP5itiuo7zICtlVIrYwjbJ1jVNlrLbE8uRYrkJ2mYgtyoTstIAtbCK2MAnMVWN52XG0rF3Y8vAZidjPDKvlI/+9/ODyEVsQsptHxLa0x1GnqqHh5aNP1BCwxV8kYg8PqOGB1dTApCmrdmOvuWo39qTR3yqtcL8bu84dv66uK5SA2/aIbTr/ojHbepxGE7uQXV6LaHvEdhFym4jYeevg8w4lk3NPu622ROwyMdbnHRQSscsxidiux8gai4hNxC6aiyaB2XfEzhonvnZdjNg241QZy2XE3vfoj6gzjjs483Z8HinSdMT2NU7ZsdIUrantOCbzSYvYtne0mCa0iN2GWO5jHFchOysu53EZsYXLwFzXOGljaZm7sIdUFLBXSMReMaRedejzVNUAWng+tiBke0PEtmAbsEXVY0TE7fcsUUMypJo08hkwOdqFPbia3o092ctu7BB3IZtcV90Ru851qPOa2hyx8+Kt6TWFErFtryM+dxm3TMQuG7Dz1qFoDVzswtbjxkOpRAT5JqrOeJu1BlnjpbG5BgnXOpYUzcf0ulwEbJEVsV3uws6aGxG7+tr5PquaiD2urRFbJH95FnrELpoPETtdaBE7LST5OiIlL2KLpnZjV4nYwjYw+4rYLsbJ0kTEFsmQXTX4aiZB1sVY/TROkxFbpIXsMgFbsw3ZRWO5CsxNjaNNXfC52J056v9Gz8KOdmGP/LdixbBaunxILVk2oN70r6M/k5QNoUa7sQUh2wsitqEyATvahT131S7sCqt8e3SciBrdjT242ujZ2KvFz8Ye3Y29fMUK9fQaR014+34IuDbXFUrAdbkGdV6T7Vh547mI2FVCbplrqhJxq5xBXfVadEyJR+z406bX5SNiF61D1YgdD7lCx9I2Rmzb8YnY6XNre8ROG6toXVxGbB9xmYidjYhdbl4hR+wy4yTXzmXI7veI7XqcvLGSY4YUsW3WoY6IXec4WfLW1GeYj4dsVxFb5EVZYnk941TdjV0lYgvTkG06TtXAnBaW08ZyEbJzd2H3BOzYLuxVR4ksWzGknl42rF5/ZOxn0uHymc5oN7YgZDtHxDZQJmCLi9+U8wXGctWTu7EHJWDLsSKT1lDDI0+vHBpUK55ZqRZX3I0dYsC1va5QAq6rNbC9JgkfyRhiek1l5l+0DnXvRNbKhOwmAq7ruVeJ2FXnX2YNXOzC1hElGXObOAvadjwXc8+K2Mnbqjtii7SQ3aaIXRSWfY2TNlbeupQN2IKI7W6csuMRse3n5Ws+/RixXc3HJDC7GKuOcapG7Ph4Lo8UEWXOci6zDra7pH1GbBfjZMlaT9/zaXPEDmUcl2O5HqdsyK4asDWTkG0zVpU7evQ1TnKsrIB97LHHRg8v/dwLx3Zgx+/QccXK0aNEli0fVkuWjrz+K1N+HisRs413YwtCtlNE7AJlA7bIjdhxhjc7djZ2bDe23Mmj3OHjEcf+aOz1Lrjggglv6yvgitB2IpeNuD4Cros1sJ27Fsoa1L0TWetSxE6L912J2PGAUjViuwjYNuOlKTN304iddW3xt3MZsIVtxA7pSAyT+fgaJ20sIrbZOGljEbGJ2KbzIWJn66eIXXacrPHq3o3tImIL013SVcOyzW7s5FjyeVH1cyFtTavMySZkJ+Ooi/lkBVmXcblL45QZq+yxIq4itsgL2bbjuIzLTUVsccl/bjN6JrbsvpbjRFaOn4X9ykP1z6IZ8W0496UT2Efs6JHo/zdd9mmrdUAvInaOKgG75ygRGw7eG9fOPzH1+W0MuGWurZ8idpm5a7ZrUGX+eWtQNmJX2YUtbCN2EwHX99zzjtJIXpOL+eetQ9oauNyFLbIidtY1+YrYWeOljelr7lm3V3RdviN2nUdiCCJ2MSK2u3HKjkfEtp9X2yO2KFo7Inaz44hrrrkm9fnJ8eq+g8d+jNhCn3+v6c8JInavtBhLLK9/nDIhO9SILcoE5qbG0Q7e5Gt2i9YjO2abJjnjI0UEIdsZInaGKgFblI7YcSXfM7YRu2q8FGlhpO5dyKIo4ta9BlXWocrcbdfAxfzz1qDuiBuf/8DAgNE1uYq4Ltagyg50EY/YptfkO2Inx8v6p8dVyLU9SsNlwDYZz+fc826LiO12PnosInYvIjYRO65NETs5nypjVY3Yosra1R2xk8G3rnHKjuUyYos6d2O7itjCJMgm43Jd47i8s9P4mro4sqTpMJ8MsmkRu83jpI21/fbbq5kzZ3ofx+bjwSZkJ+9w18V80kJ2lVBuG5iTX6tMx6o6jlYtYmvlY7ZVxBaEbCeI2CmqBmzhJGInWVyKacj2HS+rhOyqEdd0J3KIa+AiYJuugav5561BUxFbbifEgOt77hJc4t9EFF2Ty/mbroHrXdiajgbJb6L6LWIn5x5ixM76uiSyomvIETtrPq4jdp3rJuqI2K5ibyjj5I1VZrw2Ruy0r7+a6xhbV8R2GbDzxrJZOxe7sV1FbJEVfl2F5TLjVBnLdpy88eqK2C4DtsiLsckAW2WsMuMIH7ux64jYdcwpHmSTIbbuceT7epeBOW0c4Tpkp41j+/FQFLKT8dr1fJIhu+pub5PAnPY1qq5xNDcBO84+ZltHbEHIroyIneAiYAsvETuu4NLaHrF97UJOXlMdAZeI7W8XssgLCSYRu4mA62r+WXMPPWL72IWt317GTvsmKvSIXXXuLiK2q4CdF2HjkuG1SohNm1vV+GQall1G7CbWznfEdhl7Qx+n7Hhti9h5ETbO5S5K15/fpnOqa5w4l+vmO2LnxV7XEdt1wLYdp2i8uo4UcR2xRdrXDZcBu8w4ca5Dtqs7jyw7Hz0nV3E5K/i6HidvrDrisubyWBEXR5bkRey8gK25DtkujizJ+jqT97WprnE09xFbG059VtpPr6UitiBkV0LEjnEVsDXjO3asKuNSi0K2y3gpmoq4eT/050Vc1/N3tQauAra+nbxrqnMNTCKu64Cdd02+Am6VNXC5A930enzMP2vMvIjtYhe2kGBgG7FdB+yi8dJUmb+O9ybz8R2xTSNsnA6woUbsojnVNU5SfL1CjNg+Ym/aOKJorLrGKTtemyK2acDWXMUnXxG7aD51jZPGRXzyGbHLxt6QxomPVTSOyXh17Mb2HbGLImxd47geW/iO2LZzchWY84JvneO4CtlF4whXIdvVudvJr7Mm8drlfHTEdnXmdvJzpCgqV7l+27E0fxFbFO/KXnevL6pD3nBJ+SEI2aURsVdxHbCF993YWVZdfl7EDjXgalnxOUvWGG2M2K7mXnRbVf+xtF0D053IeXfIaHObJrcT2hrYzD3r9iRKS2gxva261yDvOI2i80NNbsfmNvTt+IjYtmtQ5rrT3l6eb3tbrtYha74mJMKGGLFNwnJd4/ga30fENv1YcH3tvsYxjfJlHTn79dHDZMQ+4cjtrG5nxowZXiK2qPL57SKg+IjYJmG5rnF8je8jYruIvS7HqmscE9OnT898me0ZsFm35StimwbYquttM5aP8V1/LWl6PnVGX5NxXITspr6HqHp78rXWNl67HF9Ctss7jtRfa0yicl3jaH4Ddlx6F5RcWDliiyhkj99/FyHbDBFb+QnYWm27sTNc+9iJ1W/EAduQXVfI7Yf5hz53zUfEzrrdvGNEQl4DF3Mve1t1cRWxk7clAVZCQZmAG8IaVI3Y8dsoG7IBNKOOiA3Ar3N+9JfoYdaRIr4jNgB0RX0RW+tthFN3+5g69G1Xjjx7qPpNx0L24MAUdeOlp9c8t/YhYo+YNfuDo494WIrGdmOv0taILf7+97+nPn9gYGDC87JuX3ZbhxIzm9iNHVLEFiYhu59Druv5J29P78IOce6ar4hd5XZCWIOyc9fxPn4bRGygXYjYQPu5jNgEbABId/AmF6jCO4jzZlj96Ldrqgt/u4ubgK0Rsq10PmL7DNhjRj7AL36z+Z9HuHTY57ZTH37TQY2MnWQbsrMidpbNNtus52kJ2PIn2qGE3Dojtj4qJaT5ixCPFAltDapE/K5G7HjILXM7oaxBmeNUiNhA+xGxgfbLi9jswgYAN+Rr7Qf2/ZWatcPaqu6YPXW309Shb71ytDe7jNiCkG2s0xG7loCtjXyQX3n+S9T8Gz/odZiv/XC+uvKx2T3PO+Hl26e+bpnd0dq0adMyX/bHP/7RyXhVI3Zc3tnYtqZOnVr4On/6058qj1fHbuyi60l+ech7v5vMv44jRWxDruk1mc5dn+vb5LnY4oNzrlQnHPnCSrdhM/e084xtz8V2sRP7lLN/YTzvousR66yzTqm51zV/HbHj865yLnaWKudlJ9ehrnHkbOc0rs97Thunyhjxr9nJs7L1WOuuu27m25c5WzxrTlnjlD2/PGucKuuV9jUzeX61xN3999/f6Rhp45TlO2K7ulPHuHvuuSd6mByvzFh5X69cjpMmeX5plfOji77u/u1vf8scx9WdOCa5PA87a4yy48TvvDHN3XffXXmcojHEXXfdNeF5ZWKxjtgiGbKbOg+76Jdaf/3rX3NfbnIHiCa/OHMxThqbM3SLxjH9BeCdd95Z+Dq2dxao72TQVl3j2IxVZYy0cQ444ACjt7vjjjuczkffUWJVRWdU+xqn6I5k//KXv6gymhpHi3+d1ZYsfEz99OS/Fd1kJVf8fi31tZukqQ36CdgaIdtIZyN2rQE7btUH/Ltm/VztscOUyjd3+H9tr9ZZb6PUlw2NzG1wcFL0+AlHbpv6OmUirknQSgvZLo8UyZIVsl1FbJOALdoSsfPermzAFhI4qtzBY50h12XEjoeduubfTxFbVA3ZZSJ23jUVReyimJe2Bj4ifj9EbNd3LOkrYpuMRcS2G4eITcTO0qaIXTSXECJ21XHaFrFNxulyxBZ5gblLEdt0Lj4itigTf/stlqeNk/ycz2ITsU3n4yIwhxqxRZnAHE7EHlTDw0Mq5ZRZtfjJR9X7D7hJHbzHhqXGjpt9zotjT0lg9hSv4wjZhToZsRsL2HEZv71Z/ORjPX8UIZc4dZ0NjG4yHq2TXEVs05DZr7uxTSO2SAvZTUTsk8/6Web7P+vt0r4s1LUTWasz5LqIuPG5a03txpZ5CxcRu2zAzpu/r4gtIVdzsRu7yi7sMmvgKmKX1faILV8zs6Kv5iJgp82pHyO26zHy1o2I3c6I7SosE7G7GbGFbcgONWIfMfvf1Mve+KGe58VDts+InbcGVQKzTViuI5ZnsQnZLiK2KArZZSK2sI2/XYnlrkO2zXyqROaigO1ijLRxTAK2ZhOZy45jG7JtdmGPy47aSQsf/+foI8PjD6ZlbgqVkDyon7KaRyWE7Fydi9hBBOyE6BPO4vWHokvPDtZZ0kKmTVS12YkrQtqNnRdyTa/JJmDn7USuO2S7iNi2u7C1tDWo40gRYRNyq0bc5Lzz5m+yBv0SsbPWgIjtNmKnzftfjzpGXX6p/Z3apl2Xj7jsehz9tTKEiF11jK5F7Krr1X8R+1OrHv8QEVulR2xXAVuLh9kmI7ZwHZhDP7YkhIgtkiG7yYjtahe2VjYw1xWxqwRsYRqxTcepuhu7bMAW/RKxXY9jGrGFScgOLWK7HscmYgvTyNxULNfyI3bSaHgeHl4ZPRwwqdsjhoZG3nJwMP4cizEdI2Rn6lTEHgvYojvTHlM14tqETPkm2UXEFfpOCk3MmTNH7bzzzj3Pk4ibtwYm12MbsIWL+buc+3UXf9zomlwF7Lw1MAnZcra1qbPOOqtn7jrijs/9jNLX00TE9jH3MtdUNWDnjediN67MfebMmWNPJ2Nu2jeLNtdT9SgR2/FsI66+Q8e0iH32j+6Y8L6v67qSiNjl5pI3HyL2uBAjtk20mDdvntp1z9EfBCVcxyP2l9//KrXrrrta3VY/Rmxfu7A1HWVdnB9NxB4VUsQ2Gcc0YmeN9+TySeplbzyl53k6YsvPELvttpvRdYqsKBtyxK5zHJs1KzNO1d3YVSK2MI2/dcXyUHaVu9qNXWY+ZQKzTcD2MY7NL85MAnPaOLa/7Csby4VdwO4jhOxUnYnYXQ/YWtmIaxuwRZ0RVwKuZhuxi66pTMDWqqxB1bnH5y1MIraLY0RM5u8q4krETJt7Xsh1HXGz5p43nuv55839rJNf1fPyfonYeu46YsdDrrjywtPVnX++Re2yyy5G15S8Hhe7sG3nbzr3M888M3qo36/xuV/59dGP9UPfcKo68wOvTJ2/r+tKkxWXk+O4COVp4/RjxK4rLhOx88dIG0cz/SFfx8Dd9jooepgWsYVpyM76vPYRsYX+RVrVcboSsYWE7KyALVwGZh+hPDmGi3WzCdlNRuyssc4++2z1+reeFD2eFrLjP0eYxuy0KFs2YosygbmrEdt0Lm2O2HWN4zqWuwjZZedjG5ibjtjCZch2EcvLjKN1O2JHj0T/J2SP6kTE3uOoU9XQ8PLRJ/p/urnKRFzbY0Ti34z7jrjxgBun404y5LYlYvuY+1knvzp6mY+Imzb3vDVwEXHjATs+92TEHZ37eMgNIWLnrYHLuf/8gtPUXbf/qVTEdjH3vPHKxtK0uUvI7gm5F47+4y4RWyRDrsk1uYrYWeOVnb8O2Nq3b3h0fN5fH/9ljY7YafM3XQOb68oSUsR2FbAFEZuInTaOZvLDajwEFkVsYRKy2xqx88YhYpebS9p8XI3TVMSuMo7NkSI2sVgCtjCN2MIkZLcxYtc5jumalR2nym7sqnFZmMTfNkRs1+O4OFakynxsInOZiG07hsk4rkK2q1huO47obMDWEiH7pss+3fQVNa4TETvEc7CbZLMbu0rAFr4iblbA1STaJSNu3vyzrqlKwM5bgyrzrzL3vN3YZSNm3tyz5p82nlYUcdMiZnzuaRH7Z187Vd19x21WEd93xE2bf5W5X3L9Pyc8TyK2KBOyXezCzhuvTCzNmn9y7nVEbJuIZzJe0dyT8VpLi9gSsKO3WRWxy66ByXUVqSNimxy/IdoQsZP3g0DELtbGiJ2MgGkRW9x12297Xq8oZBOxy3EZsfPmIvohYheNE2LENhnHNmLrgH3xtQ+pH184GhVMIrZWFLPjUbZKwBa2cblsWK5rnKL1SvIV5EU8ZLsI2KIo/LZpHNdBvkrIrjof08BcNmD7GMdFYHY9TlbEZhd2jljIZjd2ByL22C7s/p6mFdOIWzVga2VCdlbELQq42sXXPZz5MtP5uwjYZeZfJWDnzf1nXzstCrlZ/3CEHnHzAq6WFnIlYAsdsU2vyXfEdT3/5Nx1wBYSsYXp/F297/PmL0wjru3cdcQ+9I2npe5GLroel7uwq84/K15rvRH746PzfsNHx9/eMmQ3EbFdjZE2DhG7/HyI2PljpI2j5f3AqkOLvpOhj/zPL3t2X+dFbJEXsvsxYrseJ01IEVu42iVNxLYbxyZi64AtJGKLrJD9hff+69jjyTsXywvZLiO2sAnMPiO2i3FM1iyubRFb5MXfNkVsH+OUPVbExXxMAnPViO16nKoh28c4JrFcELBjYudjd303dt9HbBHtxO7/aRozibiuArZwEXFN47XIC9jiZ/97qvrh9y/NvR5XAdt2/j7jvUTsw950utFubFe7sPPWwDTimsRrccn18g/fxHseloj91f/9mrr02vvHjhUJJeLG1yArYJeN9zpiv+TY06N5C5cRu46IW3buErElYIu0iFs1YtsGvLLzzwvY8Xg9Nu+vf7wnYGfNv+p1mcqLy/0asV0eJZI1n6YjdtkxssbpSsROiysfPW/0h9R4xNZP68fjR4rEpcVsInY5/RSx8+YTasQWJiHbd8QWErJtIrYcI6KjdVbEFvGQLUxidhsjdtVxqt7xqMuIbToXoUO2y4gtsuJv22K5zTgmY5TZje1yLnmB2UXALhqjzDhlA7PNOFViObuwDcR2YxOxOxCxr73+IvXez9/a9GUEpShkl7kjxzymR2okI67LeG0zf5cRO2v+aWtQdv42c5ezsfN2Y7sO2Hnzz4u4dvE6zcSgbRKxXQdsn/NPC7hZTEJ23fPPC5m2u6/zmIZsuR7Xu7BN5p+cu83u60LDQ+rMkc/55PzLXJetoiBb1ziuAnMcEdvdunUhYusf3pPhSkfsIqYhm4hdnkTZLkXsquO0MWKbjJMVsYt2YZtIhmxNf13IC9kuIrYwDcxNRGxXdzyaDNlVd3ub3sljMpJWDfIiLfwmx9l+++3H7uQ85HFcB3nbkN22iO1jnDIh22cszxtHI2LHDAyqlYv/oX77swubvpLGdSJii19dfYFavPgptWTkv/ANVL+JAsuXrZ/6fImqLndhayYRNx5wbeK1eM70Ibv5L82ev+uA7Xv+tnMXs191UhARMyvimgbsjZ9rPXW15eb7ZIbspuZfde6mXzG22Hx0nLyQbzKvMhEr7+iKeMQ0mf/0Eu/3zV8w+vlVtBu76fkXBezpM+z/fXhq0eNqx51eNva06Y70NkTs5Bhp47gIpWl8BNlQInbe7RCxs8fR4j/kJX9w18Hq3r/Ps7qGnWa+PPX58ZBNxC6vroidNp82Ruy8ceqI2GXfN0XjXHPNNanP1+PFA/az1nhE5Zv4I/YOO70887XTYnZexC6zBiZBdt683q9NdY3j6i8FmojYefNxHbLT4rJwHZibiuU27x+bY0Vc75LPCswuI7bpOKZj2Abm5OdSXeNoy5feYXU7/Wh4eECtNW19tXz5cjWw2rPU4GqT1Bted1LTl9W4zkTsG264bOQbh83Vz392rVqxYkXTl5PBf7yOywrZef/YJj9cqoY8HXF1wLWN16JMxI3mnxGyTefkYjdm1fmbz733Y0tCbt49A/sIeXlHiuiIaxpwRZmArecuqszfVcTUa2A7/zIRV5hE7LrnLyFTR0xfAVvoiC0k4padv6tIqOlvCIvidTT3EgFb2+IFvX/lkbcGPiJ2MsbqcXyHctFPEVtkfQy6jMt1jeMjYqeF5ao/RJqE8rTx5IfP5O5refqxBX8qdR1bvCD92Ckdsn1EbJEWZZMhtuo4WeHX9ThZXEZs2/m0OWK7XLO8wJyMyz4idlbA1uOdc845Yz8HbbjRM6Xn+YLN9sp9eTxmS9xxtQtby4uyyRBbdpyi8Js2jvCxG9vFudtV5tOGiN3UOFXDsmnETt6Zsp5P1bkkA3PabuI6xrFZN9PAnBaW6xpHmzzlMfvF6lOLFz+t1n3u5uo1L3t905cShM5EbHHV1RdGu7EXL17S9KUk1BuvtayIrbkOWXm7kW+55Rbr6y8br8fmv7T8/F1GPPkHwU+8zv64KorYdc/fJl6LsgG7H+ZfNuJqWxhE/Lw5+oi4vuO9Fg/Zt99+ezDz9x2wtWTIzloD13E5LcTWOU5bIrZJwI5LfixWictp8/Exjus1MwnYwnXEzgvYerz4D53xkD3/8dsqXUtWyBbJO7FyNf9kkE0LsVXHMQ3lLuaTxnfEzppLnKudqGlzSRunDRG7aGe073G0J598MnroImJrRTFbvOhFL3L+y6msIJsVYusaR3Px8VlXxC6ai56Pq5CdjL6a693YeeOEFLFF3te6tHjtej7xf+uzjsSoOo7LiC3yAnNeVK5rHDF5isXRiX1p/PvGZcuWq0lTnh095w2vf1fTFxaETkXsG268TC1c9IRatOgptWL58qYvRzUVr+OKQrZI+4HVZcR7/PHHrW+rasAem//S9s0/e+52H08mITdtrq4j3oIFC4xvo2q8js9dtG3+VSOu0BG7bfOfPiPnhRb/itmE7OR8Xe90FfPnzzeYu7t/K0xCtsu4nBdi6xqnrohdNayZzCXJ1cdn2nx8jOMzYpvsjPY9jrbRRhul7sCuGrC1rJDtO2IXhVhX0dfnOFl8RmyTgK25Csx5n8+uxvEdsYt2RrsYpyheaxKxXQZszSRk6/OjXa1BMsgWhdi6xolzEX7TdrFX+bhpcj5FEVu4DMxNjVP2/ZP8OlQUr13ORwfmrIBddW5F45S93bTA7DJgZ41TFK81IrYY/T5y8ZKn1etf/0q11rOKj/Dtik5FbHHV3Auj7fiLFy1u8Cqaj9eaScTW9A+uPkKOTcjdaFXElVW0/eBNrrxJxA5p/hKwe+dc/LGU9RqmEdv3/E0j5nMMA67pZ1eb5u8q3sfnLkzn72Luocx/C8uI7Wr+ZSP2xjMGqv+LMdz7i68tNh8Pxz4jdlGMrTqOyRjCR/ASPiK2TcCOk49NnxFbjxF/6GIMVxHbZGd0FTKOSbzW0iL2gnjAHsj4rLb4ljz+eaz5jNgmIbYt46TxFbFtArbmIuAVfT77GsdFXDYJy3WNI+K7sDfcyP0mqBdstk/uy11HbKGDrK+AHR/HJvbGVf349BWxy86n6lpK+M2Ly8JVYPY9TtoYVdZHf+22ideuxhYSmIsitq9xqtym/vwwCcsuIrZxwJ78z0rr1DcGBtWyZcvUpNXXHnliUL3xmBObvqJgdC5iL17yJ3Xd9TdFx4osX1b3buxw4nWcTcj2xSTibpTYgWwbsbNW3yZkNzV/mbu+/mGLj6Oi11y+dL2mpx4pCpmuA7awjdhNzd91wG7T/H3NXYds04jtU17EdhKwhWXEBlCNRGyhQ3Y8YA8rNSFwj71sWP6tN/+sT4bsrIgNoDzfEVvkheysiA0A/YiIPWp45HvFJUuWqfVnbKFmv/Topi8nKJ2L2OLquV9Xu+y6XdOXEYzLv+fmz1urygu5x76l9we1+I94Jh/AeT8ShjD/orknr79ozqY/Av/1jqEgQmZexH3zW/er/D5u6/zf9NbsHYpV42Yoc8+af9rcXf4a8M7bVwYTcNNC9pvftr/bX3uueKJ3/nevHT0MZQ2AfqIjtth7zzXGHn96+aBa81lr577tiqcfH/kBbtB4rNvvfNbY40RswD0dsd907M5ex7ntz5MnPI+ADaBLXvmKTZu+hHCsNk394Mc3qqGVK9Wx/8ZZ2HGdjNg3/PoS9eQTi9WixUuig9L9CnP3ddLKFRs0fQmpIXeD56z0P/flzc89e/5uzv7On3/zO9FFMmRuuLH/L03bbLlvECE3OfeNpq+au14CT19Gtt4i0PnL+97zl86tNt8nmIAbj9jPmZ7/ulU+KwYSIXurF74smDUA+omO2PMfvUGNfTFbbardjTyz0PhVt9rmiOghERtwTyL2etPqOZ91i61f2vM0ERtAl0xSdzV9CY17eplSazxrmlry1DK14fO2UrNf+rqmLyk4nYzY4tvf/x+15mpD6smFS1S1LJClHfFaeyYjZGb9yasP8YhbR7yOCyFk987ff7zWQgu5vuN18iP6mcAi/ljArkFoEbvOuYtQQraO2EUBO0uVVQvll1hAP5GIPf/xP9c65lYjX8+J2IB7k1ar/w7Gtth89NgzIjaArmjia22oli5dqg5+yUFq8+ftXf3G+lBnI7b41rfPUosWP6WWLV3m8FbbFa/jpj5rhv1sHUfuJ596oPqNlDDtWZs0Mu7E+T9Y/UZKzd/+fd+WuZt8hJb52Hdt4dPNvO+nrtn83Ls+/wlzr/ivss2b77HbIUGEfKCfPLHk/kbGXefZz2t66kDfeWJxM5/Ps3Y9mIgNoDOa+lobmqHhYfXUU8vU+ptsqY5//ZuavpwgdTpia3scdWrTlwB40N5fqAAAANjgux4AANBmTz92l7rl6ouavoygEbEBAAAAAAAAAMEiYgMAAAAAAAAAgkXEBgAAAAAAAAAEi4gNAAAAAAAAAAgWERsAAAAAAAAAECwiNgAAAAAAAAAgWERsAAAAAAAAAECwiNgAAAAAAAAAgGARsQEAAAAAAAAAwSJiAwAAAAAAAACCRcQGAAAAAAAAAASLiA0AAAAAAAAACBYRGwAAAAAAAAAQLCI2AAAAAAAAACBYRGwAAAAAAAAAQLCI2AAAAAAAAACAYBGxAQAAAAAAAADBImIDAAAAAAAAAIJFxAYAAAAAAAAABIuIDQAAAAAAAAAIFhEbAAAAAAAAABAsIjYAAAAAAAAAIFhEbAAAAAAAAABAsIjYAAAAAAAAAIBgEbEBAAAAAAAAAMEiYgMAAAAAAAAAgkXEBgAAAAAAAAAEi4gNAAAAAAAAAAgWERsAAAAAAAAAECwiNgAAAAAAAAAgWERsAAAAAAAAAECwiNgAAAAAAAAAgGARsQEAAAAAAAAAwSJiAwAAAAAAAACCRcQGAAAAAAAAAASLiA0AAAAAAAAACBYRGwAAAAAAAAAQLCI2AAAAAAAAACBYRGwAAAAAAAAAQLCI2AAAAAAAAACAYBGxAQAAAAAAAADBImIDAAAAAAAAAIJFxAYAAAAAAAAABIuIDQAAAAAAAAAIFhEbAAAAAAAAABAsIjYAAAAAAAAAIFhEbAAAAAAAAABAsIjYAAAAAAAAAIBgEbEBAAAAAAAAAMEiYgMAAAAAAAAAgkXEBgAAAAAAAAAEi4gNAAAAAAAAAAgWERsAAAAAAAAAECwiNgAAAAAAAAAgWERsAAAAAAAAAECwiNgAAAAAAAAAgGARsQEAAAAAAAAAwSJiAwAAAAAAAACCRcQGAAAAAAAAAASLiA0AAAAAAAAACBYRGwAAAAAAAAAQLCI2AAAAAAAAACBYRGwAAAAAAAAAQLCI2AAAAAAAAACAYBGxAQAAAAAAAADBImIDAAAAAAAAAIJFxAYAAAAAAAAABIuIDQAAAAAAAAAIFhEbAAAAAAAAABAsIjYAAAAAAAAAIFhEbAAAAAAAAABAsIjYAAAAAAAAAIBgEbEBAAAAAAAAAMEiYgMAAAAAAAAAgkXEBgAAAAAAAAAEi4gNAAAAAAAAAAgWERsAAAAAAAAAECwiNgAAAAAAAAAgWERsAAAAAAAAAECwiNgAAAAAAAAAgGARsQEAAAAAAAAAwSJiAwAAAAAAAACCRcQGAAAAAAAAAASLiA0AAAAAAAAACBYRGwAAAAAAAAAQLCI2AAAAAAAAACBYRGwAAAAAAAAAQLCI2AAAAAAAAACAYBGxAQAAAAAAAADBImIDAAAAAAAAAIJFxAYAAAAAAAAABIuIDQAAAAAAAAAIFhEbAAAAAAAAABAsIjYAAAAAAAAAIFhEbAAAAAAAAABAsIjYAAAAAAAAAIBgEbEBAAAAAAAAAMEiYgMAAAAAAAAAgkXEBgAAAAAAAAAEi4gNAAAAAAAAAAgWERsAAAAAAAAAECwiNgAAAAAAAAAgWERsAAAAAAAAAECwiNgAAAAAAAAAgGARsQEAAAAAAAAAwSJiAwAAAAAAAACCRcQGAAAAAAAAAASLiA0AAAAAAAAACBYRGwAAAAAAAAAQLCI2AAAAAAAAACBYRGwAAAAAAAAAQLCI2AAAAAAAAACAYBGxAQAAAAAAAADBImIDAAAAAAAAAIJFxAYAAAAAAAAABIuIDQAAAAAAAAAIFhEbAAAAAAAAABAsIjYAAAAAAAAAIFhEbAAAAAAAAABAsIjYAAAAAAAAAIBgEbEBAAAAAAAAAMEiYgMAAAAAAAAAgkXEBgAAAAAAAAAEi4gNAAAAAAAAAAgWERsAAAAAAAAAECwiNgAAAAAAAAAgWERsAAAAAAAAAECwiNgAAAAAAAAAgGARsQEAAAAAAAAAwSJiAwAAAAAAAACCRcQGAAAAAAAAAASLiA0AAAAAAAAACBYRGwAAAAAAAAAQLCL2/2/HjgUAAAAABvlbT2NHYQQAAAAAwJbEBgAAAABgS2IDAAAAALAVZx4aFXSrs30AAAAASUVORK5CYII=;" parent="1" vertex="1">
          <mxGeometry x="-187" y="140" width="1200.24" height="589" as="geometry" />
        </mxCell>
        <mxCell id="mJipSocHQauUDG9Wr_JG-2" value="&lt;b&gt;&lt;font style=&quot;font-size: 16px;&quot;&gt;X1002&lt;/font&gt;&lt;/b&gt;" style="rounded=1;whiteSpace=wrap;html=1;strokeWidth=2;opacity=80;labelBackgroundColor=none;" parent="1" vertex="1">
          <mxGeometry x="-100" y="520" width="56" height="40" as="geometry" />
        </mxCell>
        <mxCell id="mJipSocHQauUDG9Wr_JG-3" value="&lt;b&gt;&lt;font style=&quot;font-size: 16px;&quot;&gt;X1001&lt;/font&gt;&lt;/b&gt;" style="rounded=1;whiteSpace=wrap;html=1;strokeWidth=2;opacity=80;labelBackgroundColor=none;" parent="1" vertex="1">
          <mxGeometry x="-44" y="520" width="56" height="40" as="geometry" />
        </mxCell>
        <mxCell id="mJipSocHQauUDG9Wr_JG-4" value="&lt;b&gt;&lt;font style=&quot;font-size: 16px;&quot;&gt;X202&lt;/font&gt;&lt;/b&gt;" style="rounded=1;whiteSpace=wrap;html=1;strokeWidth=2;opacity=80;labelBackgroundColor=none;" parent="1" vertex="1">
          <mxGeometry x="290" y="520" width="56" height="40" as="geometry" />
        </mxCell>
        <mxCell id="mJipSocHQauUDG9Wr_JG-7" value="&lt;b&gt;&lt;font style=&quot;font-size: 16px;&quot;&gt;X503&lt;/font&gt;&lt;/b&gt;" style="rounded=1;whiteSpace=wrap;html=1;strokeWidth=2;opacity=80;labelBackgroundColor=none;" parent="1" vertex="1">
          <mxGeometry x="12" y="520" width="56" height="40" as="geometry" />
        </mxCell>
        <mxCell id="mJipSocHQauUDG9Wr_JG-9" value="&lt;b&gt;&lt;font style=&quot;font-size: 16px;&quot;&gt;X201&lt;/font&gt;&lt;/b&gt;" style="rounded=1;whiteSpace=wrap;html=1;strokeWidth=2;opacity=80;labelBackgroundColor=none;" parent="1" vertex="1">
          <mxGeometry x="500" y="520" width="56" height="40" as="geometry" />
        </mxCell>
        <mxCell id="mJipSocHQauUDG9Wr_JG-10" value="&lt;b&gt;&lt;font style=&quot;font-size: 16px;&quot;&gt;X200&lt;/font&gt;&lt;/b&gt;" style="rounded=1;whiteSpace=wrap;html=1;strokeWidth=2;opacity=80;labelBackgroundColor=none;" parent="1" vertex="1">
          <mxGeometry x="740" y="520" width="56" height="40" as="geometry" />
        </mxCell>
        <mxCell id="mJipSocHQauUDG9Wr_JG-12" value="&lt;b&gt;&lt;font style=&quot;font-size: 16px;&quot;&gt;X502&lt;/font&gt;&lt;/b&gt;" style="rounded=1;whiteSpace=wrap;html=1;strokeWidth=2;opacity=80;labelBackgroundColor=none;" parent="1" vertex="1">
          <mxGeometry x="68" y="520" width="56" height="40" as="geometry" />
        </mxCell>
        <mxCell id="mJipSocHQauUDG9Wr_JG-13" value="&lt;b&gt;&lt;font style=&quot;font-size: 16px;&quot;&gt;X501&lt;/font&gt;&lt;/b&gt;" style="rounded=1;whiteSpace=wrap;html=1;strokeWidth=2;opacity=80;labelBackgroundColor=none;" parent="1" vertex="1">
          <mxGeometry x="124" y="520" width="56" height="40" as="geometry" />
        </mxCell>
        <mxCell id="mJipSocHQauUDG9Wr_JG-14" value="&lt;b&gt;&lt;font style=&quot;font-size: 16px;&quot;&gt;X500&lt;/font&gt;&lt;/b&gt;" style="rounded=1;whiteSpace=wrap;html=1;strokeWidth=2;opacity=80;labelBackgroundColor=none;" parent="1" vertex="1">
          <mxGeometry x="180" y="520" width="56" height="40" as="geometry" />
        </mxCell>
        <mxCell id="mJipSocHQauUDG9Wr_JG-15" value="&lt;b&gt;&lt;font style=&quot;font-size: 16px;&quot;&gt;X403&lt;/font&gt;&lt;/b&gt;" style="rounded=1;whiteSpace=wrap;html=1;strokeWidth=2;opacity=80;labelBackgroundColor=none;" parent="1" vertex="1">
          <mxGeometry x="6" y="340" width="56" height="40" as="geometry" />
        </mxCell>
        <mxCell id="mJipSocHQauUDG9Wr_JG-16" value="&lt;span style=&quot;font-size: 16px;&quot;&gt;&lt;b&gt;X400&lt;/b&gt;&lt;/span&gt;" style="rounded=1;whiteSpace=wrap;html=1;strokeWidth=2;opacity=80;labelBackgroundColor=none;" parent="1" vertex="1">
          <mxGeometry x="-34" y="380" width="56" height="40" as="geometry" />
        </mxCell>
        <mxCell id="mJipSocHQauUDG9Wr_JG-17" value="&lt;span style=&quot;font-size: 16px;&quot;&gt;&lt;b&gt;X402&lt;/b&gt;&lt;/span&gt;" style="rounded=1;whiteSpace=wrap;html=1;strokeWidth=2;opacity=80;labelBackgroundColor=none;" parent="1" vertex="1">
          <mxGeometry x="-74" y="420" width="56" height="40" as="geometry" />
        </mxCell>
        <mxCell id="mJipSocHQauUDG9Wr_JG-18" value="&lt;b&gt;&lt;font style=&quot;font-size: 16px;&quot;&gt;X404&lt;/font&gt;&lt;/b&gt;" style="rounded=1;whiteSpace=wrap;html=1;strokeWidth=2;opacity=80;labelBackgroundColor=none;" parent="1" vertex="1">
          <mxGeometry x="230" y="380" width="56" height="40" as="geometry" />
        </mxCell>
        <mxCell id="mJipSocHQauUDG9Wr_JG-19" value="&lt;b&gt;&lt;font style=&quot;font-size: 16px;&quot;&gt;X401&lt;/font&gt;&lt;/b&gt;" style="rounded=1;whiteSpace=wrap;html=1;strokeWidth=2;opacity=80;labelBackgroundColor=none;" parent="1" vertex="1">
          <mxGeometry x="220" y="420" width="56" height="40" as="geometry" />
        </mxCell>
      </root>
    </mxGraphModel>
  </diagram>
</mxfile>
